<?xml version="1.0" encoding="utf-8"?>
<!-- Generator: Adobe Illustrator 21.1.0, SVG Export Plug-In . SVG Version: 6.00 Build 0)  -->
<svg version="1.1" id="Layer_1" xmlns="http://www.w3.org/2000/svg" xmlns:xlink="http://www.w3.org/1999/xlink" x="0px" y="0px"
	 viewBox="0 0 1920 1104" style="enable-background:new 0 0 1920 1104;" xml:space="preserve">
<style type="text/css">
	.st0{fill:#B3B3B3;stroke:#898989;stroke-miterlimit:10;}
	.st1{fill:#808080;stroke:#898989;stroke-miterlimit:10;}
	.st2{fill:#F3F3F3;stroke:#898989;stroke-miterlimit:10;}
	.st3{fill:#808080;}
	.st4{fill:#D1D1D1;}
</style>
<g>
	<path class="st0" d="M51.5,1104c-28.1,0-51-22.9-51-51V76.5c0-28.1,22.9-51,51-51h1817c28.1,0,51,22.9,51,51V1053
		c0,28.1-22.9,51-51,51H51.5z"/>
	<path class="st1" d="M1868.5,26c27.8,0,50.5,22.7,50.5,50.5V1053c0,27.8-22.7,50.5-50.5,50.5H51.5c-27.8,0-50.5-22.7-50.5-50.5
		V76.5C1,48.7,23.7,26,51.5,26H1868.5 M1868.5,25H51.5C23.1,25,0,48.1,0,76.5V1053c0,28.4,23.1,51.5,51.5,51.5h1817
		c28.4,0,51.5-23.1,51.5-51.5V76.5C1920,48.1,1896.9,25,1868.5,25L1868.5,25z"/>
</g>
<g>
	<path class="st2" d="M51.5,1069.8c-28.1,0-51-22.7-51-50.5V51c0-27.8,22.9-50.5,51-50.5h1817c28.1,0,51,22.7,51,50.5v968.2
		c0,27.8-22.9,50.5-51,50.5H51.5z"/>
	<path class="st1" d="M1868.5,1c27.8,0,50.5,22.5,50.5,50v968.2c0,27.5-22.7,50-50.5,50H51.5c-27.8,0-50.5-22.5-50.5-50V51
		C1,23.5,23.7,1,51.5,1H1868.5 M1868.5,0H51.5C23.1,0,0,22.9,0,51v968.2c0,28.1,23.1,51,51.5,51h1817c28.4,0,51.5-22.9,51.5-51V51
		C1920,22.9,1896.9,0,1868.5,0L1868.5,0z"/>
	<g>
		<path class="st2" d="M51.5,1080c-28.1,0-51-22.9-51-51V52c0-28.1,22.9-51,51-51h1817c28.1,0,51,22.9,51,51v977
			c0,28.1-22.9,51-51,51H51.5z"/>
		<path class="st3" d="M1868.5,1.5c27.8,0,50.5,22.7,50.5,50.5v977c0,27.8-22.7,50.5-50.5,50.5H51.5c-27.8,0-50.5-22.7-50.5-50.5V52
			C1,24.2,23.7,1.5,51.5,1.5H1868.5 M1868.5,0.5H51.5C23.1,0.5,0,23.6,0,52v977c0,28.4,23.1,51.5,51.5,51.5h1817
			c28.4,0,51.5-23.1,51.5-51.5V52C1920,23.6,1896.9,0.5,1868.5,0.5L1868.5,0.5z"/>
		<g>
			<path class="st4" d="M750.7,267.3c-99,16.2-196.9,38.6-293,67.2c-24.6,7.3-49.1,15-72.4,25.6c-17.9,8.1-35,17.9-52.5,26.8
				c-35,17.8-71.5,32.4-108.3,46.1c-33.1,12.3-67.1,24.3-95.2,45.9c-16,12.2-29.6,27.2-43.1,42.2c-14.4,15.9-24.4,18.3-38.8,34.2
				c-11.1,12.3-27,33.1-29.2,49.6l-0.1,0c5.7,10.3,19.5,12,31.3,13.3c26.7,3,81,4.1,95,27.1c-20.4,5.5-67.8,13.7-88.3,8.6
				c-9.7-2.4-20.2-5.9-29.2-1.5c-12.9,6.3-13.7,25.3-7,38.1c12.3,23.2,39.3,34.8,64.9,40.5c88,19.4,174.4,33.3,257.7,33.1
				c16.1,33.2,47.5,51.6,81.7,65.6c2.1,0.8,4.6,1.6,6.4,0.4c4.2-2.8,0-11.4,4.6-13.6c2.5-1.2,5.3,0.9,8,0.8c2.6-0.1,4.6-2.2,6.3-4.1
				c9.9-11.1,17.4-25.1,29.8-33.3c3.1-2.1,3.4-0.7,5-1.4c21-0.4,42-0.8,62.9-1.2c13.4-0.3,26.9-0.5,40.3-1.8
				c21.7-2.1,43-7,64.5-10.4c69.2-10.9,143.2-7.4,204.7-40.7l0.3-0.1c27.8,13.6,61.1,22.7,91.9,25.4c18.7,1.7,38,1.3,55.8,7.2
				c22.4,7.4,41,24,63.8,30.2c4-4,3.9-10.8,1.1-15.7c-2.8-4.9-7.6-8.3-12.4-11.3c-24.7-15.4-55.4-27.9-64.7-55.4
				c79.3-6.7,162.1-16.4,240.8-27.9l0.2-0.1c32.8-5.5,64,14.9,89.2,36.6c25.2,21.7,54.5,46.2,87,53c0.7-9.9-7.1-12.4-7.7-20.7
				c1.9-1.7,3.7-3.3,5.6-5c-2.6-4.3-5.1-8.5-7.7-12.8c3.9,0.7,12.1-6.7,9.1-9.3c-7.5-6.5-1.5-5.5-2.9-9.2c-0.6-1.7-1.2-3.5-1.8-5.2
				c-1.8-2.1-11.9-4.5-13.7-6.6c6.9-3.9,22.9-16.3,15-16.8c-3-0.2-14.6-6.1-15.3-9c-1.2-5.5,14.1-7.3,14.8-12.9
				c0.7-5.7-18.4-7.5-18.9-13.2c-0.5-5.9,18.6-8.6,18.9-14.6c0.1-3-5.4-5.3-7.5-7.4c-2.2-2.1-15.6-2.1-11.3-7.8
				c1.8-2.4,10-5.3,12.1-3.1c40.7-6.2,89.9-7,129,6c15.7,5.2,31.2,12.1,43.5,23.2c20.7,18.7,30.1,47.5,50.9,66.2
				c17.2,15.5,40.6,22.5,58.4,37.3c20.4,16.9,31.6,42.1,48.1,62.8c16.4,20.7,43.5,37.9,68.3,28.8c-12.2-10.3-24.9-21.2-30.8-36
				c-4.3-11-4.5-23.2-3.9-35c1-18.5,3.7-36.9,8.2-54.9c3.7-14.8,1.1-27.6,1.5-42.8c0.4-15.3,2.9-33.6-9.4-42.6
				c3.4-1.4-2.9,1.7,0.5,0.3c2.9-17,25.8-36.5,38.8-47.7c13.1-11.3,27.6-21.5,36.8-36.1c9.3-14.5,12.4-32,18.7-48.1
				c9.9-25.4,21.5-54.1,44.5-68.9c-2.1-1,2.1,1.2-0.1,0.2l0.1-0.2c-14.2-12.3-33.7-16.4-52.4-18.1c-37.2-3.3-75.1,1.5-110.3,14.1
				c-12.5,4.5-24.7,9.9-37.7,12.9c-15.9,3.6-32.4,3.4-48.4,6.8c-20.1,4.2-39.3,14.1-59.8,13.6c-13.4-0.3-26.2-5.1-38.7-9.8
				c-27-10.1-54-20.3-81-30.4c7.9-0.6,15.3-5.7,18.5-12.9c-5.2-7.7-10.4-15.4-15.6-23.2c2.9-2,3.5-7.6,6.4-9.6
				c-2.8,1.7-1.7-1.9,1.5-1.1c-34-14.8-76.3-8.8-105.6,13.8l-0.9-2.1c-125.4-32-252.3-57.9-380.2-77.6c-7.9-1.2-16-2.5-22.8-6.6
				s-12.2-11.8-11-19.7c1.1-7.6,7.5-13.1,12.9-18.5c6.7-6.9,12.4-14.8,16.7-23.4c-12.4,0.3-24.9,0.6-37.3,0.9c1.1-3,2.3-6,3.4-8.9
				c-4.3,3.8-12.3-2.2-9.8-7.3c-5.1,0.9-10.4,0.6-15.3-0.8c0.6-2.5,1.1-5,1.7-7.5c-5.5,1.7-11.3,2.6-17.1,2.6
				c2.1-4.5,5.1-8.5,9-11.7c-5.2,1.5-10.8,1.2-15.8-0.9c-5.3,4.2,1.8-8.2,2.7-12.3c-58,17.5-113,45.2-161.6,81.4"/>
			<g>
				<path class="st4" d="M750.3,265.8c-58.4,9.6-116.5,21.3-174,35.2c-55.5,13.4-111.9,27.3-165.6,47c-26.4,9.7-50.8,23-75.7,35.9
					c-26.3,13.5-53.5,25.2-81,36.1c-46.8,18.4-97.7,32.2-136.2,66.2c-11.7,10.4-22,22.2-32.7,33.6c-8.4,9-18.3,15.7-27.6,23.5
					c-9.7,8-17.9,17.8-25.2,28.1c-4,5.6-7.7,11.4-10.6,17.7c-0.8,1.7-4.8,14.5-4,14.2c-0.9,0.3-1.4,1.4-0.9,2.2
					c11.2,17.3,40.5,14.7,58.5,16.5c21.2,2.1,54.7,4.1,67.8,23.9c0.3-0.7,0.6-1.5,0.9-2.2c-17.2,4.5-35.1,7.6-52.8,9.2
					c-7.9,0.7-15.9,1.2-23.9,0.8c-9-0.5-17.2-3.8-26-4.7c-15.5-1.7-26.5,7.8-26.9,23.4c-0.5,15.9,9.8,29.8,21.9,39.2
					c14.5,11.3,32.4,17.2,50.1,21.2c26,5.8,52.1,11,78.3,15.6c49.6,8.7,99.7,15,150,16.7c5.8,0.2,11.6,0.3,17.5,0.4
					c7.4,0.1,9.6,0.8,13.2,6.9c4.8,8.1,10.8,15.5,17.5,22c14.3,13.8,31.8,23.8,49.9,31.9c4.6,2.1,13.1,7.9,18.3,5.1
					c1-0.5,1.7-1.4,2.3-2.3c1.1-1.9,0.2-2,0.9-4.1c-0.5-2.2,0.5-3.7,3-4.4c1.4-2.3,3.3-3,5.7-2c6.4-2.2,9.3-6,13.6-11.6
					c6.4-8.2,15.5-24.4,26.6-27c10.5-2.5,23.9-0.6,34.7-0.8c13.5-0.3,27.1-0.4,40.6-0.8c25.3-0.7,49.7-4.1,74.5-8.6
					c46.7-8.5,94.1-10.1,140.9-17.7c24.3-4,48.4-10,70.9-20.1c7.2-3.2,11.3-6.5,19.1-3.1c5.1,2.3,10.3,4.4,15.6,6.3
					c12.6,4.6,25.5,8.4,38.6,11.1c26.9,5.7,55.1,3.4,81.6,10.4c24.7,6.5,44.3,24.5,68.9,31.7c0.5,0.1,1.1,0,1.5-0.4
					c13-16.5-11.5-29.5-23.2-36.2c-20.6-11.9-43.8-24-52.5-47.6c-0.5,0.6-1,1.3-1.4,1.9c62-5.3,123.9-12.1,185.6-20.2
					c13.8-1.8,27.7-3.7,41.5-5.7c14.9-2.1,28.8-4.3,43.7-0.4c28.1,7.4,49.6,27.4,71.3,45.5c22.1,18.4,46.2,36,74.8,42.4
					c0.9,0.2,1.9-0.4,1.9-1.4c0-3.8-0.7-6.7-2.6-10.1c-0.9-1.7-2.2-3.1-3.1-4.8c-2.7-5-0.8-6.2,3.1-9.7c0.5-0.4,0.6-1.3,0.2-1.8
					c-2.6-4.3-5.1-8.5-7.7-12.8c-0.4,0.8-0.9,1.5-1.3,2.3c4.4-0.2,12.2-4.8,11.2-10.1c-0.2-1.2-1.5-1.8-2.1-2.7
					c-1.4-2.2-1.2-2.5-1.4-4.6c-0.2-2.8,0-6.1-2.1-8.7c-1.8-2.3-6-3.3-8.6-4.2c-3.5-1.2-4.1-0.2-2.7-1.9c1.3-1.7,4.3-3,6-4.3
					c2.4-1.9,11.4-7.9,8.7-12.2c-1-1.6-3.6-1.4-5.1-2c-2.4-0.8-6.5-2.5-8.4-4.3c-3.6-3.3-2.1-4.9,1.7-7.3c3.5-2.2,11.8-4.6,9.2-10.4
					c-1.2-2.7-5-3.9-7.4-4.9c-1.8-0.8-3.8-1.2-5.4-2.2c-0.6-0.4-2.4-0.8-3-1.4c-2.8-3.2-0.7-4.5,1.6-6.3c3.7-3,14.7-4.1,14.7-10.6
					c0-7.6-10.8-8.1-15.1-10.9c-7.8-5.1,3.9-5.9,7.3-5.9c9,0,18.4-2.5,27.5-3.2c31.6-2.5,64.4-1.5,95,7.4
					c16.4,4.8,33.1,11.5,46.3,22.6c11.9,9.9,20.1,23.2,28.3,36.1c7,11,14.2,22.2,23.9,31.2c10.4,9.7,23.2,16.2,35.7,23
					c16.6,9.1,30.6,19.7,42,34.9c9.8,13.1,17.9,27.5,27.8,40.5c16.5,21.5,43.5,41,71.8,31.8c1-0.3,1.6-1.7,0.7-2.5
					c-16.9-14.2-32-28.9-34.1-52.1c-2-21.6,1.7-44.6,6.4-65.6c4.2-18.7,2.6-36.2,3.3-55.2c0.5-13.6,1.5-29-10.1-38.5
					c-0.2,0.8-0.4,1.7-0.7,2.5c0.3-0.1,0.6-0.2,1-0.4c-0.6-0.7-1.1-1.5-1.7-2.2c-0.2,0.3-1.1,0.6-1.5,1c-0.8,1,0.5,2.6,1.7,2.2
					c2.6-1,1-1,2.5-3.6c2.4-4.1,3.5-8.7,6.3-12.7c6.2-9.1,14.4-16.8,22.5-24.2c15.4-13.8,33.8-25.7,45.4-43.1
					c12.1-18.2,16.1-41.3,24.3-61.3c8.8-21.4,19.5-43.1,39.2-56.4c1.1-0.8,0.8-2.2-0.4-2.7c-0.2-0.1-0.4-0.2-0.6-0.3
					c-1.6-0.7-2.5,1.9-1.2,2.7c0.4,0.2,0.8,0.5,1.2,0.7c0.4-0.9,0.8-1.8,1.2-2.7c-0.2-0.1-0.4-0.2-0.6-0.3c0.3,0.7,0.6,1.5,0.9,2.2
					c0-0.1,0.1-0.1,0.1-0.2c0.3-0.5,0.3-1.4-0.2-1.8c-18.9-15.4-43.8-18.6-67.5-19.4c-29.3-1-58.8,2.9-86.7,11.7
					c-13.4,4.2-26.2,10-39.6,14.1c-15,4.5-30.5,5.1-45.8,7.2c-29.9,4.1-56.7,20.7-87.6,12.5c-16.6-4.4-32.7-11.5-48.8-17.5
					c-17.6-6.6-35.2-13.2-52.8-19.8c0,1,0,1.9,0,2.9c8.7-1.2,15.3-5.9,19.4-13.6c0.2-0.5,0.3-1.1,0-1.5c-3.9-5.8-8.2-11.4-11.7-17.4
					c-3.2-5.4-2.4-8.6,2.3-13.6c1-1.1,0-2.9-1.5-2.5c-0.5,0.1-0.9,0.3-1.4,0.4c0.6,0.5,1.3,1,1.9,1.4c0.5,0,1,0,1.5-0.1
					c1.8-0.1,1.9-2.3,0.4-2.9c-35.2-14.7-76.4-8.8-106.8,14c0.7,0.3,1.5,0.6,2.2,0.9c-1.2-2.9-1-2.2-3.7-3.6
					c-7.2-3.6-17.3-4.4-25.1-6.3c-16.1-4-32.3-7.9-48.5-11.7c-32.4-7.6-64.9-14.8-97.5-21.6c-64.5-13.5-129.4-25.3-194.6-35.6
					c-15-2.4-48.3-4-45.3-26.7c1.2-9.3,10.8-15.6,16.5-22.3c5-5.8,9.1-12.2,12.6-19c0.5-1-0.1-2.3-1.3-2.3
					c-12.4,0.3-24.9,0.6-37.3,0.9c0.5,0.6,1,1.3,1.4,1.9c1.1-3,2.3-6,3.4-8.9c0.5-1.3-1.2-2.3-2.2-1.7c-4.9,1.8-7.4-0.1-7.6-5.6
					c0.3-1.2-0.7-2-1.8-1.8c-3,0.4-10.4,1.7-12.2-0.8c-1.1-1.5,0-3.8,0.4-5.7c0.2-1.1-0.7-2.2-1.8-1.8c-5.5,1.5-11,2.4-16.7,2.6
					c0.4,0.8,0.9,1.5,1.3,2.3c2.3-4.4,5-8,8.7-11.4c1.2-1.1-0.1-2.8-1.5-2.5c-2.1,0.5-14.1,2.2-15.4-1c-0.2-0.5,0,0.5-0.1,0.3
					c-0.5-2.2,3.5-8.3,4.2-10.7c0.3-1.1-0.8-2.2-1.8-1.8c-58.3,17.8-113,45.3-162,81.6c-1.5,1.1,0,3.7,1.5,2.6
					c48.8-36.1,103.2-63.6,161.3-81.3c-0.6-0.6-1.2-1.2-1.8-1.8c-1,3.3-6.3,10.8-4.3,14.3c0.4,0.6,1,0.8,1.7,0.7
					c5.6-1.1,11.5,1.4,17.5,0.1c-0.5-0.8-1-1.7-1.5-2.5c-3.9,3.6-6.8,7.2-9.2,12c-0.5,1,0.1,2.3,1.3,2.3c6.1-0.2,11.7-1.1,17.5-2.7
					c-0.6-0.6-1.2-1.2-1.8-1.8c-0.6,2.5-1.1,5-1.7,7.5c-0.2,0.8,0.2,1.6,1,1.8c5.5,1.4,10.5,1.6,16.1,0.8c-0.6-0.6-1.2-1.2-1.8-1.8
					c-1.8,7,5.8,12.8,12,9c-0.7-0.6-1.5-1.1-2.2-1.7c-1.1,3-2.3,6-3.4,8.9c-0.3,0.9,0.5,1.9,1.4,1.9c12.4-0.3,24.9-0.6,37.3-0.9
					c-0.4-0.8-0.9-1.5-1.3-2.3c-3.9,7.5-8.5,14.5-14.2,20.8c-4.4,4.8-9.6,9-12.9,14.6c-4.7,8.2-2.8,17.2,3.6,23.8
					c9.2,9.5,23.7,10.4,36,12.3c17,2.7,34.1,5.4,51.1,8.3c69.9,11.8,139.4,25.5,208.6,41c19.2,4.3,38.4,8.8,57.6,13.4
					c9.6,2.3,19.2,4.6,28.7,7c4.5,1.1,25,3.6,26.7,7.8c0.3,0.8,1.3,1.5,2.2,0.9c29.8-22.4,69.9-28.1,104.4-13.7c0.1-1,0.3-2,0.4-2.9
					c-2,0.1-4.8,0.4-4.5,3.1c0.1,0.9,0.9,1.8,1.9,1.4c0.5-0.1,0.9-0.3,1.4-0.4c-0.5-0.8-1-1.7-1.5-2.5c-2.7,2.9-3.7,6.7-6.4,9.6
					c-0.4,0.5-0.6,1.3-0.2,1.8c4.1,6.1,9.4,12.3,12.7,18.8c4.4,8.9-7.2,14.1-14.7,15.1c-1.6,0.2-1.2,2.4,0,2.9
					c29.1,10.9,58,22.2,87.2,32.7c12.1,4.4,24.6,8.1,37.7,7.4c12.6-0.6,24.6-4.6,36.5-8.3c27.8-8.6,57.2-7.4,84.6-17.3
					c28.5-10.3,55.9-19.4,86.4-21.8c16-1.3,32.2-1.2,48.1,0.6c7.8,0.9,15.5,2.3,23,4.6c1.4,0.4,23.9,10.3,23.5,11
					c-0.5,0.9,0,1.8,0.9,2.2c0.2,0.1,0.4,0.2,0.6,0.3c1.6,0.7,2.5-1.9,1.2-2.7c-0.4-0.2-0.8-0.5-1.2-0.7c-0.4,0.9-0.8,1.8-1.2,2.7
					c0.2,0.1,0.4,0.2,0.6,0.3c-0.1-0.9-0.2-1.8-0.4-2.7c-16.2,10.9-26.6,27.3-34.8,44.8c-9.7,20.8-14.5,43.6-24.3,64.2
					c-9.9,21-29.6,34-46.5,48.8c-7.6,6.7-15.2,13.6-21.7,21.4c-2.9,3.5-5.7,7.2-8,11.2c-0.6,1-3.8,10.4-4.2,10.5
					c0.6,0.7,1.1,1.5,1.7,2.2c0.2-0.3,1.1-0.6,1.5-1c0.8-1-0.5-2.6-1.7-2.2c-0.3,0.1-0.6,0.2-1,0.4c-0.9,0.4-1.6,1.7-0.7,2.5
					c14.7,12.1,8.6,36.7,9.2,53.4c0.4,11,0.5,21.4-2,32.2c-2.2,9.7-4.2,19.5-5.5,29.4c-2.5,18.2-5.2,38.8,0.6,56.6
					c5.4,16.8,19.1,28.7,32.2,39.7c0.2-0.8,0.4-1.7,0.7-2.5c-29.4,9.6-56-13.1-72.1-35.5c-14.6-20.3-26.2-43.4-46.7-58.8
					c-22.1-16.5-48.5-24.3-66-46.9c-14.9-19.2-24.7-42.6-44.4-57.8c-41.9-32.4-104.8-33-154.8-27.2c-3.3,0.4-35.7,1-26.8,11.2
					c1.6,1.9,4.8,2.1,7,2.8c4.4,1.5,12.1,4.9,8.1,10.7c-3.1,4.6-13.9,3.4-15.6,10c-1.3,5.4,6.3,7.7,9.9,9.2c1.3,0.5,6.2,1.7,7,3.2
					c2.2,4.2-3.9,6.6-6.4,8c-2.2,1.2-5.6,2.6-6.3,5.3c-1.5,5.6,8.1,9.5,11.8,11c4,1.6,6.3,1.4,2.4,5.4c-3.9,4-8.7,7.3-13.5,10.1
					c-0.8,0.4-1.1,1.7-0.3,2.4c6.3,5,14.1,3.6,14.6,13.3c0.3,5.5,5.8,14.1-4.3,14.5c-1.1,0-1.9,1.2-1.3,2.3
					c3.5,5.8,6.9,8.7,3.7,14.7c-1.7,3.2-1.4,0.5-1.6,3.8c-0.4,6.7,7.5,11.9,7.5,19.2c0.6-0.5,1.3-1,1.9-1.4
					c-28.6-6.5-52.6-24.2-74.6-42.6c-19.5-16.3-38.5-33.5-62.7-42.5c-25-9.3-49.8-2.9-75.4,0.6c-32.9,4.5-65.8,8.6-98.8,12.3
					c-35.3,4-70.7,7.5-106.1,10.5c-0.9,0.1-1.8,0.9-1.4,1.9c8.4,22.7,29.2,35.2,49.2,46.7c5.1,2.9,10.2,5.8,15.1,8.9
					c3.4,2.1,7,4.4,9.8,7.3c2.2,2.3,5.8,7.2,5,10.4c-1.4,2.1-2.8,4.3-4.1,6.4c-1-0.3-1.9-0.6-2.9-1c-5.9,0.1-16.6-7.5-21.8-10.4
					c-6.7-3.8-13.4-7.7-20.3-11.2c-28.7-14.5-60.2-11.2-91.1-16.4c-15.9-2.7-31.7-6.8-46.9-12.2c-7.6-2.7-15.1-5.8-22.4-9.2
					c-4.7-2.1-4.2-1.5-9,0.9c-57.6,29.4-124.3,28-186.9,36.4c-33.8,4.5-66.9,12.6-101.1,13.7c-17.8,0.6-35.7,0.8-53.5,1.1
					c-11.7,0.2-26-2.8-35.6,5c-5.5,4.5-10,10-14.3,15.6c-3,3.9-5.9,7.9-9,11.6c-0.9,1-1.8,2.6-2.9,3.4c-2.5,1.1-5.1,2.2-7.6,3.4
					c-1-0.3-1.9-0.6-2.9-0.7c-3.3,0.4-4.8,0.5-6.2,3.8c-0.7,1.6,0.2,4.1-0.5,5.5c-3.3,6.6-10.6,2.5-15.7,0.3
					c-29.6-13.1-56.8-31.4-71.8-61c-0.2-0.5-0.8-0.7-1.3-0.7c-74.9,0-149.3-10.8-222.6-25.7c-30.8-6.3-68.3-10.6-90.5-35.5
					c-9.8-11-18.8-31.2-6.7-44.1c11-11.8,29.1-1.7,42.4-0.6c26.1,2,54.4-3.4,79.6-10c0.9-0.2,1.4-1.4,0.9-2.2
					c-11-16.7-35.1-20.6-53.3-23.3c-10.8-1.6-21.7-2.5-32.6-3.5c-13.6-1.2-32.1-0.8-40.4-13.6c-0.3,0.7-0.6,1.5-0.9,2.2
					c0,0,0.1,0,0.1,0c0.5-0.2,1-0.5,1-1c3.9-22.6,22.7-45.2,40-59.6c7.6-6.3,15.9-11.7,23-18.6c9.6-9.4,18.1-19.9,27.6-29.3
					c39.3-38.7,91.2-53.8,141.3-73.3c25.6-10,51-20.6,75.6-32.9c24.9-12.3,48.8-26.4,74.7-36.6c51.9-20.5,107.2-33.9,161.3-47.3
					c62.2-15.4,124.9-28.2,188.1-38.6C753,268.4,752.2,265.5,750.3,265.8L750.3,265.8z"/>
			</g>
		</g>
	</g>
</g>
</svg>
