<?xml version="1.0" encoding="utf-8"?>
<!-- Generator: Adobe Illustrator 21.1.0, SVG Export Plug-In . SVG Version: 6.00 Build 0)  -->
<svg version="1.1" id="Layer_1" xmlns="http://www.w3.org/2000/svg" xmlns:xlink="http://www.w3.org/1999/xlink" x="0px" y="0px"
	 viewBox="0 0 512 512" style="enable-background:new 0 0 512 512;" xml:space="preserve">
<style type="text/css">
	.st0{fill:#004F9D;}
</style>
<g id="XMLID_49_">
	<path id="XMLID_48_" class="st0" d="M76.2,227.7c-5,0-6.5,2.2-6.5,7.1v8.1h13.4l-1.3,13.2H69.7v39.9H53.6v-39.9H42.8v-13.2h10.8
		V235c0-13.3,5.4-20.3,20.3-20.3c3.2,0,7,0.2,9.4,0.6v12.4"/>
	<path id="XMLID_66_" class="st0" d="M84.2,267.8c0-14.8,7-26,21.8-26c8,0,12.9,4.1,15.3,9.3v-8.1h15.4v53.1h-15.4v-8
		c-2.2,5.1-7.3,9.1-15.3,9.1c-14.7,0-21.8-11.2-21.8-26 M100.3,271.4c0,7.9,2.9,13.2,10.4,13.2c6.6,0,9.9-4.8,9.9-12.4v-5.4
		c0-7.6-3.3-12.4-9.9-12.4c-7.5,0-10.4,5.2-10.4,13.2V271.4z"/>
	<path id="XMLID_45_" class="st0" d="M170.1,241.8c6.2,0,12.2,1.3,15.4,3.6l-3.6,11.4c-2.5-1.2-6.5-2.5-10.7-2.5
		c-8.7,0-12.5,5-12.5,13.6v3.1c0,8.6,3.8,13.6,12.5,13.6c4.2,0,8.3-1.2,10.7-2.5l3.6,11.4c-3.2,2.2-9.1,3.6-15.4,3.6
		c-18.9,0-27.4-10.2-27.4-26.4v-2.5C142.7,252,151.2,241.8,170.1,241.8"/>
	<path id="XMLID_62_" class="st0" d="M187.6,271.5v-4.7c0-15.1,8.6-25,26.1-25c16.5,0,23.8,10,23.8,24.8v8.5h-33.8
		c0.3,7.3,3.6,10.5,12.5,10.5c6,0,12.4-1.2,17.1-3.2l2.9,11c-4.2,2.2-12.9,3.9-20.6,3.9C195.2,297.3,187.6,287.1,187.6,271.5
		 M203.7,264.6h19.4v-1.3c0-5.8-2.3-10.4-9.4-10.4C206.5,252.9,203.7,257.5,203.7,264.6"/>
	<path id="XMLID_59_" class="st0" d="M297.1,271.2c0,14.8-7.1,26-21.9,26c-8,0-13.6-4-15.8-9.1v8h-15.2v-79.8l16.1-1.4v35.5
		c2.3-4.7,7.5-8.5,15-8.5c14.7,0,21.9,11.2,21.9,26 M281,267.5c0-7.5-2.9-13.1-10.6-13.1c-6.6,0-10.2,4.7-10.2,12.3v5.6
		c0,7.6,3.6,12.3,10.2,12.3c7.7,0,10.6-5.6,10.6-13.1V267.5z"/>
	<path id="XMLID_56_" class="st0" d="M302.4,270.8v-2.7c0-15.3,8.7-26.3,26.4-26.3c17.7,0,26.4,11,26.4,26.3v2.7
		c0,15.3-8.7,26.3-26.4,26.3C311.1,297.2,302.4,286.1,302.4,270.8 M339.2,267c0-7-2.9-12.6-10.4-12.6c-7.5,0-10.4,5.6-10.4,12.6v4.9
		c0,7,2.9,12.6,10.4,12.6c7.5,0,10.4-5.6,10.4-12.6V267z"/>
	<path id="XMLID_53_" class="st0" d="M360.7,270.8v-2.7c0-15.3,8.7-26.3,26.4-26.3c17.7,0,26.4,11,26.4,26.3v2.7
		c0,15.3-8.7,26.3-26.4,26.3C369.3,297.2,360.7,286.1,360.7,270.8 M397.5,267c0-7-2.9-12.6-10.4-12.6c-7.5,0-10.4,5.6-10.4,12.6v4.9
		c0,7,2.9,12.6,10.4,12.6c7.5,0,10.4-5.6,10.4-12.6V267z"/>
	<polyline id="XMLID_32_" class="st0" points="435.6,268.3 451.5,242.9 468.5,242.9 451.9,269.2 469.2,296.1 452.1,296.1 
		435.6,270.1 435.6,296.1 419.6,296.1 419.6,216.3 435.6,214.8 	"/>
</g>
</svg>
