<?xml version="1.0" encoding="utf-8"?>
<!-- Generator: Adobe Illustrator 21.1.0, SVG Export Plug-In . SVG Version: 6.00 Build 0)  -->
<svg version="1.1" id="Layer_1" xmlns="http://www.w3.org/2000/svg" xmlns:xlink="http://www.w3.org/1999/xlink" x="0px" y="0px"
	 viewBox="0 0 1920 1105" style="enable-background:new 0 0 1920 1105;" xml:space="preserve">
<style type="text/css">
	.st0{fill:#B3B3B3;}
	.st1{fill:#808080;}
	.st2{fill:#F3F3F3;}
	.st3{fill:none;stroke:#B8B9B9;stroke-width:20;stroke-miterlimit:10;}
	.st4{fill:#E6E6E5;}
	.st5{fill:#D1D1D1;}
	.st6{fill:#B8B8B8;}
	.st7{fill:#FFFFFF;}
	.st8{fill:none;stroke:#B8B9B9;stroke-width:20;stroke-linecap:round;stroke-miterlimit:10;}
</style>
<g>
	<path class="st0" d="M52.5,1104.5c-28.1,0-51-22.9-51-51v-977c0-28.1,22.9-51,51-51h1817c28.1,0,51,22.9,51,51v977
		c0,28.1-22.9,51-51,51H52.5z"/>
	<path class="st1" d="M1869.5,26c27.8,0,50.5,22.7,50.5,50.5v977c0,27.8-22.7,50.5-50.5,50.5H52.5c-27.8,0-50.5-22.7-50.5-50.5v-977
		C2,48.7,24.7,26,52.5,26H1869.5 M1869.5,25H52.5C24.1,25,1,48.1,1,76.5v977c0,28.4,23.1,51.5,51.5,51.5h1817
		c28.4,0,51.5-23.1,51.5-51.5v-977C1921,48.1,1897.9,25,1869.5,25L1869.5,25z"/>
</g>
<g>
	<path class="st2" d="M52.5,1097.5c-28.1,0-51-22.9-51-51v-977c0-28.1,22.9-51,51-51h1817c28.1,0,51,22.9,51,51v977
		c0,28.1-22.9,51-51,51H52.5z"/>
	<path class="st1" d="M1869.5,19c27.8,0,50.5,22.7,50.5,50.5v977c0,27.8-22.7,50.5-50.5,50.5H52.5c-27.8,0-50.5-22.7-50.5-50.5v-977
		C2,41.7,24.7,19,52.5,19H1869.5 M1869.5,18H52.5C24.1,18,1,41.1,1,69.5v977c0,28.4,23.1,51.5,51.5,51.5h1817
		c28.4,0,51.5-23.1,51.5-51.5v-977C1921,41.1,1897.9,18,1869.5,18L1869.5,18z"/>
</g>
<path class="st3" d="M1613.9,920H306.8c-1.4,0-2.6-1.2-2.6-2.6V195.6c0-1.4,1.2-2.6,2.6-2.6h1307.1c1.4,0,2.6,1.2,2.6,2.6v721.8
	C1616.5,918.8,1615.3,920,1613.9,920z"/>
<path class="st4" d="M432.5,691.7c66.9,50.5,108.6,121.8,107.3,149.4c23.5-1.7,50.7-29,62.4-58.9c24.2-53.6,18.7-103.8,8.4-107.3
	c-82.3,20.9-176.1-26.3-211.9-106.6c-17.8,0-32.3,3.8-32.3,8.4C363.9,598.7,385.9,654.5,432.5,691.7z"/>
<path class="st5" d="M360.6,552.1c29.7-17,177.2-37.6,244.2-4.5c23.4-97.2,112.8-177.2,209.1-178.3c-43.6-33.5-88.5-53.2-132.3-61.3
	l0,0c-8.1-9.1-49.6-27.8-87.4-55.8c-3.1,9.4-7.9,43.7-32.4,62.7l0,0C463.6,345.3,385.5,435,362.6,552.1"/>
<path class="st6" d="M839.7,394.4c-95.2-8.4-188.7,64.8-209.6,163.7c43.5,35.5,141.3,126.3,196.9,121.6c-22.5-20.7-42.3-53.2,34.6,0
	C926.7,674.8,960,562.6,839.7,394.4z"/>
<circle class="st7" cx="816.9" cy="541.9" r="26.3"/>
<line class="st8" x1="1072.6" y1="306.8" x2="1507.6" y2="306.8"/>
<line class="st8" x1="1072.6" y1="429.5" x2="1507.6" y2="429.5"/>
<line class="st8" x1="1072.6" y1="552.1" x2="1507.6" y2="552.1"/>
<line class="st8" x1="1072.6" y1="674.7" x2="1507.6" y2="674.7"/>
<line class="st8" x1="1072.6" y1="797.3" x2="1290.1" y2="797.3"/>
</svg>
