<?xml version="1.0" encoding="utf-8"?>
<!-- Generator: Adobe Illustrator 21.1.0, SVG Export Plug-In . SVG Version: 6.00 Build 0)  -->
<svg version="1.1" id="Layer_1" xmlns="http://www.w3.org/2000/svg" xmlns:xlink="http://www.w3.org/1999/xlink" x="0px" y="0px"
	 viewBox="0 0 1920 1105" style="enable-background:new 0 0 1920 1105;" xml:space="preserve">
<style type="text/css">
	.st0{fill:#B3B3B3;}
	.st1{fill:#808080;}
	.st2{fill:#F3F3F3;stroke:#898989;stroke-miterlimit:10;}
	.st3{fill:none;stroke:#000000;stroke-miterlimit:10;}
	.st4{fill:#E6E6E6;}
	.st5{fill:#D1D1D1;}
	.st6{fill:none;stroke:#D1D1D1;stroke-miterlimit:10;}
	.st7{fill:#B8B8B8;}
	.st8{fill:none;stroke:#B8B8B8;stroke-miterlimit:10;}
</style>
<g>
	<path class="st0" d="M52.5,1104.5c-28.1,0-51-22.9-51-51v-977c0-28.1,22.9-51,51-51h1817c28.1,0,51,22.9,51,51v977
		c0,28.1-22.9,51-51,51H52.5z"/>
	<path class="st1" d="M1869.5,26c27.8,0,50.5,22.7,50.5,50.5v977c0,27.8-22.7,50.5-50.5,50.5H52.5c-27.8,0-50.5-22.7-50.5-50.5v-977
		C2,48.7,24.7,26,52.5,26H1869.5 M1869.5,25H52.5C24.1,25,1,48.1,1,76.5v977c0,28.4,23.1,51.5,51.5,51.5h1817
		c28.4,0,51.5-23.1,51.5-51.5v-977C1921,48.1,1897.9,25,1869.5,25L1869.5,25z"/>
</g>
<g>
	<path class="st2" d="M52.5,1097.5c-28.1,0-51-22.9-51-51v-977c0-28.1,22.9-51,51-51h1817c28.1,0,51,22.9,51,51v977
		c0,28.1-22.9,51-51,51H52.5z"/>
	<path class="st1" d="M1869.5,19c27.8,0,50.5,22.7,50.5,50.5v977c0,27.8-22.7,50.5-50.5,50.5H52.5c-27.8,0-50.5-22.7-50.5-50.5v-977
		C2,41.7,24.7,19,52.5,19H1869.5 M1869.5,18H52.5C24.1,18,1,41.1,1,69.5v977c0,28.4,23.1,51.5,51.5,51.5h1817
		c28.4,0,51.5-23.1,51.5-51.5v-977C1921,41.1,1897.9,18,1869.5,18L1869.5,18z"/>
</g>
<line class="st3" x1="498" y1="282.2" x2="496.9" y2="282.2"/>
<path class="st4" d="M1062.7,346.4l-2.1,188.3L1041.9,858c0,27.1-73.7,49-164.8,49c-126.3,0-228.4-26.1-228.4-58.4v-52.7l10.4,4.7
	c-17.1-6.9-23.2-16.2-21.9-24V472V306.2V472V310.4c0-9.2,3.3-16.7,7.3-16.7c11.5-125.2,43.8-135.6,43.8-180.4
	c-16.7,0-12.5-42.8,4.2-40.7l5.2-1c35.7-8.2,199.7-14,321.2,1c5.2,0,11.5,32.3-7.3,37.5c2.1,41.7,39.6,122,41.7,182.5
	c4.6,0,9.4,16.9,9.4,36.5c0,5.2,1.7,17.7,0,17.7"/>
<path class="st5" d="M837.5,128.9c-12.4,107.3-114.3,204.2-125.7-6.3C745.8,129.8,792.7,131.1,837.5,128.9z"/>
<path class="st6" d="M676.3,309.3c90.7,20.9,239.9,24,351.5,1"/>
<path class="st6" d="M676.3,344.8c77.2,22.9,274.3,27.1,351.5,0"/>
<path class="st6" d="M688.8,808.9c54.2,22.9,205.5,32.3,276.4,17.7"/>
<path class="st5" d="M709.7,617c-4.2,48.8-30.1,89.3-57.4,90.7c0-50.2,25.2-90.7,56.3-90.7"/>
<path class="st5" d="M650.2,617c32.2-11.3,60-48.2,60.5-97C679.7,521.1,652.7,564.5,650.2,617z"/>
<path class="st5" d="M654.4,520c26.1-10.6,56.9-57.6,54.2-99.1C684.1,420.3,655.1,469.9,654.4,520z"/>
<path class="st5" d="M652.3,435.5c2.3-21.3,16.4-41.3,31.3-44.8l-31.3-11.5v58.4"/>
<path class="st5" d="M875.5,403.2l-75.1-1c29.6,9.8,61,40.7,73,66.8L875.5,403.2z"/>
<g>
	<path class="st5" d="M761.8,426.2c4.7,63,57,116.3,112.6,125.2"/>
	<path class="st5" d="M874.5,551.3C857.4,500,809,442,761.8,426.2"/>
</g>
<path class="st5" d="M761.8,530.5c49.3,11,97,68,111.6,123.1C818.5,642.3,767.7,588.8,761.8,530.5z"/>
<path class="st5" d="M758.7,630.6c49.4,8.1,97,64.8,114.7,122C818.6,745.4,769,689.3,758.7,630.6z"/>
<path class="st5" d="M917.2,748.4c39.8-2.6,79.4-43.8,82.4-94.9C959.7,658.7,924.9,703.1,917.2,748.4z"/>
<path class="st5" d="M1021.5,516.9c-8.1,68.5-59.4,124.5-102.2,132.5c11.8-53.3,58-111,101.2-132.5"/>
<path class="st5" d="M921.4,547.1c45.9-3.7,87.4-60.1,92.8-126.2C975.1,435.8,937.1,496.7,921.4,547.1z"/>
<path class="st5" d="M925.6,399l-1,64.7c10.2-29.7,35.5-61.2,63.6-65.7L925.6,399z"/>
<path class="st5" d="M1062.2,446c0-20.8-7-37.5-15.6-37.5c0,30.6,4.1,61.5,15.6,61.5"/>
<g>
	<path class="st5" d="M822.3,774.5c-26.7-6-57.1-33.3-64.7-64.7l3.1,58.4"/>
</g>
<path class="st5" d="M711.8,755.7L671.1,738c16.5-6.9,35.7-21,39.6-37.5L711.8,755.7z"/>
<path class="st7" d="M1094.5,477.3c0,10.4-0.9,18.8-2.1,18.8c5.2,0,9.4,1.9,9.4,4.2c117.6,0,212.8-18.2,212.8-40.7
	c-21.3,0-38.6-5.1-38.6-11.5c-101.5,0-183.6,3.7-183.6,8.3"/>
<path class="st5" d="M965.2,698.9v222.2c0,9.2,2.1,13.6,11.5,16.7v43.8c0,32.9,91.9,59.5,205.5,59.5c105.5,0,190.9-30.3,190.9-67.8
	v-42.8c6.3-3.1,11.5-7.9,11.5-17.7V692.1c0-9.2-2.2-12.5-6.3-12.5c-5.5-71.7-39.1-135.9-39.6-176.8c44.6-70.9-59.5-70.9-224.2-64.7
	c-25-3.1-33.4,14.6-19.8,18.8c73.4-1.6,152.5-5.5,183.6,0c34.4,11.5-34.5,27.1-163.7,21.9c-61.5-3.1-80.3-16.7-93.9-16.7
	c-8.6,0-15.6,6.1-15.6,13.6c0,12.1,4.2,21.9,9.4,21.9c0,20.9-41.7,105.9-41.7,182c-4.6,0-7.3,9.4-7.3,19.8v-0.5H965.2z"/>
<path class="st7" d="M1039.3,508.6c29.8,96.2,122.2,198.8,133.5,12.5c-47.5,2.7-113.1-4.8-134.5-13.6"/>
<path class="st8" d="M989.2,735.9c0,1.2,141.8,54.2,359.8,2.1"/>
<path class="st8" d="M995.5,945.6c50.9,26.5,245.1,46.3,350.4-3.1"/>
<path class="st8" d="M995.5,699.4c35.7,17.1,203.4,40.8,353.6-1"/>
<path class="st7" d="M1042.4,919.5v-39.6c-5.9,9.5-21.7,21-32.3,28.2L1042.4,919.5z"/>
<path class="st7" d="M1092.5,886.8c15.8,21.1,39.1,40.5,56.8,42.6h-56.8v-43.8"/>
<path class="st7" d="M976.7,746.4v37.5c2-9.7,13.7-20.9,26.1-25L976.7,746.4z"/>
<path class="st7" d="M1147.7,774.5c26.7,8.7,53.8,29.6,60.5,46.9v0.5v-47.5"/>
<path class="st7" d="M1265.6,814.1c4.5-15.5,26-43.9,46.9-52.1l-46.9,9.4v43.3"/>
<path class="st7" d="M1343.8,902.8l-32.3,12.5c23.4-19,30.6-42.3,33.4-46.9L1343.8,902.8z"/>
<path class="st7" d="M976.7,828.8c34.6,0,62.6-25.7,62.6-57.4C1004.7,771.4,976.7,797,976.7,828.8z"/>
<path class="st7" d="M986.1,891.3c28.2,0,51.1-24.7,51.1-55.3v-1c-29.4,0-53.2,25.2-53.2,56.3"/>
<path class="st7" d="M1092.5,843.4c51.3,6.8,102.8,40.7,112.6,77.2C1145.9,918.8,1095.2,884.4,1092.5,843.4z"/>
<g>
	<path class="st7" d="M1093.5,780.8c5.8,42.3,56.5,79.4,116.8,81.4"/>
	<path class="st7" d="M1210.3,862.1c-22.2-40.8-73.8-77.3-116.8-81.4"/>
</g>
<g>
	<path class="st7" d="M1265.6,856.9c17.3-40,53.2-83.7,82.4-96"/>
	<path class="st7" d="M1348,761c-1.1,46.1-38.9,83.2-82.4,96"/>
</g>
<path class="st7" d="M1263.5,917.4c36.9-5.5,73.2-48.8,84.5-94.9C1315.6,836.5,1281.6,882.7,1263.5,917.4z"/>
</svg>
