<?xml version="1.0" encoding="utf-8"?>
<!-- Generator: Adobe Illustrator 21.1.0, SVG Export Plug-In . SVG Version: 6.00 Build 0)  -->
<svg version="1.1" id="Layer_1" xmlns="http://www.w3.org/2000/svg" xmlns:xlink="http://www.w3.org/1999/xlink" x="0px" y="0px"
	 viewBox="0 0 1920 1105" style="enable-background:new 0 0 1920 1105;" xml:space="preserve">
<style type="text/css">
	.st0{fill:#B3B3B3;}
	.st1{fill:#808080;}
	.st2{fill:#F3F3F3;stroke:#898989;stroke-miterlimit:10;}
	.st3{fill:none;}
	.st4{fill:#E6E6E5;}
	.st5{fill:#00A551;}
	.st6{fill:#D1D1D1;}
	.st7{fill:#B8B8B8;}
	.st8{fill:#FFFFFF;}
	.st9{fill:#F3F3F3;}
</style>
<g>
	<path class="st0" d="M52.5,1104.5c-28.1,0-51-22.9-51-51v-977c0-28.1,22.9-51,51-51h1817c28.1,0,51,22.9,51,51v977
		c0,28.1-22.9,51-51,51H52.5z"/>
	<path class="st1" d="M1869.5,26c27.8,0,50.5,22.7,50.5,50.5v977c0,27.8-22.7,50.5-50.5,50.5H52.5c-27.8,0-50.5-22.7-50.5-50.5v-977
		C2,48.7,24.7,26,52.5,26H1869.5 M1869.5,25H52.5C24.1,25,1,48.1,1,76.5v977c0,28.4,23.1,51.5,51.5,51.5h1817
		c28.4,0,51.5-23.1,51.5-51.5v-977C1921,48.1,1897.9,25,1869.5,25L1869.5,25z"/>
</g>
<g>
	<path class="st2" d="M52.5,1097.5c-28.1,0-51-22.9-51-51v-977c0-28.1,22.9-51,51-51h1817c28.1,0,51,22.9,51,51v977
		c0,28.1-22.9,51-51,51H52.5z"/>
	<path class="st1" d="M1869.5,19c27.8,0,50.5,22.7,50.5,50.5v977c0,27.8-22.7,50.5-50.5,50.5H52.5c-27.8,0-50.5-22.7-50.5-50.5v-977
		C2,41.7,24.7,19,52.5,19H1869.5 M1869.5,18H52.5C24.1,18,1,41.1,1,69.5v977c0,28.4,23.1,51.5,51.5,51.5h1817
		c28.4,0,51.5-23.1,51.5-51.5v-977C1921,41.1,1897.9,18,1869.5,18L1869.5,18z"/>
</g>
<line class="st3" x1="1831.3" y1="607.9" x2="1827.6" y2="587.3"/>
<line class="st3" x1="2074.3" y1="566.2" x2="2069.6" y2="540.4"/>
<path class="st4" d="M1080.8,700.4h627.7l70.6-9.2h24.6h-1.5l18.4,3c19.5,0,35.3,20.5,35.3,46c55.4,13.7-121,6.3-142.5,9.2
	l-670.2,45.5L1080.8,700.4z"/>
<polyline class="st4" points="159.1,700.6 1493.3,700.6 1106.9,779.1 293,779.1 138.1,773.3 "/>
<path class="st5" d="M138.1,773.3l21-72.7L138.1,773.3z"/>
<rect x="150.4" y="663.3" class="st6" width="1374.6" height="37.4"/>
<polyline class="st6" points="161.7,663.3 89.1,663.3 89.1,820.8 147.8,820.8 161.7,673.1 "/>
<rect x="89.1" y="467.3" class="st6" width="1435.9" height="214.7"/>
<path class="st6" d="M1779.1,691.2l-3-18.4l-79.9-31c-7.6-2.4-3.9-19.4,10-16.4l76.8,28.2c7.7,0,13,4,13,10l6.2,27.6"/>
<polygon class="st6" points="1663,752.9 1654.5,763 1646.3,754 1636.5,761.9 1629.7,755.1 1629.7,700.4 1636.5,693.4 1646.1,700.4 
	1654.5,692.4 1661.7,701.1 "/>
<polygon class="st6" points="1629.7,755.1 1621.4,764.5 1613.1,755.7 1603.3,764.5 1596.5,757.4 1596.5,700.4 1602.3,692.6 
	1612.9,700.4 1620.1,693.5 1629.7,700.4 "/>
<polygon class="st6" points="1696.2,750.6 1685.5,760.3 1678.6,751.8 1669.8,759.4 1663,752.9 1661.7,701.1 1669.9,693.5 
	1678.2,700.4 1685.9,692.4 1694.9,700 "/>
<ellipse class="st7" cx="615.6" cy="855.6" rx="122.2" ry="123.7"/>
<ellipse class="st7" cx="615.6" cy="855.6" rx="122.2" ry="123.7"/>
<ellipse class="st7" cx="615.6" cy="855.6" rx="122.2" ry="123.7"/>
<circle class="st8" cx="615.6" cy="855.6" r="77"/>
<rect x="897.4" y="722.8" transform="matrix(0.9 -0.4359 0.4359 0.9 -227.5811 465.0094)" class="st4" width="4.7" height="11.4"/>
<rect x="983.9" y="763.4" transform="matrix(0.3281 -0.9446 0.9446 0.3281 -58.4547 1449.3146)" class="st4" width="11.4" height="4.7"/>
<rect x="807.6" y="760" transform="matrix(0.3283 -0.9446 0.9446 0.3283 -179.2783 1279.3779)" class="st8" width="4.7" height="11.4"/>
<rect x="807.6" y="760" transform="matrix(0.3283 -0.9446 0.9446 0.3283 -179.2783 1279.3779)" class="st4" width="4.7" height="11.4"/>
<rect x="946" y="732.5" transform="matrix(0.9983 -5.820077e-02 5.820077e-02 0.9983 -41.3566 56.4452)" class="st4" width="4.7" height="11.4"/>
<rect x="848.8" y="732.5" transform="matrix(0.6643 -0.7475 0.7475 0.6643 -266.0691 884.0674)" class="st8" width="4.7" height="11.4"/>
<rect x="848.8" y="732.5" transform="matrix(0.6643 -0.7475 0.7475 0.6643 -266.0691 884.0674)" class="st4" width="4.7" height="11.4"/>
<rect x="924" y="725.7" transform="matrix(0.9713 -0.2378 0.2378 0.9713 -147.3321 241.2391)" class="st4" width="4.7" height="11.4"/>
<rect x="828.4" y="743.2" transform="matrix(0.5185 -0.8551 0.8551 0.5185 -240.4058 1070.9209)" class="st8" width="4.7" height="11.4"/>
<rect x="828.4" y="743.2" transform="matrix(0.5185 -0.8551 0.8551 0.5185 -240.4058 1070.9209)" class="st4" width="4.7" height="11.4"/>
<rect x="966.1" y="748.6" transform="matrix(0.1519 -0.9884 0.9884 0.1519 81.9165 1597.4237)" class="st4" width="11.4" height="4.7"/>
<rect x="874.4" y="724.9" transform="matrix(0.8064 -0.5914 0.5914 0.8064 -262.3448 660.0408)" class="st8" width="4.7" height="11.4"/>
<rect x="874.4" y="724.9" transform="matrix(0.8064 -0.5914 0.5914 0.8064 -262.3448 660.0408)" class="st4" width="4.7" height="11.4"/>
<circle class="st7" cx="616.7" cy="859.5" r="127.5"/>
<rect x="614.5" y="726.4" transform="matrix(0.9 -0.4359 0.4359 0.9 -257.4019 342.0909)" class="st4" width="4.7" height="11.4"/>
<polygon class="st4" points="621.5,736.2 620.5,734.1 618.3,735.1 615.4,729 615.4,729 619.4,737.2 621.5,736.2 620.5,734.1 
	621.5,736.2 623.6,735.1 617.6,722.8 609.1,726.9 616.2,741.4 624.6,737.3 623.6,735.1 "/>
<rect x="614.5" y="980.8" transform="matrix(0.9 -0.4359 0.4359 0.9 -368.29 367.5296)" class="st8" width="4.7" height="11.4"/>
<polygon class="st9" points="612.3,982.4 613.3,984.5 615.4,983.4 618.4,989.5 618.3,989.5 614.4,981.3 612.3,982.4 613.3,984.5 
	612.3,982.4 610.2,983.4 616.2,995.8 624.6,991.7 617.6,977.2 609.1,981.3 610.2,983.4 "/>
<rect x="614.5" y="980.8" transform="matrix(0.9 -0.4359 0.4359 0.9 -368.29 367.5296)" class="st8" width="4.7" height="11.4"/>
<rect x="738.4" y="856.9" transform="matrix(0.9 -0.4359 0.4359 0.9 -300.1266 410.2543)" class="st8" width="11.4" height="4.7"/>
<polygon class="st9" points="740,863.9 742.1,862.9 741.1,860.7 747.1,857.8 747.1,857.8 739,861.8 740,863.9 742.1,862.9 
	740,863.9 741,866 753.4,860 749.3,851.5 734.8,858.5 738.9,867 741,866 "/>
<rect x="484" y="856.9" transform="matrix(0.9 -0.4359 0.4359 0.9 -325.5653 299.3662)" class="st8" width="11.4" height="4.7"/>
<polygon class="st9" points="493.8,854.6 491.7,855.7 492.7,857.8 486.7,860.7 486.7,860.7 494.8,856.8 493.8,854.6 491.7,855.7 
	493.8,854.6 492.8,852.5 480.4,858.5 484.5,867 499,860 494.9,851.5 492.8,852.5 "/>
<rect x="484" y="856.9" transform="matrix(0.9 -0.4359 0.4359 0.9 -325.5653 299.3662)" class="st9" width="11.4" height="4.7"/>
<rect x="701.1" y="767" transform="matrix(0.3286 -0.9445 0.9445 0.3286 -252.0031 1184.1523)" class="st4" width="11.4" height="4.7"/>
<polygon class="st4" points="707.2,775.5 708,773.3 705.7,772.5 707.9,766.1 708,766.1 705,774.7 707.2,775.5 708,773.3 
	707.2,775.5 709.4,776.2 713.9,763.3 705,760.2 699.7,775.4 708.6,778.5 709.4,776.2 "/>
<rect x="521.2" y="946.8" transform="matrix(0.3286 -0.9445 0.9445 0.3286 -542.6908 1135.0367)" class="st8" width="11.4" height="4.7"/>
<polygon class="st9" points="526.6,943 525.8,945.3 528.1,946 525.9,952.4 525.8,952.4 528.8,943.8 526.6,943 525.8,945.3 
	526.6,943 524.4,942.3 519.9,955.3 528.8,958.4 534,943.1 525.1,940.1 524.4,942.3 "/>
<rect x="521.2" y="946.8" transform="matrix(0.3286 -0.9445 0.9445 0.3286 -542.6908 1135.0367)" class="st9" width="11.4" height="4.7"/>
<rect x="704.5" y="943.5" transform="matrix(0.3283 -0.9446 0.9446 0.3283 -421.8105 1305.2383)" class="st8" width="4.7" height="11.4"/>
<polygon class="st9" points="700.7,949.6 702.9,950.3 703.7,948.1 710,950.3 710,950.3 701.4,947.4 700.7,949.6 702.9,950.3 
	700.7,949.6 699.9,951.8 712.9,956.3 716,947.4 700.8,942.1 697.7,951 699.9,951.8 "/>
<rect x="524.6" y="763.6" transform="matrix(0.3286 -0.9445 0.9445 0.3286 -372.789 1014.2499)" class="st4" width="4.7" height="11.4"/>
<polygon class="st4" points="533.1,769 530.9,768.2 530.1,770.4 523.8,768.2 523.8,768.2 532.3,771.2 533.1,769 530.9,768.2 
	533.1,769 533.9,766.7 520.9,762.2 517.8,771.1 533,776.4 536.1,767.5 533.9,766.7 "/>
<rect x="524.6" y="763.6" transform="matrix(0.3286 -0.9445 0.9445 0.3286 -372.789 1014.2499)" class="st4" width="4.7" height="11.4"/>
<rect x="663.2" y="736" transform="matrix(0.9983 -5.891125e-02 5.891125e-02 0.9983 -42.5403 40.4962)" class="st4" width="4.7" height="11.4"/>
<polygon class="st4" points="668.2,747.3 668.1,744.9 665.7,745.1 665.3,738.4 665.4,738.4 665.9,747.4 668.2,747.3 668.1,744.9 
	668.2,747.3 670.6,747.1 669.8,733.4 660.4,734 661.3,750 670.7,749.5 670.6,747.1 "/>
<rect x="565.9" y="971.1" transform="matrix(0.9983 -5.810699e-02 5.810699e-02 0.9983 -55.7981 34.6693)" class="st8" width="4.7" height="11.4"/>
<polygon class="st9" points="565.5,971.2 565.7,973.6 568.1,973.4 568.5,980.1 568.4,980.1 567.9,971.1 565.5,971.2 565.7,973.6 
	565.5,971.2 563.2,971.4 564,985.1 573.4,984.6 572.5,968.5 563.1,969 563.2,971.4 "/>
<rect x="565.9" y="971.1" transform="matrix(0.9983 -5.810699e-02 5.810699e-02 0.9983 -55.7981 34.6693)" class="st9" width="4.7" height="11.4"/>
<rect x="728.7" y="905.5" transform="matrix(0.9983 -5.810699e-02 5.810699e-02 0.9983 -51.515 44.2091)" class="st8" width="11.4" height="4.7"/>
<polygon class="st9" points="728.9,910.6 731.2,910.5 731.1,908.1 737.8,907.7 737.8,907.7 728.7,908.3 728.9,910.6 731.2,910.5 
	728.9,910.6 729,912.9 742.7,912.1 742.2,902.7 726.1,903.7 726.7,913.1 729,912.9 "/>
<rect x="493.7" y="808.2" transform="matrix(0.9983 -5.815384e-02 5.815384e-02 0.9983 -46.2949 30.4117)" class="st8" width="11.4" height="4.7"/>
<polygon class="st9" points="504.9,807.9 502.6,808.1 502.7,810.4 496,810.8 496,810.8 505.1,810.3 504.9,807.9 502.6,808.1 
	504.9,807.9 504.8,805.6 491.1,806.4 491.6,815.8 507.7,814.8 507.1,805.4 504.8,805.6 "/>
<rect x="493.7" y="808.2" transform="matrix(0.9983 -5.815384e-02 5.815384e-02 0.9983 -46.2949 30.4117)" class="st9" width="11.4" height="4.7"/>
<rect x="728.7" y="808.2" transform="matrix(0.6643 -0.7475 0.7475 0.6643 -359.3245 821.0222)" class="st8" width="11.4" height="4.7"/>
<polygon class="st9" points="732.4,816.4 733.9,814.6 732.2,813.1 736.6,808 736.6,808.1 730.6,814.8 732.4,816.4 733.9,814.6 
	732.4,816.4 734.1,817.9 743.3,807.7 736.2,801.4 725.5,813.4 732.6,819.7 734.1,817.9 "/>
<rect x="493.7" y="905.6" transform="matrix(0.6648 -0.7471 0.7471 0.6648 -510.886 677.4498)" class="st8" width="11.4" height="4.7"/>
<polygon class="st9" points="501.4,902.1 499.9,903.9 501.6,905.5 497.2,910.5 497.1,910.5 503.2,903.7 501.4,902.1 499.9,903.9 
	501.4,902.1 499.7,900.6 490.5,910.8 497.6,917.1 508.3,905.1 501.2,898.8 499.7,900.6 "/>
<rect x="493.7" y="905.6" transform="matrix(0.6648 -0.7471 0.7471 0.6648 -510.886 677.4498)" class="st9" width="11.4" height="4.7"/>
<rect x="663.2" y="971.1" transform="matrix(0.6643 -0.7475 0.7475 0.6643 -506.6559 825.3898)" class="st8" width="4.7" height="11.4"/>
<polygon class="st9" points="659.8,974.7 661.5,976.3 663.1,974.5 668.1,979 668.1,979 661.3,973 659.8,974.7 661.5,976.3 
	659.8,974.7 658.2,976.5 668.5,985.6 674.7,978.6 662.7,967.9 656.5,974.9 658.2,976.5 "/>
<rect x="565.8" y="736" transform="matrix(0.6643 -0.7475 0.7475 0.6643 -363.6927 673.6911)" class="st4" width="4.7" height="11.4"/>
<polygon class="st4" points="574,743.8 572.3,742.2 570.7,744 565.7,739.5 565.7,739.5 572.5,745.5 574,743.8 572.3,742.2 
	574,743.8 575.6,742 565.3,732.9 559,739.9 571.1,750.6 577.3,743.6 575.6,742 "/>
<rect x="565.8" y="736" transform="matrix(0.6643 -0.7475 0.7475 0.6643 -363.6927 673.6911)" class="st4" width="4.7" height="11.4"/>
<rect x="641.2" y="729.2" transform="matrix(0.9714 -0.2374 0.2374 0.9714 -156.0642 173.7839)" class="st4" width="4.7" height="11.4"/>
<polygon class="st4" points="647.2,739.9 646.6,737.6 644.3,738.1 642.7,731.6 642.7,731.6 644.9,740.4 647.2,739.9 646.6,737.6 
	647.2,739.9 649.5,739.3 646.2,725.9 637,728.2 640.9,743.8 650,741.6 649.5,739.3 "/>
<rect x="587.9" y="977.9" transform="matrix(0.9712 -0.2382 0.2382 0.9712 -217.2834 168.8827)" class="st8" width="4.7" height="11.4"/>
<polygon class="st9" points="586.6,978.7 587.2,980.9 589.5,980.4 591.1,986.9 591,986.9 588.9,978.1 586.6,978.7 587.2,980.9 
	586.6,978.7 584.3,979.2 587.6,992.6 596.7,990.3 592.9,974.7 583.8,976.9 584.3,979.2 "/>
<rect x="587.9" y="977.9" transform="matrix(0.9712 -0.2382 0.2382 0.9712 -217.2834 168.8827)" class="st9" width="4.7" height="11.4"/>
<rect x="735.6" y="883.5" transform="matrix(0.9714 -0.2374 0.2374 0.9714 -189.1211 201.3065)" class="st8" width="11.4" height="4.7"/>
<polygon class="st9" points="736.3,889.5 738.6,889 738,886.7 744.5,885.1 744.5,885.1 735.7,887.3 736.3,889.5 738.6,889 
	736.3,889.5 736.8,891.8 750.2,888.6 748,879.4 732.3,883.2 734.6,892.4 736.8,891.8 "/>
<rect x="486.8" y="830.3" transform="matrix(0.9714 -0.2374 0.2374 0.9714 -183.587 140.7271)" class="st8" width="11.4" height="4.7"/>
<polygon class="st9" points="497.5,829 495.2,829.5 495.8,831.8 489.3,833.4 489.2,833.4 498.1,831.3 497.5,829 495.2,829.5 
	497.5,829 496.9,826.7 483.6,830 485.8,839.1 501.4,835.3 499.2,826.1 496.9,826.7 "/>
<rect x="486.8" y="830.3" transform="matrix(0.9714 -0.2374 0.2374 0.9714 -183.587 140.7271)" class="st9" width="11.4" height="4.7"/>
<rect x="718" y="787.8" transform="matrix(0.5184 -0.8551 0.8551 0.5184 -327.1605 999.3642)" class="st8" width="11.4" height="4.7"/>
<polygon class="st9" points="722.7,796.2 724,794.2 721.9,793 725.4,787.3 725.4,787.3 720.7,795 722.7,796.2 724,794.2 
	722.7,796.2 724.7,797.5 731.9,785.7 723.8,780.8 715.5,794.6 723.5,799.5 724.7,797.5 "/>
<rect x="504.4" y="926" transform="matrix(0.519 -0.8548 0.8548 0.519 -548.1908 882.5792)" class="st8" width="11.4" height="4.7"/>
<polygon class="st9" points="511,922.3 509.8,924.3 511.9,925.5 508.4,931.3 508.4,931.2 513.1,923.5 511,922.3 509.8,924.3 
	511,922.3 509,921.1 501.9,932.8 510,937.7 518.3,923.9 510.3,919.1 509,921.1 "/>
<rect x="504.4" y="926" transform="matrix(0.519 -0.8548 0.8548 0.519 -548.1908 882.5792)" class="st9" width="11.4" height="4.7"/>
<rect x="683.6" y="960.3" transform="matrix(0.519 -0.8548 0.8548 0.519 -495.7784 1051.0525)" class="st8" width="4.7" height="11.4"/>
<polygon class="st9" points="679.9,965.1 681.9,966.3 683.1,964.3 688.9,967.8 688.9,967.8 681.1,963.1 679.9,965.1 681.9,966.3 
	679.9,965.1 678.7,967.1 690.4,974.2 695.3,966.2 681.6,957.8 676.7,965.9 678.7,967.1 "/>
<rect x="545.4" y="746.8" transform="matrix(0.519 -0.8548 0.8548 0.519 -379.7171 830.1655)" class="st4" width="4.7" height="11.4"/>
<polygon class="st4" points="553.9,753.4 551.9,752.2 550.6,754.2 544.9,750.7 544.9,750.7 552.7,755.4 553.9,753.4 551.9,752.2 
	553.9,753.4 555.1,751.4 543.3,744.3 538.5,752.3 552.2,760.7 557.1,752.6 555.1,751.4 "/>
<rect x="545.4" y="746.8" transform="matrix(0.519 -0.8548 0.8548 0.519 -379.7171 830.1655)" class="st4" width="4.7" height="11.4"/>
<rect x="683.4" y="752.2" transform="matrix(0.1518 -0.9884 0.9884 0.1518 -161.3141 1321.062)" class="st4" width="11.4" height="4.7"/>
<polygon class="st4" points="690.5,760.5 690.9,758.2 688.5,757.8 689.6,751.2 689.6,751.2 688.2,760.2 690.5,760.5 690.9,758.2 
	690.5,760.5 692.9,760.9 694.9,747.3 685.6,745.9 683.2,761.8 692.5,763.2 692.9,760.9 "/>
<rect x="539" y="961.6" transform="matrix(0.1518 -0.9884 0.9884 0.1518 -490.8073 1356.0463)" class="st8" width="11.4" height="4.7"/>
<polygon class="st9" points="543.2,958 542.9,960.3 545.2,960.7 544.2,967.3 544.2,967.3 545.6,958.4 543.2,958 542.9,960.3 
	543.2,958 540.9,957.6 538.8,971.2 548.1,972.7 550.6,956.8 541.3,955.3 540.9,957.6 "/>
<rect x="539" y="961.6" transform="matrix(0.1518 -0.9884 0.9884 0.1518 -490.8073 1356.0463)" class="st9" width="11.4" height="4.7"/>
<rect x="719.3" y="925.7" transform="matrix(0.1518 -0.9884 0.9884 0.1518 -308.5668 1503.3009)" class="st8" width="4.7" height="11.4"/>
<polygon class="st9" points="715.6,932.9 718,933.3 718.3,930.9 725,931.9 724.9,932 716,930.6 715.6,932.9 718,933.3 715.6,932.9 
	715.3,935.2 728.9,937.3 730.3,928 714.4,925.6 713,934.9 715.3,935.2 "/>
<rect x="509.8" y="781.4" transform="matrix(0.1517 -0.9884 0.9884 0.1517 -343.5062 1173.9114)" class="st8" width="4.7" height="11.4"/>
<polygon class="st9" points="518.2,785.6 515.8,785.3 515.5,787.6 508.8,786.6 508.8,786.5 517.8,787.9 518.2,785.6 515.8,785.3 
	518.2,785.6 518.5,783.3 504.9,781.2 503.5,790.5 519.4,793 520.8,783.6 518.5,783.3 "/>
<rect x="509.8" y="781.4" transform="matrix(0.1517 -0.9884 0.9884 0.1517 -343.5062 1173.9114)" class="st9" width="4.7" height="11.4"/>
<rect x="736.3" y="833.9" transform="matrix(0.806 -0.592 0.592 0.806 -351.0483 601.4863)" class="st8" width="11.4" height="4.7"/>
<polygon class="st9" points="738.8,841.5 740.7,840.1 739.3,838.2 744.7,834.2 744.7,834.3 737.4,839.6 738.8,841.5 740.7,840.1 
	738.8,841.5 740.2,843.4 751.3,835.3 745.7,827.7 732.7,837.2 738.3,844.8 740.2,843.4 "/>
<rect x="486.1" y="879.9" transform="matrix(0.8063 -0.5916 0.5916 0.8063 -426.6496 461.872)" class="st8" width="11.4" height="4.7"/>
<polygon class="st9" points="495,877 493.1,878.4 494.5,880.3 489.1,884.3 489.1,884.3 496.4,878.9 495,877 493.1,878.4 495,877 
	493.6,875.1 482.5,883.2 488.1,890.8 501.1,881.3 495.5,873.7 493.6,875.1 "/>
<rect x="486.1" y="879.9" transform="matrix(0.8063 -0.5916 0.5916 0.8063 -426.6496 461.872)" class="st9" width="11.4" height="4.7"/>
<rect x="637.6" y="978.7" transform="matrix(0.8063 -0.5916 0.5916 0.8063 -458.3385 569.275)" class="st8" width="4.7" height="11.4"/>
<polygon class="st9" points="634.6,981.2 636,983 637.9,981.6 641.9,987.1 641.9,987.1 636.5,979.8 634.6,981.2 636,983 
	634.6,981.2 632.7,982.5 640.9,993.6 648.5,988.1 638.9,975.1 631.4,980.7 632.7,982.5 "/>
<rect x="591.5" y="728.5" transform="matrix(0.8063 -0.5916 0.5916 0.8063 -319.2471 493.5611)" class="st4" width="4.7" height="11.4"/>
<polygon class="st4" points="599.2,737.4 597.8,735.5 595.8,736.9 591.9,731.5 591.9,731.4 597.3,738.7 599.2,737.4 597.8,735.5 
	599.2,737.4 601,736 592.9,724.9 585.3,730.5 594.8,743.4 602.4,737.9 601,736 "/>
<rect x="591.5" y="728.5" transform="matrix(0.8063 -0.5916 0.5916 0.8063 -319.2471 493.5611)" class="st4" width="4.7" height="11.4"/>
<circle class="st2" cx="616.9" cy="859.3" r="77"/>
<ellipse class="st7" cx="901.4" cy="855.6" rx="122.2" ry="123.7"/>
<ellipse class="st7" cx="901.4" cy="855.6" rx="122.2" ry="123.7"/>
<ellipse class="st7" cx="901.4" cy="855.6" rx="122.2" ry="123.7"/>
<circle class="st8" cx="901.4" cy="855.6" r="77"/>
<rect x="1093.4" y="760.1" transform="matrix(0.3283 -0.9446 0.9446 0.3283 12.7031 1549.3602)" class="st8" width="4.7" height="11.4"/>
<rect x="1093.4" y="760.1" transform="matrix(0.3283 -0.9446 0.9446 0.3283 12.7031 1549.3602)" class="st4" width="4.7" height="11.4"/>
<circle class="st7" cx="902.5" cy="859.5" r="127.5"/>
<rect x="900.4" y="726.4" transform="matrix(0.8999 -0.4362 0.4362 0.8999 -228.9142 467.0757)" class="st4" width="4.7" height="11.4"/>
<polygon class="st4" points="907.3,736.2 906.3,734.1 904.2,735.1 901.2,729 901.3,729 905.2,737.2 907.3,736.2 906.3,734.1 
	907.3,736.2 909.4,735.1 903.5,722.8 895,726.9 902,741.4 910.5,737.2 909.4,735.1 "/>
<rect x="900.4" y="980.8" transform="matrix(0.9 -0.4359 0.4359 0.9 -339.7089 492.1159)" class="st8" width="4.7" height="11.4"/>
<polygon class="st9" points="898.1,982.4 899.1,984.5 901.3,983.4 904.2,989.5 904.2,989.5 900.2,981.3 898.1,982.4 899.1,984.5 
	898.1,982.4 896,983.4 902,995.8 910.5,991.7 903.5,977.2 895,981.3 896,983.4 "/>
<rect x="900.4" y="980.8" transform="matrix(0.9 -0.4359 0.4359 0.9 -339.7089 492.1159)" class="st9" width="4.7" height="11.4"/>
<rect x="1024.2" y="856.9" transform="matrix(0.9003 -0.4352 0.4352 0.9003 -271.3094 533.895)" class="st8" width="11.4" height="4.7"/>
<polygon class="st9" points="1025.8,863.9 1027.9,862.9 1026.9,860.7 1032.9,857.8 1033,857.8 1024.8,861.8 1025.8,863.9 
	1027.9,862.9 1025.8,863.9 1026.8,866 1039.2,860 1035.1,851.5 1020.6,858.5 1024.7,867 1026.8,866 "/>
<rect x="769.8" y="856.9" transform="matrix(0.9 -0.4359 0.4359 0.9 -296.9841 423.953)" class="st8" width="11.4" height="4.7"/>
<polygon class="st9" points="779.7,854.2 777.6,855.3 778.6,857.4 772.6,860.3 772.6,860.3 780.7,856.3 779.7,854.2 777.6,855.3 
	779.7,854.2 778.6,852.1 766.3,858.1 770.4,866.5 784.8,859.6 780.7,851.1 778.6,852.1 "/>
<rect x="769.9" y="856.5" transform="matrix(0.9 -0.4359 0.4359 0.9 -296.7932 423.9364)" class="st9" width="11.3" height="4.7"/>
<rect x="987" y="767" transform="matrix(0.3286 -0.9445 0.9445 0.3286 -60.0832 1454.1146)" class="st4" width="11.4" height="4.7"/>
<polygon class="st4" points="993,775.5 993.8,773.3 991.5,772.5 993.8,766.1 993.8,766.1 990.8,774.7 993,775.5 993.8,773.3 
	993,775.5 995.2,776.2 999.8,763.3 990.9,760.2 985.6,775.4 994.5,778.5 995.2,776.2 "/>
<rect x="807.1" y="946.8" transform="matrix(0.3286 -0.9445 0.9445 0.3286 -350.7728 1404.9963)" class="st8" width="11.4" height="4.7"/>
<polygon class="st9" points="812.4,943 811.6,945.3 813.9,946 811.7,952.4 811.7,952.4 814.6,943.8 812.4,943 811.6,945.3 
	812.4,943 810.2,942.3 805.7,955.3 814.6,958.3 819.9,943.1 811,940.1 810.2,942.3 "/>
<rect x="807.1" y="946.8" transform="matrix(0.3286 -0.9445 0.9445 0.3286 -350.7728 1404.9963)" class="st9" width="11.4" height="4.7"/>
<rect x="990.3" y="943.5" transform="matrix(0.3276 -0.9448 0.9448 0.3276 -229.3429 1576.1552)" class="st8" width="4.7" height="11.4"/>
<polygon class="st9" points="986.5,949.6 988.7,950.3 989.5,948.1 995.8,950.3 995.8,950.3 987.3,947.4 986.5,949.6 988.7,950.3 
	986.5,949.6 985.7,951.8 998.7,956.3 1001.8,947.4 986.6,942.1 983.5,951 985.7,951.8 "/>
<rect x="810.4" y="763.6" transform="matrix(0.3286 -0.9445 0.9445 0.3286 -180.8698 1284.2113)" class="st4" width="4.7" height="11.4"/>
<polygon class="st4" points="818.9,769 816.7,768.2 815.9,770.4 809.6,768.2 809.6,768.2 818.2,771.2 818.9,769 816.7,768.2 
	818.9,769 819.7,766.7 806.7,762.2 803.6,771.1 818.8,776.4 821.9,767.5 819.7,766.7 "/>
<rect x="810.4" y="763.6" transform="matrix(0.3286 -0.9445 0.9445 0.3286 -180.8698 1284.2113)" class="st4" width="4.7" height="11.4"/>
<rect x="949" y="736" transform="matrix(0.9983 -5.895875e-02 5.895875e-02 0.9983 -42.0765 57.382)" class="st4" width="4.7" height="11.4"/>
<polygon class="st4" points="954.1,747.3 953.9,744.9 951.5,745.1 951.2,738.4 951.2,738.4 951.7,747.4 954.1,747.3 953.9,744.9 
	954.1,747.3 956.4,747.2 955.6,733.4 946.2,734 947.1,750 956.5,749.5 956.4,747.2 "/>
<rect x="851.7" y="971.1" transform="matrix(0.9983 -5.810699e-02 5.810699e-02 0.9983 -55.3152 51.2779)" class="st8" width="4.7" height="11.4"/>
<polygon class="st9" points="851.4,971.2 851.5,973.6 853.9,973.4 854.3,980.1 854.2,980.1 853.7,971.1 851.4,971.2 851.5,973.6 
	851.4,971.2 849,971.4 849.8,985.1 859.2,984.6 858.3,968.5 848.9,969 849,971.4 "/>
<rect x="851.7" y="971.1" transform="matrix(0.9983 -5.810699e-02 5.810699e-02 0.9983 -55.3152 51.2779)" class="st9" width="4.7" height="11.4"/>
<rect x="1014.5" y="905.5" transform="matrix(0.9983 -5.891125e-02 5.891125e-02 0.9983 -51.7142 61.6811)" class="st8" width="11.4" height="4.7"/>
<polygon class="st9" points="1014.7,910.6 1017,910.5 1016.9,908.1 1023.6,907.7 1023.6,907.7 1014.6,908.3 1014.7,910.6 
	1017,910.5 1014.7,910.6 1014.8,912.9 1028.6,912.1 1028,902.7 1011.9,903.7 1012.5,913.1 1014.8,912.9 "/>
<rect x="779.5" y="808.2" transform="matrix(0.9983 -5.815384e-02 5.815384e-02 0.9983 -45.8112 47.0338)" class="st8" width="11.4" height="4.7"/>
<polygon class="st9" points="790.7,807.8 788.4,807.9 788.5,810.3 781.9,810.7 781.9,810.6 790.9,810.1 790.7,807.8 788.4,807.9 
	790.7,807.8 790.6,805.4 776.9,806.2 777.5,815.6 793.5,814.7 792.9,805.3 790.6,805.4 "/>
<rect x="779.5" y="808.1" transform="matrix(0.9983 -5.815384e-02 5.815384e-02 0.9983 -45.8019 47.0339)" class="st9" width="11.3" height="4.7"/>
<rect x="1014.5" y="808.2" transform="matrix(0.6643 -0.7475 0.7475 0.6643 -263.3756 1034.6661)" class="st8" width="11.4" height="4.7"/>
<polygon class="st9" points="1018.2,816.4 1019.8,814.6 1018,813.1 1022.4,808 1022.5,808.1 1016.5,814.8 1018.2,816.4 
	1019.8,814.6 1018.2,816.4 1020,817.9 1029.1,807.7 1022.1,801.4 1011.4,813.4 1018.4,819.7 1020,817.9 "/>
<rect x="779.5" y="905.6" transform="matrix(0.6652 -0.7467 0.7467 0.6652 -415.0567 890.335)" class="st8" width="11.4" height="4.7"/>
<polygon class="st9" points="787.2,902.1 785.7,903.9 787.5,905.5 783,910.5 783,910.5 789,903.7 787.2,902.1 785.7,903.9 
	787.2,902.1 785.5,900.6 776.3,910.8 783.4,917.1 794.1,905.1 787,898.8 785.5,900.6 "/>
<rect x="779.5" y="904.9" transform="matrix(0.6652 -0.7467 0.7467 0.6652 -414.5402 890.1093)" class="st9" width="11.3" height="4.7"/>
<rect x="949.1" y="971.1" transform="matrix(0.6643 -0.7475 0.7475 0.6643 -410.7067 1039.0344)" class="st8" width="4.7" height="11.4"/>
<polygon class="st9" points="945.6,974.7 947.3,976.3 948.9,974.5 954,979 953.9,979 947.2,973 945.6,974.7 947.3,976.3 
	945.6,974.7 944,976.5 954.3,985.6 960.6,978.6 948.5,967.9 942.3,974.9 944,976.5 "/>
<rect x="851.7" y="736" transform="matrix(0.6648 -0.7471 0.7471 0.6648 -267.8318 886.6578)" class="st4" width="4.7" height="11.4"/>
<polygon class="st4" points="859.9,743.8 858.1,742.2 856.5,744 851.5,739.5 851.5,739.5 858.3,745.5 859.9,743.8 858.1,742.2 
	859.9,743.8 861.4,742 851.1,732.9 844.9,739.9 856.9,750.6 863.2,743.6 861.4,742 "/>
<rect x="851.7" y="736" transform="matrix(0.6648 -0.7471 0.7471 0.6648 -267.8318 886.6578)" class="st4" width="4.7" height="11.4"/>
<rect x="927" y="729.2" transform="matrix(0.9715 -0.2372 0.2372 0.9715 -147.7983 241.4338)" class="st4" width="4.7" height="11.4"/>
<polygon class="st4" points="933,739.9 932.5,737.6 930.1,738.1 928.5,731.6 928.6,731.6 930.7,740.4 933,739.9 932.5,737.6 
	933,739.9 935.3,739.3 932,725.9 922.9,728.2 926.7,743.8 935.8,741.6 935.3,739.3 "/>
<rect x="873.7" y="977.9" transform="matrix(0.9712 -0.2382 0.2382 0.9712 -209.0586 236.9571)" class="st8" width="4.7" height="11.4"/>
<polygon class="st9" points="872.4,978.7 873,980.9 875.3,980.4 876.9,986.9 876.9,986.9 874.7,978.1 872.4,978.7 873,980.9 
	872.4,978.7 870.2,979.2 873.4,992.6 882.6,990.3 878.7,974.7 869.6,976.9 870.2,979.2 "/>
<rect x="873.7" y="977.9" transform="matrix(0.9712 -0.2382 0.2382 0.9712 -209.0586 236.9571)" class="st9" width="4.7" height="11.4"/>
<rect x="1021.4" y="883.5" transform="matrix(0.9714 -0.2374 0.2374 0.9714 -180.9496 269.1631)" class="st8" width="11.4" height="4.7"/>
<polygon class="st9" points="1022.1,889.5 1024.4,889 1023.8,886.7 1030.4,885.1 1030.4,885.1 1021.6,887.3 1022.1,889.5 
	1024.4,889 1022.1,889.5 1022.7,891.8 1036,888.6 1033.8,879.4 1018.2,883.2 1020.4,892.4 1022.7,891.8 "/>
<rect x="772.6" y="830.3" transform="matrix(0.9712 -0.2382 0.2382 0.9712 -175.9047 209.3314)" class="st8" width="11.4" height="4.7"/>
<polygon class="st9" points="783.3,828.7 781.1,829.3 781.6,831.6 775.1,833.2 775.1,833.1 783.9,831 783.3,828.7 781.1,829.3 
	783.3,828.7 782.8,826.4 769.5,829.7 771.7,838.8 787.3,835 785,825.9 782.8,826.4 "/>
<rect x="772.7" y="830" transform="matrix(0.9712 -0.2382 0.2382 0.9712 -175.8369 209.3339)" class="st9" width="11.3" height="4.7"/>
<rect x="1003.8" y="787.8" transform="matrix(0.5184 -0.8551 0.8551 0.5184 -189.5083 1243.785)" class="st8" width="11.4" height="4.7"/>
<polygon class="st9" points="1008.6,796.2 1009.8,794.2 1007.7,793 1011.2,787.3 1011.3,787.3 1006.6,795 1008.6,796.2 
	1009.8,794.2 1008.6,796.2 1010.6,797.5 1017.7,785.7 1009.7,780.8 1001.3,794.6 1009.4,799.5 1010.6,797.5 "/>
<rect x="790.2" y="926" transform="matrix(0.519 -0.8548 0.8548 0.519 -410.7073 1126.8977)" class="st8" width="11.4" height="4.7"/>
<polygon class="st9" points="796.9,922.3 795.7,924.3 797.7,925.5 794.2,931.3 794.2,931.2 798.9,923.5 796.9,922.3 795.7,924.3 
	796.9,922.3 794.9,921.1 787.7,932.8 795.8,937.7 804.1,923.9 796.1,919.1 794.9,921.1 "/>
<rect x="790.2" y="926" transform="matrix(0.519 -0.8548 0.8548 0.519 -410.7073 1126.8977)" class="st9" width="11.4" height="4.7"/>
<rect x="969.5" y="960.3" transform="matrix(0.5184 -0.8551 0.8551 0.5184 -358.0668 1296.2899)" class="st8" width="4.7" height="11.4"/>
<polygon class="st9" points="965.7,965.1 967.7,966.3 969,964.3 974.7,967.8 974.7,967.8 967,963.1 965.7,965.1 967.7,966.3 
	965.7,965.1 964.5,967.1 976.3,974.2 981.2,966.2 967.4,957.8 962.5,965.9 964.5,967.1 "/>
<rect x="831.2" y="746.8" transform="matrix(0.519 -0.8548 0.8548 0.519 -242.2331 1074.4847)" class="st4" width="4.7" height="11.4"/>
<polygon class="st4" points="839.7,753.4 837.7,752.2 836.5,754.2 830.7,750.7 830.7,750.7 838.5,755.4 839.7,753.4 837.7,752.2 
	839.7,753.4 840.9,751.4 829.2,744.3 824.3,752.3 838,760.7 842.9,752.6 840.9,751.4 "/>
<rect x="831.2" y="746.8" transform="matrix(0.519 -0.8548 0.8548 0.519 -242.2331 1074.4847)" class="st4" width="4.7" height="11.4"/>
<rect x="969.2" y="752.2" transform="matrix(0.1517 -0.9884 0.9884 0.1517 81.2259 1603.6874)" class="st4" width="11.4" height="4.7"/>
<polygon class="st4" points="976.4,760.5 976.7,758.2 974.4,757.8 975.4,751.2 975.4,751.2 974.1,760.2 976.4,760.5 976.7,758.2 
	976.4,760.5 978.7,760.9 980.8,747.3 971.5,745.9 969,761.8 978.3,763.2 978.7,760.9 "/>
<rect x="824.8" y="961.6" transform="matrix(0.1518 -0.9884 0.9884 0.1518 -248.3714 1638.562)" class="st8" width="11.4" height="4.7"/>
<polygon class="st9" points="829.1,958 828.7,960.3 831.1,960.7 830,967.3 830,967.3 831.4,958.4 829.1,958 828.7,960.3 829.1,958 
	826.8,957.6 824.7,971.2 834,972.7 836.4,956.8 827.1,955.3 826.8,957.6 "/>
<rect x="824.8" y="961.6" transform="matrix(0.1518 -0.9884 0.9884 0.1518 -248.3714 1638.562)" class="st8" width="11.4" height="4.7"/>
<rect x="1005.1" y="925.7" transform="matrix(0.1518 -0.9884 0.9884 0.1518 -66.1317 1785.8158)" class="st8" width="4.7" height="11.4"/>
<polygon class="st9" points="1001.5,932.9 1003.8,933.3 1004.1,930.9 1010.8,931.9 1010.8,932 1001.8,930.6 1001.5,932.9 
	1003.8,933.3 1001.5,932.9 1001.1,935.2 1014.7,937.3 1016.1,928 1000.2,925.6 998.8,934.9 1001.1,935.2 "/>
<rect x="795.6" y="781.4" transform="matrix(0.1517 -0.9884 0.9884 0.1517 -101.0349 1456.4335)" class="st8" width="4.7" height="11.4"/>
<polygon class="st9" points="803.9,785.6 801.6,785.2 801.2,787.6 794.6,786.6 794.6,786.5 803.5,787.9 803.9,785.6 801.6,785.2 
	803.9,785.6 804.2,783.3 790.7,781.2 789.3,790.5 805.1,792.9 806.5,783.6 804.2,783.3 "/>
<rect x="795.6" y="781.4" transform="matrix(0.1517 -0.9884 0.9884 0.1517 -101.0565 1456.3444)" class="st9" width="4.7" height="11.3"/>
<rect x="1022.1" y="833.9" transform="matrix(0.8064 -0.5914 0.5914 0.8064 -295.5456 769.8228)" class="st8" width="11.4" height="4.7"/>
<polygon class="st9" points="1024.6,841.5 1026.5,840.1 1025.1,838.2 1030.5,834.2 1030.5,834.3 1023.2,839.6 1024.6,841.5 
	1026.5,840.1 1024.6,841.5 1026,843.4 1037.1,835.3 1031.5,827.7 1018.5,837.2 1024.1,844.8 1026,843.4 "/>
<rect x="771.9" y="879.9" transform="matrix(0.8063 -0.5916 0.5916 0.8063 -371.2704 630.9614)" class="st8" width="11.4" height="4.7"/>
<polygon class="st9" points="780.9,876.5 779,877.9 780.4,879.8 775,883.7 775,883.7 782.2,878.4 780.9,876.5 779,877.9 
	780.9,876.5 779.5,874.6 768.4,882.7 774,890.2 786.9,880.8 781.4,873.2 779.5,874.6 "/>
<rect x="772" y="879.4" transform="matrix(0.8063 -0.5916 0.5916 0.8063 -370.9362 630.8833)" class="st9" width="11.3" height="4.7"/>
<rect x="923.4" y="978.7" transform="matrix(0.806 -0.592 0.592 0.806 -403.0768 738.9987)" class="st8" width="4.7" height="11.4"/>
<polygon class="st9" points="920.5,981.2 921.9,983 923.8,981.6 927.7,987.1 927.7,987.1 922.4,979.8 920.5,981.2 921.9,983 
	920.5,981.2 918.6,982.5 926.7,993.6 934.3,988.1 924.8,975.1 917.2,980.7 918.6,982.5 "/>
<rect x="877.3" y="728.5" transform="matrix(0.8063 -0.5916 0.5916 0.8063 -263.8681 662.6499)" class="st4" width="4.7" height="11.4"/>
<polygon class="st4" points="885,737.4 883.6,735.5 881.7,736.9 877.7,731.5 877.7,731.4 883.1,738.7 885,737.4 883.6,735.5 
	885,737.4 886.9,736 878.7,724.9 871.1,730.5 880.7,743.4 888.3,737.9 886.9,736 "/>
<rect x="877.3" y="728.5" transform="matrix(0.8063 -0.5916 0.5916 0.8063 -263.8681 662.6499)" class="st4" width="4.7" height="11.4"/>
<ellipse class="st7" cx="902.3" cy="859.3" rx="119.6" ry="121.1"/>
<ellipse class="st7" cx="902.3" cy="859.3" rx="119.6" ry="121.1"/>
<ellipse class="st7" cx="902.3" cy="859.3" rx="119.6" ry="121.1"/>
<circle class="st2" cx="902.7" cy="855.4" r="77"/>
<circle class="st4" cx="902" cy="832.4" r="8.3"/>
<polygon class="st7" points="902,825.4 895.4,830.2 897.9,838 906,838 908.6,830.2 "/>
<circle class="st4" cx="928.8" cy="851" r="8.3"/>
<polygon class="st7" points="928.8,844 922.2,848.8 924.8,856.5 932.9,856.5 935.4,848.8 "/>
<circle class="st4" cx="874.3" cy="851" r="8.3"/>
<polygon class="st7" points="874.3,844 867.7,848.8 870.2,856.5 878.3,856.5 880.9,848.8 "/>
<circle class="st4" cx="919.8" cy="881.4" r="8.3"/>
<polygon class="st7" points="919.8,874.4 913.2,879.2 915.7,887 923.9,887 926.4,879.2 "/>
<circle class="st4" cx="885.7" cy="881.4" r="8.3"/>
<polygon class="st7" points="885.7,874.4 879.1,879.2 881.7,887 889.8,887 892.3,879.2 "/>
<circle class="st8" cx="902.7" cy="859.3" r="15.7"/>
<ellipse transform="matrix(0.9999 -1.097377e-02 1.097377e-02 0.9999 -9.3774 9.9532)" class="st4" cx="902.3" cy="859.5" rx="15.8" ry="15.8"/>
<polygon class="st7" points="902.1,846.2 889.7,855.4 894.6,870.2 910.2,870 914.8,855.2 "/>
<circle class="st4" cx="617.3" cy="832.4" r="8.3"/>
<polygon class="st7" points="617.3,825.4 610.7,830.2 613.2,838 621.4,838 623.9,830.2 "/>
<circle class="st4" cx="644.2" cy="851" r="8.3"/>
<polygon class="st7" points="644.2,844 637.6,848.8 640.1,856.5 648.3,856.5 650.8,848.8 "/>
<circle class="st4" cx="589.6" cy="851" r="8.3"/>
<polygon class="st7" points="589.6,844 583,848.8 585.5,856.5 593.7,856.5 596.2,848.8 "/>
<circle class="st4" cx="635.2" cy="881.4" r="8.3"/>
<polygon class="st7" points="635.2,874.4 628.6,879.2 631.1,887 639.2,887 641.8,879.2 "/>
<circle class="st4" cx="601.1" cy="881.4" r="8.3"/>
<polygon class="st7" points="601.1,874.4 594.5,879.2 597,887 605.2,887 607.7,879.2 "/>
<ellipse transform="matrix(0.9999 -1.097377e-02 1.097377e-02 0.9999 -9.3946 6.8295)" class="st4" cx="617.6" cy="859.5" rx="15.8" ry="15.8"/>
<polygon class="st7" points="617.5,846.2 605,855.4 610,870.2 625.5,870 630.1,855.2 "/>
<path class="st7" d="M581.5,663.3h351.2l-0.2,0c47.6-0.2,77.2,18.1,95.1,49l99.9,179.3c-4.9,6.3-41.6,3.9-48.6-11.9l-75.4-134
	c-15.4-28.5-43.7-45.9-87.6-45.1l0.2,0H592.9c-42.2,0-71.8,15.4-89.9,47.5l-71.6,131.5c-4.5,11-28.7,20-43.7,11.7l96.1-176.5
	C503,680.1,535.3,663.3,581.5,663.3"/>
</svg>
