<?xml version="1.0" encoding="utf-8"?>
<!-- Generator: Adobe Illustrator 21.1.0, SVG Export Plug-In . SVG Version: 6.00 Build 0)  -->
<svg version="1.1" id="Layer_1" xmlns="http://www.w3.org/2000/svg" xmlns:xlink="http://www.w3.org/1999/xlink" x="0px" y="0px"
	 viewBox="0 0 1920 1104" style="enable-background:new 0 0 1920 1104;" xml:space="preserve">
<style type="text/css">
	.st0{fill:#B3B3B3;stroke:#898989;stroke-miterlimit:10;}
	.st1{fill:#808080;stroke:#898989;stroke-miterlimit:10;}
	.st2{fill:#F3F3F3;stroke:#898989;stroke-miterlimit:10;}
	.st3{fill:#D1D1D1;}
	.st4{fill:none;}
	.st5{fill:#E6E6E5;}
	.st6{fill:#00A551;}
	.st7{fill:#B8B8B8;}
	.st8{fill:#FFFFFF;}
	.st9{fill:#F3F3F3;}
</style>
<g>
	<path class="st0" d="M51.5,1104c-28.1,0-51-22.9-51-51V76.5c0-28.1,22.9-51,51-51h1817c28.1,0,51,22.9,51,51V1053
		c0,28.1-22.9,51-51,51H51.5z"/>
	<path class="st1" d="M1868.5,26c27.8,0,50.5,22.7,50.5,50.5V1053c0,27.8-22.7,50.5-50.5,50.5H51.5c-27.8,0-50.5-22.7-50.5-50.5
		V76.5C1,48.7,23.7,26,51.5,26H1868.5 M1868.5,25H51.5C23.1,25,0,48.1,0,76.5V1053c0,28.4,23.1,51.5,51.5,51.5h1817
		c28.4,0,51.5-23.1,51.5-51.5V76.5C1920,48.1,1896.9,25,1868.5,25L1868.5,25z"/>
</g>
<g>
	<path class="st2" d="M52.5,1069.8c-28.1,0-51-22.7-51-50.5V51c0-27.8,22.9-50.5,51-50.5h1817c28.1,0,51,22.7,51,50.5v968.2
		c0,27.8-22.9,50.5-51,50.5H52.5V1069.8z"/>
	<path class="st1" d="M1869.5,1c27.8,0,50.5,22.5,50.5,50v968.2c0,27.5-22.7,50-50.5,50H52.5c-27.8,0-50.5-22.5-50.5-50V51
		C2,23.5,24.7,1,52.5,1H1869.5 M1869.5,0H52.5C24.1,0,1,22.9,1,51v968.2c0,28.1,23.1,51,51.5,51h1817c28.4,0,51.5-22.9,51.5-51V51
		C1921,22.9,1897.9,0,1869.5,0L1869.5,0z"/>
</g>
<rect x="240" y="493.9" class="st3" width="1290.4" height="192.9"/>
<line class="st4" x1="2024" y1="582.8" x2="2019.9" y2="559.6"/>
<path class="st5" d="M1131.2,703.4h564.1l63.4-8.3h22.1h-1.3l16.5,2.7c17.5,0,31.7,18.4,31.7,41.3c49.8,12.3-108.7,5.7-128.1,8.3
	l-602.4,40.9L1131.2,703.4z"/>
<polyline class="st5" points="302.8,703.6 1501.9,703.6 1154.6,774.2 423.2,774.2 283.9,768.9 "/>
<path class="st6" d="M283.9,768.9l18.9-65.3L283.9,768.9z"/>
<rect x="295.1" y="670.1" class="st3" width="1235.3" height="33.6"/>
<polyline class="st3" points="305.2,670.1 240,670.1 240,811.6 292.8,811.6 305.2,678.9 "/>
<path class="st3" d="M1758.8,695.2l-2.7-16.5l-71.8-27.9c-6.8-2.2-3.5-17.4,9-14.7l69,25.3c6.9,0,11.7,3.6,11.7,9l5.6,24.8"/>
<polygon class="st3" points="1654.4,750.6 1646.7,759.7 1639.4,751.6 1630.6,758.7 1624.5,752.6 1624.5,703.4 1630.6,697.1 
	1639.3,703.4 1646.7,696.2 1653.2,704.1 "/>
<polygon class="st3" points="1624.5,752.6 1617.1,761 1609.5,753.1 1600.8,761 1594.6,754.7 1594.6,703.4 1599.9,696.4 
	1609.3,703.4 1615.8,697.2 1624.5,703.4 "/>
<polygon class="st3" points="1684.2,748.5 1674.7,757.3 1668.5,749.6 1660.5,756.4 1654.4,750.6 1653.2,704.1 1660.7,697.2 
	1668,703.4 1674.9,696.2 1683.1,703.1 "/>
<ellipse class="st7" cx="713.1" cy="842.9" rx="109.8" ry="111.2"/>
<ellipse class="st7" cx="713.1" cy="842.9" rx="109.8" ry="111.2"/>
<ellipse class="st7" cx="713.1" cy="842.9" rx="109.8" ry="111.2"/>
<circle class="st8" cx="713.1" cy="842.9" r="69.2"/>
<rect x="966.3" y="723.5" transform="matrix(0.9 -0.4359 0.4359 0.9 -220.7632 494.9819)" class="st5" width="4.2" height="10.2"/>
<rect x="1044" y="760.1" transform="matrix(0.3281 -0.9446 0.9446 0.3281 -15.1282 1503.1675)" class="st5" width="10.2" height="4.2"/>
<rect x="885.6" y="757" transform="matrix(0.3283 -0.9446 0.9446 0.3283 -123.5977 1350.4385)" class="st8" width="4.2" height="10.2"/>
<rect x="885.6" y="757" transform="matrix(0.3283 -0.9446 0.9446 0.3283 -123.5977 1350.4385)" class="st5" width="4.2" height="10.2"/>
<rect x="1010" y="732.3" transform="matrix(0.9983 -5.820133e-02 5.820133e-02 0.9983 -41.2018 60.1553)" class="st5" width="4.2" height="10.2"/>
<rect x="922.7" y="732.3" transform="matrix(0.6643 -0.7475 0.7475 0.6643 -240.7175 938.8193)" class="st8" width="4.2" height="10.2"/>
<rect x="922.7" y="732.3" transform="matrix(0.6643 -0.7475 0.7475 0.6643 -240.7175 938.8193)" class="st5" width="4.2" height="10.2"/>
<rect x="990.2" y="726.1" transform="matrix(0.9713 -0.2378 0.2378 0.9713 -145.4185 256.9413)" class="st5" width="4.2" height="10.2"/>
<rect x="904.3" y="741.9" transform="matrix(0.5185 -0.8551 0.8551 0.5185 -202.3003 1134.7661)" class="st8" width="4.2" height="10.2"/>
<rect x="904.3" y="741.9" transform="matrix(0.5185 -0.8551 0.8551 0.5185 -202.3003 1134.7661)" class="st5" width="4.2" height="10.2"/>
<rect x="1028.1" y="746.7" transform="matrix(0.1519 -0.9884 0.9884 0.1519 136.1233 1656.2776)" class="st5" width="10.2" height="4.2"/>
<rect x="945.7" y="725.5" transform="matrix(0.8064 -0.5914 0.5914 0.8064 -248.5737 701.9922)" class="st8" width="4.2" height="10.2"/>
<rect x="945.7" y="725.5" transform="matrix(0.8064 -0.5914 0.5914 0.8064 -248.5737 701.9922)" class="st5" width="4.2" height="10.2"/>
<circle class="st7" cx="714.1" cy="846.4" r="114.6"/>
<rect x="712.2" y="726.8" transform="matrix(0.9 -0.4359 0.4359 0.9 -247.6024 384.5603)" class="st5" width="4.2" height="10.2"/>
<polygon class="st5" points="718.4,735.6 717.5,733.7 715.6,734.6 713,729.1 713,729.1 716.5,736.5 718.4,735.6 717.5,733.7 
	718.4,735.6 720.4,734.6 715,723.6 707.3,727.2 713.6,740.3 721.3,736.6 720.4,734.6 "/>
<rect x="712.2" y="955.4" transform="matrix(0.9 -0.4359 0.4359 0.9 -347.2521 407.417)" class="st8" width="4.2" height="10.2"/>
<polygon class="st9" points="710.1,956.9 711,958.7 713,957.8 715.6,963.2 715.6,963.2 712,955.9 710.1,956.9 711,958.7 
	710.1,956.9 708.2,957.8 713.6,968.9 721.3,965.2 715,952.2 707.3,955.9 708.2,957.8 "/>
<rect x="712.2" y="955.4" transform="matrix(0.9 -0.4359 0.4359 0.9 -347.2521 407.417)" class="st8" width="4.2" height="10.2"/>
<rect x="823.4" y="844.1" transform="matrix(0.9 -0.4359 0.4359 0.9 -286.0143 445.7772)" class="st8" width="10.2" height="4.2"/>
<polygon class="st9" points="824.9,850.4 826.8,849.5 825.9,847.5 831.3,844.9 831.3,844.9 824,848.5 824.9,850.4 826.8,849.5 
	824.9,850.4 825.9,852.2 836.9,846.9 833.2,839.2 820.2,845.5 823.9,853.1 825.9,852.2 "/>
<rect x="594.8" y="844.1" transform="matrix(0.9 -0.4359 0.4359 0.9 -308.871 346.1274)" class="st8" width="10.2" height="4.2"/>
<polygon class="st9" points="603.6,842 601.7,843 602.7,844.9 597.2,847.5 597.2,847.5 604.6,844 603.6,842 601.7,843 603.6,842 
	602.7,840.1 591.6,845.5 595.3,853.1 608.3,846.9 604.6,839.2 602.7,840.1 "/>
<rect x="594.8" y="844.1" transform="matrix(0.9 -0.4359 0.4359 0.9 -308.871 346.1274)" class="st9" width="10.2" height="4.2"/>
<rect x="790.1" y="763.2" transform="matrix(0.3286 -0.9445 0.9445 0.3286 -188.9185 1264.9456)" class="st5" width="10.2" height="4.2"/>
<polygon class="st5" points="795.4,770.9 796.1,768.9 794.1,768.2 796.1,762.5 796.1,762.5 793.4,770.2 795.4,770.9 796.1,768.9 
	795.4,770.9 797.4,771.5 801.5,760 793.5,757.2 788.7,770.8 796.7,773.6 797.4,771.5 "/>
<rect x="628.3" y="924.9" transform="matrix(0.3286 -0.9445 0.9445 0.3286 -450.2808 1220.6753)" class="st8" width="10.2" height="4.2"/>
<polygon class="st9" points="633.1,921.4 632.5,923.5 634.4,924.1 632.5,929.9 632.5,929.9 635.1,922.2 633.1,921.4 632.5,923.5 
	633.1,921.4 631.1,920.8 627.1,932.5 635.1,935.3 639.8,921.5 631.8,918.8 631.1,920.8 "/>
<rect x="628.3" y="924.9" transform="matrix(0.3286 -0.9445 0.9445 0.3286 -450.2808 1220.6753)" class="st9" width="10.2" height="4.2"/>
<rect x="793" y="921.9" transform="matrix(0.3283 -0.9446 0.9446 0.3283 -341.5599 1373.7314)" class="st8" width="4.2" height="10.2"/>
<polygon class="st9" points="789.6,927.4 791.5,928 792.2,926 798,928 797.9,928 790.3,925.4 789.6,927.4 791.5,928 789.6,927.4 
	788.8,929.4 800.5,933.4 803.3,925.4 789.6,920.6 786.9,928.6 788.8,929.4 "/>
<rect x="631.3" y="760.3" transform="matrix(0.3286 -0.9445 0.9445 0.3286 -297.6373 1112.1982)" class="st5" width="4.2" height="10.2"/>
<polygon class="st5" points="639,765.1 637,764.4 636.3,766.3 630.6,764.4 630.6,764.4 638.3,767.1 639,765.1 637,764.4 639,765.1 
	639.6,763 628,759 625.2,767 638.8,771.7 641.6,763.7 639.6,763 "/>
<rect x="631.3" y="760.3" transform="matrix(0.3286 -0.9445 0.9445 0.3286 -297.6373 1112.1982)" class="st5" width="4.2" height="10.2"/>
<rect x="755.9" y="735.4" transform="matrix(0.9983 -5.890692e-02 5.890692e-02 0.9983 -42.3058 45.9388)" class="st5" width="4.2" height="10.2"/>
<polygon class="st5" points="760.4,745.6 760.3,743.4 758.2,743.6 757.8,737.6 757.8,737.6 758.3,745.7 760.4,745.6 760.3,743.4 
	760.4,745.6 762.5,745.4 761.8,733.1 753.3,733.6 754.2,748 762.7,747.6 762.5,745.4 "/>
<rect x="668.4" y="946.7" transform="matrix(0.9983 -5.810819e-02 5.810819e-02 0.9983 -54.1739 40.5693)" class="st8" width="4.2" height="10.2"/>
<polygon class="st9" points="668.1,946.8 668.2,948.9 670.4,948.8 670.7,954.8 670.7,954.8 670.2,946.7 668.1,946.8 668.2,948.9 
	668.1,946.8 666,947 666.8,959.3 675.2,958.8 674.3,944.4 665.9,944.8 666,947 "/>
<rect x="668.4" y="946.7" transform="matrix(0.9983 -5.810819e-02 5.810819e-02 0.9983 -54.1739 40.5693)" class="st9" width="4.2" height="10.2"/>
<rect x="814.8" y="887.7" transform="matrix(0.9983 -5.810819e-02 5.810819e-02 0.9983 -50.3188 49.1457)" class="st8" width="10.2" height="4.2"/>
<polygon class="st9" points="814.9,892.3 817,892.2 816.9,890.1 822.9,889.7 822.9,889.7 814.8,890.3 814.9,892.3 817,892.2 
	814.9,892.3 815,894.4 827.4,893.7 826.8,885.2 812.5,886.1 812.9,894.6 815,894.4 "/>
<rect x="603.5" y="800.3" transform="matrix(0.9983 -5.815472e-02 5.815472e-02 0.9983 -45.6331 36.7507)" class="st8" width="10.2" height="4.2"/>
<polygon class="st9" points="613.7,800 611.5,800.2 611.7,802.3 605.6,802.6 605.6,802.6 613.8,802.2 613.7,800 611.5,800.2 
	613.7,800 613.5,798 601.2,798.7 601.6,807.1 616.1,806.2 615.7,797.8 613.5,798 "/>
<rect x="603.5" y="800.3" transform="matrix(0.9983 -5.815472e-02 5.815472e-02 0.9983 -45.6331 36.7507)" class="st9" width="10.2" height="4.2"/>
<rect x="814.7" y="800.4" transform="matrix(0.6643 -0.7475 0.7475 0.6643 -324.5809 882.2184)" class="st8" width="10.2" height="4.2"/>
<polygon class="st9" points="818,807.7 819.5,806.1 817.9,804.7 821.9,800.1 821.9,800.2 816.5,806.2 818,807.7 819.5,806.1 
	818,807.7 819.7,809 827.8,799.9 821.5,794.2 811.9,805 818.2,810.6 819.7,809 "/>
<rect x="603.7" y="887.9" transform="matrix(0.6648 -0.7471 0.7471 0.6648 -460.7926 753.153)" class="st8" width="10.2" height="4.2"/>
<polygon class="st9" points="610.5,884.7 609.1,886.3 610.7,887.7 606.7,892.2 606.7,892.2 612.1,886.1 610.5,884.7 609.1,886.3 
	610.5,884.7 608.9,883.3 600.7,892.5 607,898.2 616.6,887.4 610.4,881.7 608.9,883.3 "/>
<rect x="603.7" y="887.9" transform="matrix(0.6648 -0.7471 0.7471 0.6648 -460.7926 753.153)" class="st9" width="10.2" height="4.2"/>
<rect x="756" y="946.6" transform="matrix(0.6643 -0.7475 0.7475 0.6643 -456.8965 886.1626)" class="st8" width="4.2" height="10.2"/>
<polygon class="st9" points="752.8,949.9 754.4,951.4 755.8,949.8 760.3,953.8 760.3,953.8 754.2,948.4 752.8,949.9 754.4,951.4 
	752.8,949.9 751.4,951.6 760.6,959.7 766.3,953.4 755.4,943.8 749.8,950.1 751.4,951.6 "/>
<rect x="668.4" y="735.4" transform="matrix(0.6643 -0.7475 0.7475 0.6643 -328.4089 749.7988)" class="st5" width="4.2" height="10.2"/>
<polygon class="st5" points="675.8,742.4 674.2,741 672.7,742.6 668.2,738.6 668.2,738.6 674.3,744 675.8,742.4 674.2,741 
	675.8,742.4 677.1,740.8 667.9,732.6 662.3,738.9 673.1,748.5 678.7,742.2 677.1,740.8 "/>
<rect x="668.4" y="735.4" transform="matrix(0.6643 -0.7475 0.7475 0.6643 -328.4089 749.7988)" class="st5" width="4.2" height="10.2"/>
<rect x="736.1" y="729.3" transform="matrix(0.9714 -0.2374 0.2374 0.9714 -153.243 196.2419)" class="st5" width="4.2" height="10.2"/>
<polygon class="st5" points="741.5,738.9 741,736.9 738.9,737.3 737.5,731.5 737.5,731.5 739.4,739.4 741.5,738.9 741,736.9 
	741.5,738.9 743.5,738.4 740.6,726.3 732.4,728.4 735.8,742.4 744.1,740.5 743.5,738.4 "/>
<rect x="688.2" y="952.8" transform="matrix(0.9712 -0.2382 0.2382 0.9712 -208.3029 192.0009)" class="st8" width="4.2" height="10.2"/>
<polygon class="st9" points="687,953.5 687.6,955.5 689.6,955.1 691.1,960.9 691.1,960.9 689.1,953 687,953.5 687.6,955.5 
	687,953.5 685,954 687.9,966 696.2,964 692.8,949.9 684.5,951.9 685,954 "/>
<rect x="688.2" y="952.8" transform="matrix(0.9712 -0.2382 0.2382 0.9712 -208.3029 192.0009)" class="st9" width="4.2" height="10.2"/>
<rect x="820.9" y="868" transform="matrix(0.9714 -0.2374 0.2374 0.9714 -182.9494 220.9678)" class="st8" width="10.2" height="4.2"/>
<polygon class="st9" points="821.5,873.4 823.6,872.9 823.1,870.9 829,869.4 829,869.4 821.1,871.4 821.5,873.4 823.6,872.9 
	821.5,873.4 822.1,875.4 834.1,872.6 832.1,864.3 818,867.7 820,876 822.1,875.4 "/>
<rect x="597.3" y="820.2" transform="matrix(0.9714 -0.2374 0.2374 0.9714 -177.9951 166.5191)" class="st8" width="10.2" height="4.2"/>
<polygon class="st9" points="606.9,819 605,819.4 605.4,821.5 599.6,823 599.6,823 607.5,821.1 606.9,819 605,819.4 606.9,819 
	606.5,816.9 594.4,819.9 596.5,828.1 610.5,824.7 608.6,816.4 606.5,816.9 "/>
<rect x="597.3" y="820.2" transform="matrix(0.9714 -0.2374 0.2374 0.9714 -177.9951 166.5191)" class="st9" width="10.2" height="4.2"/>
<rect x="805.1" y="782" transform="matrix(0.5184 -0.8551 0.8551 0.5184 -280.3624 1070.4102)" class="st8" width="10.2" height="4.2"/>
<polygon class="st9" points="809.4,789.5 810.5,787.7 808.7,786.6 811.7,781.5 811.8,781.5 807.6,788.4 809.4,789.5 810.5,787.7 
	809.4,789.5 811.2,790.7 817.6,780.1 810.4,775.7 802.9,788.1 810.1,792.5 811.2,790.7 "/>
<rect x="613.2" y="906.2" transform="matrix(0.519 -0.8548 0.8548 0.519 -478.9852 965.408)" class="st8" width="10.2" height="4.2"/>
<polygon class="st9" points="619.2,902.8 618.1,904.6 619.9,905.7 616.7,910.9 616.7,910.8 621,903.9 619.2,902.8 618.1,904.6 
	619.2,902.8 617.4,901.8 611,912.3 618.2,916.7 625.6,904.3 618.4,900 617.4,901.8 "/>
<rect x="613.2" y="906.2" transform="matrix(0.519 -0.8548 0.8548 0.519 -478.9852 965.408)" class="st9" width="10.2" height="4.2"/>
<rect x="774.3" y="937" transform="matrix(0.519 -0.8548 0.8548 0.519 -431.8232 1116.8013)" class="st8" width="4.2" height="10.2"/>
<polygon class="st9" points="770.9,941.3 772.7,942.4 773.8,940.6 778.9,943.7 778.9,943.7 772,939.5 770.9,941.3 772.7,942.4 
	770.9,941.3 769.8,943.1 780.4,949.5 784.8,942.3 772.4,934.7 768,942 769.8,943.1 "/>
<rect x="650.1" y="745.1" transform="matrix(0.519 -0.8548 0.8548 0.519 -327.53 918.3666)" class="st5" width="4.2" height="10.2"/>
<polygon class="st5" points="657.6,751.1 655.8,750 654.7,751.8 649.5,748.6 649.6,748.6 656.5,752.9 657.6,751.1 655.8,750 
	657.6,751.1 658.7,749.3 648.2,742.9 643.8,750.1 656.2,757.6 660.5,750.3 658.7,749.3 "/>
<rect x="650.1" y="745.1" transform="matrix(0.519 -0.8548 0.8548 0.519 -327.53 918.3666)" class="st5" width="4.2" height="10.2"/>
<rect x="774.1" y="750" transform="matrix(0.1518 -0.9884 0.9884 0.1518 -82.5432 1408.0844)" class="st5" width="10.2" height="4.2"/>
<polygon class="st5" points="780.5,757.4 780.7,755.4 778.7,755 779.6,749.1 779.6,749.1 778.4,757.2 780.5,757.4 780.7,755.4 
	780.5,757.4 782.5,757.8 784.4,745.6 776.1,744.3 773.8,758.6 782.2,759.9 782.5,757.8 "/>
<rect x="644.2" y="938.3" transform="matrix(0.1518 -0.9884 0.9884 0.1518 -378.7781 1439.3815)" class="st8" width="10.2" height="4.2"/>
<polygon class="st9" points="648.1,934.9 647.7,937 649.9,937.4 649,943.3 648.9,943.3 650.2,935.3 648.1,934.9 647.7,937 
	648.1,934.9 646,934.6 644.1,946.8 652.5,948.1 654.7,933.9 646.3,932.5 646,934.6 "/>
<rect x="644.2" y="938.3" transform="matrix(0.1518 -0.9884 0.9884 0.1518 -378.7781 1439.3815)" class="st9" width="10.2" height="4.2"/>
<rect x="806.2" y="906" transform="matrix(0.1518 -0.9884 0.9884 0.1518 -214.9862 1571.6927)" class="st8" width="4.2" height="10.2"/>
<polygon class="st9" points="803,912.4 805.1,912.7 805.5,910.6 811.4,911.5 811.4,911.6 803.3,910.3 803,912.4 805.1,912.7 
	803,912.4 802.7,914.4 814.9,916.3 816.2,908 801.9,905.8 800.6,914.2 802.7,914.4 "/>
<rect x="618" y="776.3" transform="matrix(0.1517 -0.9884 0.9884 0.1517 -246.3418 1275.843)" class="st8" width="4.2" height="10.2"/>
<polygon class="st9" points="625.5,780 623.5,779.7 623.1,781.8 617.2,780.9 617.2,780.8 625.2,782.1 625.5,780 623.5,779.7 
	625.5,780 625.8,777.9 613.7,776 612.3,784.4 626.6,786.6 628,778.2 625.8,777.9 "/>
<rect x="618" y="776.3" transform="matrix(0.1517 -0.9884 0.9884 0.1517 -246.3418 1275.843)" class="st9" width="4.2" height="10.2"/>
<rect x="821.6" y="823.4" transform="matrix(0.806 -0.592 0.592 0.806 -328.2681 649.5977)" class="st8" width="10.2" height="4.2"/>
<polygon class="st9" points="823.8,830.2 825.5,829 824.2,827.3 829.1,823.7 829.2,823.8 822.5,828.5 823.8,830.2 825.5,829 
	823.8,830.2 825.1,831.9 835,824.7 830,817.8 818.4,826.4 823.3,833.2 825.1,831.9 "/>
<rect x="596.8" y="864.8" transform="matrix(0.8063 -0.5916 0.5916 0.8063 -396.2498 524.0086)" class="st8" width="10.2" height="4.2"/>
<polygon class="st9" points="604.7,862.1 603,863.4 604.3,865.1 599.4,868.7 599.4,868.7 605.9,863.8 604.7,862.1 603,863.4 
	604.7,862.1 603.4,860.4 593.5,867.7 598.5,874.5 610.2,866 605.1,859.2 603.4,860.4 "/>
<rect x="596.8" y="864.8" transform="matrix(0.8063 -0.5916 0.5916 0.8063 -396.2498 524.0086)" class="st9" width="10.2" height="4.2"/>
<rect x="733" y="953.6" transform="matrix(0.8063 -0.5916 0.5916 0.8063 -424.7362 620.6001)" class="st8" width="4.2" height="10.2"/>
<polygon class="st9" points="730.2,955.8 731.5,957.4 733.2,956.1 736.8,961.1 736.7,961.1 731.9,954.5 730.2,955.8 731.5,957.4 
	730.2,955.8 728.5,956.9 735.8,966.9 742.6,962 734.1,950.3 727.3,955.3 728.5,956.9 "/>
<rect x="691.5" y="728.7" transform="matrix(0.8063 -0.5916 0.5916 0.8063 -299.7171 552.502)" class="st5" width="4.2" height="10.2"/>
<polygon class="st5" points="698.3,736.7 697.1,735 695.4,736.2 691.8,731.4 691.8,731.3 696.6,737.8 698.3,736.7 697.1,735 
	698.3,736.7 700,735.4 692.7,725.4 685.9,730.4 694.5,742.1 701.3,737.1 700,735.4 "/>
<rect x="691.5" y="728.7" transform="matrix(0.8063 -0.5916 0.5916 0.8063 -299.7171 552.502)" class="st5" width="4.2" height="10.2"/>
<ellipse class="st7" cx="714.9" cy="846.4" rx="107.5" ry="108.8"/>
<circle class="st2" cx="714.2" cy="846.2" r="69.2"/>
<ellipse class="st7" cx="969.9" cy="842.9" rx="109.8" ry="111.2"/>
<ellipse class="st7" cx="969.9" cy="842.9" rx="109.8" ry="111.2"/>
<ellipse class="st7" cx="969.9" cy="842.9" rx="109.8" ry="111.2"/>
<circle class="st8" cx="969.9" cy="842.9" r="69.2"/>
<rect x="1142.6" y="757" transform="matrix(0.3283 -0.9446 0.9446 0.3283 49.1041 1593.1727)" class="st8" width="4.2" height="10.2"/>
<rect x="1142.6" y="757" transform="matrix(0.3283 -0.9446 0.9446 0.3283 49.1041 1593.1727)" class="st5" width="4.2" height="10.2"/>
<circle class="st7" cx="971" cy="846.4" r="114.6"/>
<rect x="969.1" y="726.8" transform="matrix(0.8999 -0.4362 0.4362 0.8999 -221.9853 496.928)" class="st5" width="4.2" height="10.2"/>
<polygon class="st5" points="975.3,735.6 974.4,733.7 972.4,734.6 969.8,729.1 969.8,729.1 973.4,736.5 975.3,735.6 974.4,733.7 
	975.3,735.6 977.2,734.6 971.8,723.6 964.2,727.2 970.5,740.3 978.1,736.5 977.2,734.6 "/>
<rect x="969.1" y="955.4" transform="matrix(0.9 -0.4359 0.4359 0.9 -321.552 519.3941)" class="st8" width="4.2" height="10.2"/>
<polygon class="st9" points="967,956.9 967.9,958.7 969.8,957.8 972.4,963.2 972.4,963.2 968.9,955.9 967,956.9 967.9,958.7 
	967,956.9 965.1,957.8 970.5,968.9 978.1,965.2 971.8,952.2 964.2,955.9 965.1,957.8 "/>
<rect x="969.1" y="955.4" transform="matrix(0.9 -0.4359 0.4359 0.9 -321.552 519.3941)" class="st9" width="4.2" height="10.2"/>
<rect x="1080.3" y="844.1" transform="matrix(0.9003 -0.4352 0.4352 0.9003 -260.0993 556.7135)" class="st8" width="10.2" height="4.2"/>
<polygon class="st9" points="1081.8,850.4 1083.7,849.5 1082.7,847.5 1088.2,844.9 1088.2,844.9 1080.8,848.5 1081.8,850.4 
	1083.7,849.5 1081.8,850.4 1082.7,852.2 1093.9,846.9 1090.2,839.2 1077.1,845.5 1080.8,853.1 1082.7,852.2 "/>
<rect x="851.7" y="844" transform="matrix(0.9 -0.4359 0.4359 0.9 -283.1471 458.0905)" class="st8" width="10.2" height="4.2"/>
<polygon class="st9" points="860.5,841.6 858.7,842.6 859.6,844.5 854.2,847.1 854.2,847.1 861.4,843.5 860.5,841.6 858.7,842.6 
	860.5,841.6 859.7,839.8 848.6,845.1 852.3,852.7 865.2,846.5 861.5,838.9 859.7,839.8 "/>
<rect x="851.8" y="843.7" transform="matrix(0.9 -0.4359 0.4359 0.9 -282.9821 458.0966)" class="st9" width="10.2" height="4.2"/>
<rect x="1047" y="763.3" transform="matrix(0.3286 -0.9445 0.9445 0.3286 -16.5539 1507.5724)" class="st5" width="10.2" height="4.2"/>
<polygon class="st5" points="1052.3,770.9 1053,768.9 1051,768.2 1053,762.5 1053,762.5 1050.4,770.2 1052.3,770.9 1053,768.9 
	1052.3,770.9 1054.3,771.5 1058.4,760 1050.4,757.2 1045.6,770.8 1053.6,773.6 1054.3,771.5 "/>
<rect x="885.2" y="924.9" transform="matrix(0.3286 -0.9445 0.9445 0.3286 -277.8012 1463.2687)" class="st8" width="10.2" height="4.2"/>
<polygon class="st9" points="890,921.4 889.3,923.5 891.3,924.1 889.3,929.9 889.3,929.9 892,922.2 890,921.4 889.3,923.5 
	890,921.4 888,920.8 883.9,932.5 891.9,935.2 896.7,921.5 888.7,918.8 888,920.8 "/>
<rect x="885.2" y="924.9" transform="matrix(0.3286 -0.9445 0.9445 0.3286 -277.8012 1463.2687)" class="st9" width="10.2" height="4.2"/>
<rect x="1049.8" y="922.1" transform="matrix(0.3276 -0.9448 0.9448 0.3276 -168.7006 1617.2838)" class="st8" width="4.2" height="10.2"/>
<polygon class="st9" points="1046.4,927.4 1048.5,928 1049.1,926 1054.8,928 1054.8,928 1047.1,925.4 1046.4,927.4 1048.5,928 
	1046.4,927.4 1045.8,929.4 1057.5,933.4 1060.2,925.4 1046.5,920.6 1043.8,928.6 1045.8,929.4 "/>
<rect x="888.2" y="760.3" transform="matrix(0.3286 -0.9445 0.9445 0.3286 -125.0978 1354.7561)" class="st5" width="4.2" height="10.2"/>
<polygon class="st5" points="895.9,765.1 893.9,764.4 893.2,766.3 887.4,764.4 887.4,764.4 895.1,767.1 895.9,765.1 893.9,764.4 
	895.9,765.1 896.6,763 884.9,759 882.1,767 895.8,771.7 898.6,763.7 896.6,763 "/>
<rect x="888.2" y="760.3" transform="matrix(0.3286 -0.9445 0.9445 0.3286 -125.0978 1354.7561)" class="st5" width="4.2" height="10.2"/>
<rect x="1012.8" y="735.4" transform="matrix(0.9983 -5.895410e-02 5.895410e-02 0.9983 -41.8921 61.1227)" class="st5" width="4.2" height="10.2"/>
<polygon class="st5" points="1017.3,745.6 1017.2,743.4 1015,743.6 1014.7,737.6 1014.7,737.6 1015.2,745.7 1017.3,745.6 
	1017.2,743.4 1017.3,745.6 1019.3,745.5 1018.6,733.1 1010.2,733.6 1011.1,748 1019.5,747.6 1019.3,745.5 "/>
<rect x="925.2" y="946.7" transform="matrix(0.9983 -5.810819e-02 5.810819e-02 0.9983 -53.7402 55.4914)" class="st8" width="4.2" height="10.2"/>
<polygon class="st9" points="925,946.8 925.2,948.9 927.2,948.8 927.6,954.8 927.6,954.8 927.1,946.7 925,946.8 925.2,948.9 
	925,946.8 922.9,947 923.6,959.3 932.1,958.8 931.2,944.4 922.7,944.8 922.9,947 "/>
<rect x="925.2" y="946.7" transform="matrix(0.9983 -5.810819e-02 5.810819e-02 0.9983 -53.7402 55.4914)" class="st9" width="4.2" height="10.2"/>
<rect x="1071.7" y="887.8" transform="matrix(0.9983 -5.890692e-02 5.890692e-02 0.9983 -50.5533 64.9787)" class="st8" width="10.2" height="4.2"/>
<polygon class="st9" points="1071.7,892.3 1073.9,892.2 1073.7,890.1 1079.7,889.7 1079.7,889.7 1071.7,890.3 1071.7,892.3 
	1073.9,892.2 1071.7,892.3 1071.9,894.4 1084.2,893.7 1083.7,885.2 1069.3,886.1 1069.8,894.6 1071.9,894.4 "/>
<polygon class="st9" points="867.4,884.7 865.9,886.3 867.6,887.7 863.5,892.2 863.5,892.2 868.9,886.1 867.4,884.7 865.9,886.3 
	867.4,884.7 865.8,883.3 857.6,892.5 863.9,898.2 873.5,887.4 867.2,881.7 865.8,883.3 "/>
<rect x="860.4" y="800.3" transform="matrix(0.9983 -5.815472e-02 5.815472e-02 0.9983 -45.1982 51.6905)" class="st8" width="10.2" height="4.2"/>
<polygon class="st9" points="870.5,799.9 868.4,800 868.5,802.2 862.5,802.6 862.5,802.5 870.6,802 870.5,799.9 868.4,800 
	870.5,799.9 870.3,797.8 858.1,798.5 858.6,807 873,806.1 872.5,797.7 870.3,797.8 "/>
<rect x="860.5" y="800.2" transform="matrix(0.9983 -5.815472e-02 5.815472e-02 0.9983 -45.192 51.6961)" class="st9" width="10.2" height="4.2"/>
<rect x="1071.7" y="800.2" transform="matrix(0.6643 -0.7475 0.7475 0.6643 -238.203 1074.2268)" class="st8" width="10.2" height="4.2"/>
<polygon class="st9" points="1074.9,807.7 1076.3,806.1 1074.7,804.7 1078.8,800.1 1078.8,800.2 1073.4,806.2 1074.9,807.7 
	1076.3,806.1 1074.9,807.7 1076.5,809 1084.7,799.9 1078.4,794.2 1068.8,805 1075.1,810.6 1076.5,809 "/>
<rect x="860.5" y="887.8" transform="matrix(0.6652 -0.7467 0.7467 0.6652 -374.6597 944.2755)" class="st8" width="10.2" height="4.2"/>
<rect x="860.5" y="887.2" transform="matrix(0.6652 -0.7467 0.7467 0.6652 -374.2021 944.0513)" class="st9" width="10.2" height="4.2"/>
<rect x="1012.9" y="946.7" transform="matrix(0.6643 -0.7475 0.7475 0.6643 -370.7314 1078.2183)" class="st8" width="4.2" height="10.2"/>
<polygon class="st9" points="1009.6,949.9 1011.3,951.4 1012.7,949.8 1017.2,953.8 1017.2,953.8 1011.1,948.4 1009.6,949.9 
	1011.3,951.4 1009.6,949.9 1008.3,951.6 1017.6,959.7 1023.1,953.4 1012.3,943.8 1006.7,950.1 1008.3,951.6 "/>
<rect x="925.3" y="735.4" transform="matrix(0.6648 -0.7471 0.7471 0.6648 -242.2834 941.0856)" class="st5" width="4.2" height="10.2"/>
<polygon class="st5" points="932.6,742.4 931,741 929.7,742.6 925.1,738.6 925.2,738.6 931.2,744 932.6,742.4 931,741 932.6,742.4 
	934,740.8 924.8,732.6 919.1,738.9 929.9,748.5 935.6,742.2 934,740.8 "/>
<rect x="925.3" y="735.4" transform="matrix(0.6648 -0.7471 0.7471 0.6648 -242.2834 941.0856)" class="st5" width="4.2" height="10.2"/>
<rect x="993" y="729.4" transform="matrix(0.9715 -0.2372 0.2372 0.9715 -145.8208 257.0006)" class="st5" width="4.2" height="10.2"/>
<polygon class="st5" points="998.3,738.9 997.9,736.9 995.8,737.3 994.4,731.5 994.4,731.5 996.3,739.4 998.3,738.9 997.9,736.9 
	998.3,738.9 1000.4,738.4 997.5,726.3 989.2,728.4 992.7,742.4 1000.9,740.5 1000.4,738.4 "/>
<rect x="945.1" y="952.8" transform="matrix(0.9712 -0.2382 0.2382 0.9712 -200.9097 253.1963)" class="st8" width="4.2" height="10.2"/>
<polygon class="st9" points="943.9,953.5 944.4,955.5 946.5,955.1 947.9,960.9 947.9,960.9 946,953 943.9,953.5 944.4,955.5 
	943.9,953.5 941.9,954 944.8,966 953,964 949.6,949.9 941.3,951.9 941.9,954 "/>
<rect x="945.1" y="952.8" transform="matrix(0.9712 -0.2382 0.2382 0.9712 -200.9097 253.1963)" class="st9" width="4.2" height="10.2"/>
<rect x="1077.7" y="868" transform="matrix(0.9714 -0.2374 0.2374 0.9714 -175.6107 281.9324)" class="st8" width="10.2" height="4.2"/>
<polygon class="st9" points="1078.5,873.4 1080.5,872.9 1080,870.9 1085.9,869.4 1085.9,869.4 1077.9,871.4 1078.5,873.4 
	1080.5,872.9 1078.5,873.4 1078.9,875.4 1091,872.6 1088.9,864.3 1074.9,867.7 1076.9,876 1078.9,875.4 "/>
<rect x="854.3" y="820.1" transform="matrix(0.9712 -0.2382 0.2382 0.9712 -171.1118 228.3733)" class="st8" width="10.2" height="4.2"/>
<polygon class="st9" points="863.9,818.7 861.8,819.3 862.3,821.3 856.5,822.8 856.5,822.7 864.3,820.8 863.9,818.7 861.8,819.3 
	863.9,818.7 863.3,816.7 851.4,819.6 853.4,827.8 867.4,824.4 865.4,816.2 863.3,816.7 "/>
<rect x="854.3" y="819.9" transform="matrix(0.9712 -0.2382 0.2382 0.9712 -171.0608 228.3696)" class="st9" width="10.2" height="4.2"/>
<rect x="1061.9" y="782.1" transform="matrix(0.5184 -0.8551 0.8551 0.5184 -156.7531 1290.0387)" class="st8" width="10.2" height="4.2"/>
<polygon class="st9" points="1066.3,789.5 1067.3,787.7 1065.5,786.6 1068.7,781.5 1068.7,781.5 1064.5,788.4 1066.3,789.5 
	1067.3,787.7 1066.3,789.5 1068.1,790.7 1074.4,780.1 1067.2,775.7 1059.7,788.1 1067,792.5 1068.1,790.7 "/>
<rect x="870.1" y="906.1" transform="matrix(0.519 -0.8548 0.8548 0.519 -355.3568 1184.9392)" class="st8" width="10.2" height="4.2"/>
<polygon class="st9" points="876,902.8 874.9,904.6 876.7,905.7 873.6,910.9 873.6,910.8 877.8,903.9 876,902.8 874.9,904.6 
	876,902.8 874.2,901.8 867.8,912.3 875,916.7 882.6,904.3 875.3,900 874.2,901.8 "/>
<rect x="870.1" y="906.1" transform="matrix(0.519 -0.8548 0.8548 0.519 -355.3568 1184.9392)" class="st9" width="10.2" height="4.2"/>
<rect x="1031.1" y="937.1" transform="matrix(0.5184 -0.8551 0.8551 0.5184 -308.136 1337.2246)" class="st8" width="4.2" height="10.2"/>
<polygon class="st9" points="1027.8,941.3 1029.6,942.4 1030.7,940.6 1035.9,943.7 1035.8,943.7 1028.9,939.5 1027.8,941.3 
	1029.6,942.4 1027.8,941.3 1026.7,943.1 1037.2,949.5 1041.6,942.3 1029.2,934.7 1024.9,942 1026.7,943.1 "/>
<rect x="907" y="745.1" transform="matrix(0.519 -0.8548 0.8548 0.519 -203.9454 1137.9191)" class="st5" width="4.2" height="10.2"/>
<polygon class="st5" points="914.5,751.1 912.7,750 911.6,751.8 906.5,748.6 906.5,748.6 913.4,752.9 914.5,751.1 912.7,750 
	914.5,751.1 915.6,749.3 905,742.9 900.6,750.1 913,757.6 917.4,750.3 915.6,749.3 "/>
<rect x="907" y="745.1" transform="matrix(0.519 -0.8548 0.8548 0.519 -203.9454 1137.9191)" class="st5" width="4.2" height="10.2"/>
<rect x="1030.9" y="750.1" transform="matrix(0.1517 -0.9884 0.9884 0.1517 135.3304 1662.0339)" class="st5" width="10.2" height="4.2"/>
<polygon class="st5" points="1037.3,757.4 1037.7,755.4 1035.5,755 1036.4,749.1 1036.5,749.1 1035.3,757.2 1037.3,757.4 
	1037.7,755.4 1037.3,757.4 1039.4,757.8 1041.3,745.6 1032.9,744.3 1030.8,758.6 1039.1,759.9 1039.4,757.8 "/>
<rect x="901.1" y="938.2" transform="matrix(0.1518 -0.9884 0.9884 0.1518 -160.7719 1693.2869)" class="st8" width="10.2" height="4.2"/>
<polygon class="st9" points="904.9,934.9 904.7,937 906.7,937.4 905.8,943.3 905.8,943.3 907,935.3 904.9,934.9 904.7,937 
	904.9,934.9 902.9,934.6 901,946.8 909.3,948.1 911.6,933.9 903.2,932.5 902.9,934.6 "/>
<rect x="901.1" y="938.2" transform="matrix(0.1518 -0.9884 0.9884 0.1518 -160.7719 1693.2869)" class="st8" width="10.2" height="4.2"/>
<rect x="1063.1" y="906" transform="matrix(0.1518 -0.9884 0.9884 0.1518 2.9452 1825.6619)" class="st8" width="4.2" height="10.2"/>
<polygon class="st9" points="1059.9,912.4 1061.9,912.7 1062.3,910.6 1068.2,911.5 1068.2,911.6 1060.2,910.3 1059.9,912.4 
	1061.9,912.7 1059.9,912.4 1059.5,914.4 1071.7,916.3 1073.1,908 1058.8,905.8 1057.5,914.2 1059.5,914.4 "/>
<rect x="874.9" y="776.3" transform="matrix(0.1517 -0.9884 0.9884 0.1517 -28.3945 1529.6531)" class="st8" width="4.2" height="10.2"/>
<polygon class="st9" points="882.3,780 880.2,779.6 880,781.8 874,780.9 874,780.8 882,782.1 882.3,780 880.2,779.6 882.3,780 
	882.7,777.9 870.5,776 869.2,784.4 883.5,786.6 884.7,778.2 882.7,777.9 "/>
<rect x="874.9" y="776.3" transform="matrix(0.1517 -0.9884 0.9884 0.1517 -28.4197 1529.7019)" class="st9" width="4.2" height="10.2"/>
<rect x="1078.5" y="823.4" transform="matrix(0.8064 -0.5914 0.5914 0.8064 -278.4077 800.6603)" class="st8" width="10.2" height="4.2"/>
<polygon class="st9" points="1080.7,830.2 1082.3,829 1081.1,827.3 1086,823.7 1086,823.8 1079.5,828.5 1080.7,830.2 1082.3,829 
	1080.7,830.2 1081.9,831.9 1091.9,824.7 1086.9,817.8 1075.2,826.4 1080.3,833.2 1081.9,831.9 "/>
<rect x="853.7" y="864.7" transform="matrix(0.8063 -0.5916 0.5916 0.8063 -346.3843 675.9954)" class="st8" width="10.2" height="4.2"/>
<polygon class="st9" points="861.6,861.7 859.9,862.9 861.2,864.7 856.3,868.2 856.3,868.2 862.9,863.4 861.6,861.7 859.9,862.9 
	861.6,861.7 860.4,860 850.5,867.3 855.4,874 867,865.6 862.1,858.7 860.4,860 "/>
<rect x="853.7" y="864.3" transform="matrix(0.8063 -0.5916 0.5916 0.8063 -346.1458 675.9193)" class="st9" width="10.2" height="4.2"/>
<rect x="989.8" y="953.5" transform="matrix(0.806 -0.592 0.592 0.806 -374.9977 773.2048)" class="st8" width="4.2" height="10.2"/>
<polygon class="st9" points="987.1,955.8 988.3,957.4 990.1,956.1 993.6,961.1 993.6,961.1 988.8,954.5 987.1,955.8 988.3,957.4 
	987.1,955.8 985.4,956.9 992.7,966.9 999.5,962 990.9,950.3 984.1,955.3 985.4,956.9 "/>
<rect x="948.5" y="728.7" transform="matrix(0.8063 -0.5916 0.5916 0.8063 -249.9384 704.5032)" class="st5" width="4.2" height="10.2"/>
<polygon class="st5" points="955.2,736.7 953.9,735 952.2,736.2 948.6,731.4 948.7,731.3 953.5,737.8 955.2,736.7 953.9,735 
	955.2,736.7 956.9,735.4 949.6,725.4 942.8,730.5 951.3,742.1 958.1,737.1 956.9,735.4 "/>
<rect x="948.5" y="728.7" transform="matrix(0.8063 -0.5916 0.5916 0.8063 -249.9384 704.5032)" class="st5" width="4.2" height="10.2"/>
<ellipse class="st7" cx="970.7" cy="846.2" rx="107.5" ry="108.8"/>
<ellipse class="st7" cx="970.7" cy="846.2" rx="107.5" ry="108.8"/>
<ellipse class="st7" cx="972" cy="846.4" rx="107.5" ry="108.8"/>
<circle class="st2" cx="971.2" cy="842.7" r="69.2"/>
<circle class="st5" cx="970.5" cy="822.1" r="7.5"/>
<polygon class="st7" points="970.5,815.8 964.5,820.1 966.8,827.1 974.1,827.1 976.4,820.1 "/>
<circle class="st5" cx="994.6" cy="838.8" r="7.5"/>
<polygon class="st7" points="994.6,832.5 988.7,836.8 990.9,843.7 998.3,843.7 1000.6,836.8 "/>
<circle class="st5" cx="945.6" cy="838.8" r="7.5"/>
<polygon class="st7" points="945.6,832.5 939.6,836.8 941.9,843.7 949.3,843.7 951.5,836.8 "/>
<circle class="st5" cx="986.5" cy="866.1" r="7.5"/>
<polygon class="st7" points="986.5,859.8 980.6,864.1 982.9,871.1 990.1,871.1 992.4,864.1 "/>
<circle class="st5" cx="955.9" cy="866.1" r="7.5"/>
<polygon class="st7" points="955.9,859.8 950,864.1 952.2,871.1 959.6,871.1 961.8,864.1 "/>
<circle class="st8" cx="971.2" cy="846.2" r="14.1"/>
<ellipse transform="matrix(0.9999 -1.097465e-02 1.097465e-02 0.9999 -9.2301 10.7036)" class="st5" cx="970.7" cy="846.4" rx="14.2" ry="14.2"/>
<polygon class="st7" points="970.6,834.5 959.4,842.7 963.9,856 977.8,855.8 982,842.5 "/>
<circle class="st5" cx="714.6" cy="822.1" r="7.5"/>
<polygon class="st7" points="714.6,815.8 708.7,820.1 711,827.1 718.3,827.1 720.5,820.1 "/>
<circle class="st5" cx="738.8" cy="838.8" r="7.5"/>
<polygon class="st7" points="738.8,832.5 732.8,836.8 735.1,843.7 742.5,843.7 744.7,836.8 "/>
<circle class="st5" cx="689.7" cy="838.8" r="7.5"/>
<polygon class="st7" points="689.8,832.5 683.9,836.8 686.1,843.7 693.4,843.7 695.6,836.8 "/>
<circle class="st5" cx="730.7" cy="866.1" r="7.5"/>
<polygon class="st7" points="730.7,859.8 724.8,864.1 727,871.1 734.4,871.1 736.6,864.1 "/>
<circle class="st5" cx="700" cy="866.1" r="7.5"/>
<polygon class="st7" points="700,859.8 694.1,864.1 696.4,871.1 703.7,871.1 706,864.1 "/>
<ellipse transform="matrix(0.9999 -1.097465e-02 1.097465e-02 0.9999 -9.2455 7.8964)" class="st5" cx="714.9" cy="846.4" rx="14.2" ry="14.2"/>
<polygon class="st7" points="714.8,834.5 703.6,842.7 708,856 722,855.8 726.2,842.5 "/>
<path class="st7" d="M682.4,670.1H998h-0.2c42.8-0.2,69.4,16.3,85.5,44l89.8,161.1c-4.4,5.7-37.4,3.5-43.7-10.7l-67.8-120.4
	c-13.8-25.6-39.3-41.3-78.7-40.5h0.2H692.7c-37.9,0-64.5,13.8-80.8,42.7l-64.3,118.2c-4,9.9-25.8,18-39.3,10.5l86.5-158.5
	C612,685.2,640.9,670.1,682.4,670.1"/>
</svg>
