<?xml version="1.0" encoding="utf-8"?>
<!-- Generator: Adobe Illustrator 21.1.0, SVG Export Plug-In . SVG Version: 6.00 Build 0)  -->
<svg version="1.1" id="Layer_1" xmlns="http://www.w3.org/2000/svg" xmlns:xlink="http://www.w3.org/1999/xlink" x="0px" y="0px"
	 viewBox="0 0 1920 1104" style="enable-background:new 0 0 1920 1104;" xml:space="preserve">
<style type="text/css">
	.st0{fill:#B3B3B3;stroke:#898989;stroke-miterlimit:10;}
	.st1{fill:#808080;stroke:#898989;stroke-miterlimit:10;}
	.st2{fill:#F3F3F3;stroke:#898989;stroke-miterlimit:10;}
	.st3{fill:#D1D1D1;}
</style>
<g>
	<path class="st0" d="M51.5,1104c-28.1,0-51-22.9-51-51V76.5c0-28.1,22.9-51,51-51h1817c28.1,0,51,22.9,51,51V1053
		c0,28.1-22.9,51-51,51H51.5z"/>
	<path class="st1" d="M1868.5,26c27.8,0,50.5,22.7,50.5,50.5V1053c0,27.8-22.7,50.5-50.5,50.5H51.5c-27.8,0-50.5-22.7-50.5-50.5
		V76.5C1,48.7,23.7,26,51.5,26H1868.5 M1868.5,25H51.5C23.1,25,0,48.1,0,76.5V1053c0,28.4,23.1,51.5,51.5,51.5h1817
		c28.4,0,51.5-23.1,51.5-51.5V76.5C1920,48.1,1896.9,25,1868.5,25L1868.5,25z"/>
</g>
<g>
	<path class="st2" d="M51.5,1069.8c-28.1,0-51-22.7-51-50.5V51c0-27.8,22.9-50.5,51-50.5h1817c28.1,0,51,22.7,51,50.5v968.2
		c0,27.8-22.9,50.5-51,50.5H51.5z"/>
	<path class="st1" d="M1868.5,1c27.8,0,50.5,22.5,50.5,50v968.2c0,27.5-22.7,50-50.5,50H51.5c-27.8,0-50.5-22.5-50.5-50V51
		C1,23.5,23.7,1,51.5,1H1868.5 M1868.5,0H51.5C23.1,0,0,22.9,0,51v968.2c0,28.1,23.1,51,51.5,51h1817c28.4,0,51.5-22.9,51.5-51V51
		C1920,22.9,1896.9,0,1868.5,0L1868.5,0z"/>
</g>
<g>
	<path class="st3" d="M816.9,300.2c-87.6,14.3-174.3,34.2-259.3,59.4c-21.7,6.5-43.5,13.3-64.1,22.6c-15.9,7.2-31,15.8-46.5,23.7
		c-31,15.8-63.3,28.6-95.9,40.8c-29.3,10.9-59.4,21.5-84.2,40.6c-14.1,10.8-26.2,24.1-38.1,37.3c-12.7,14.1-21.6,16.2-34.3,30.2
		c-9.8,10.9-23.9,29.3-25.9,43.9l-0.1,0c5.1,9.1,17.3,10.6,27.7,11.8c23.6,2.6,71.7,3.7,84.1,24c-18.1,4.9-60,12.1-78.1,7.6
		c-8.6-2.1-17.9-5.2-25.8-1.3c-11.5,5.6-12.1,22.4-6.2,33.7c10.9,20.5,34.7,30.8,57.4,35.8c77.9,17.2,154.3,29.5,228.1,29.3
		c14.3,29.4,42,45.7,72.3,58c1.8,0.8,4,1.4,5.7,0.4c3.7-2.4,0-10.1,4.1-12c2.2-1,4.7,0.8,7.1,0.7c2.3-0.1,4.1-2,5.6-3.7
		c8.8-9.8,15.4-22.2,26.3-29.5c2.8-1.8,3-0.6,4.5-1.2c18.6-0.4,37.1-0.7,55.7-1.1c11.9-0.2,23.8-0.5,35.6-1.6
		c19.2-1.9,38.1-6.2,57.1-9.2c61.2-9.7,126.7-6.5,181.2-36l0.3-0.1c24.6,12,54.1,20.1,81.3,22.5c16.6,1.5,33.6,1.1,49.4,6.3
		c19.8,6.5,36.3,21.2,56.5,26.7c3.6-3.5,3.4-9.6,0.9-13.9c-2.5-4.3-6.7-7.3-11-10c-21.8-13.6-49-24.7-57.3-49
		c70.2-6,143.4-14.6,213.2-24.7l0.1,0c29-4.9,56.6,13.2,78.9,32.4c22.3,19.2,48.2,40.9,77,46.9c0.6-8.7-6.3-11-6.8-18.3
		c1.7-1.5,3.3-2.9,5-4.4c-2.3-3.8-4.5-7.5-6.8-11.3c3.5,0.6,10.7-5.9,8.1-8.2c-6.6-5.7-1.4-4.9-2.5-8.2c-0.5-1.5-1.1-3.1-1.6-4.6
		c-1.6-1.9-10.5-4-12.1-5.9c6.1-3.5,20.3-14.4,13.3-14.9c-2.6-0.2-12.9-5.4-13.5-8c-1.1-4.8,12.5-6.5,13.1-11.4
		c0.6-5-16.3-6.7-16.8-11.7c-0.5-5.2,16.5-7.6,16.7-12.9c0.1-2.7-4.7-4.7-6.6-6.5c-1.9-1.8-13.8-1.9-10-6.9
		c1.6-2.1,8.9-4.7,10.7-2.8c36.1-5.5,79.6-6.2,114.2,5.3c13.9,4.6,27.6,10.7,38.5,20.5c18.3,16.6,26.7,42,45,58.6
		c15.2,13.7,35.9,19.9,51.7,33c18,14.9,28,37.2,42.5,55.5c14.6,18.3,38.5,33.5,60.5,25.5c-10.8-9.1-22-18.7-27.2-31.9
		c-3.8-9.7-4-20.5-3.4-31c0.9-16.4,3.3-32.7,7.2-48.6c3.2-13.1,0.9-24.4,1.3-37.9s2.6-29.7-8.4-37.7c3-1.2-2.6,1.5,0.4,0.3
		c2.6-15,22.8-32.3,34.4-42.2c11.6-10,24.4-19,32.6-31.9c8.2-12.9,11-28.3,16.6-42.6c8.8-22.5,19-47.9,39.3-61
		c-1.9-0.9,1.8,1.1-0.1,0.2l0.1-0.1c-12.6-10.8-29.8-14.5-46.4-16c-32.9-3-66.5,1.3-97.6,12.5c-11.1,4-21.9,8.8-33.3,11.4
		c-14.1,3.2-28.7,3-42.8,6c-17.8,3.7-34.8,12.5-52.9,12c-11.8-0.3-23.2-4.5-34.3-8.7c-23.9-9-47.8-17.9-71.7-26.9
		c7-0.5,13.5-5.1,16.4-11.5c-4.6-6.8-9.2-13.7-13.8-20.5c2.6-1.8,3.1-6.7,5.7-8.5c-2.5,1.5-1.5-1.7,1.4-1
		c-30.1-13.1-67.5-7.8-93.5,12.2l-0.8-1.8c-111-28.3-223.3-51.2-336.5-68.7c-7-1.1-14.2-2.2-20.2-5.8c-6-3.6-10.8-10.4-9.7-17.4
		c1-6.7,6.7-11.6,11.4-16.4c6-6.1,11-13.1,14.8-20.7c-11,0.3-22,0.6-33,0.8c1-2.6,2-5.3,3-7.9c-3.8,3.4-10.9-1.9-8.7-6.5
		c-4.5,0.8-9.2,0.6-13.6-0.7c0.5-2.2,1-4.4,1.5-6.7c-4.9,1.5-10,2.3-15.2,2.3c1.8-4,4.6-7.6,7.9-10.3c-4.6,1.3-9.6,1-14-0.8
		c-4.7,3.7,1.6-7.2,2.4-10.8c-51.4,15.5-100,40-143,72.1"/>
	<g>
		<path class="st3" d="M816.5,298.8c-51.7,8.5-103.1,18.9-154,31.1c-49.2,11.9-99,24.2-146.5,41.6c-23.4,8.6-45,20.4-67,31.8
			c-23.3,12-47.3,22.3-71.7,31.9c-41.5,16.3-86.5,28.5-120.6,58.7c-10.4,9.2-19.5,19.6-29,29.7c-7.4,7.9-16.2,13.9-24.4,20.8
			c-8.6,7.1-15.8,15.8-22.3,24.9c-3.5,5-6.8,10.1-9.4,15.6c-0.7,1.5-4.3,12.8-3.5,12.5c-0.9,0.3-1.4,1.4-0.9,2.2
			c9.9,15.4,35.9,13.1,51.9,14.7c18.7,1.9,48.3,3.6,59.9,21.1c0.3-0.7,0.6-1.5,0.9-2.2c-15.2,4-31,6.7-46.7,8.1
			c-7,0.7-14.1,1.1-21.2,0.7c-7.9-0.4-15.2-3.3-23-4.2c-13.8-1.5-23.6,7-24,20.9c-0.4,14.2,8.7,26.4,19.4,34.8
			c12.9,10,28.7,15.3,44.4,18.8c23,5.1,46.1,9.7,69.3,13.8c43.9,7.7,88.3,13.3,132.8,14.8c5.1,0.2,10.3,0.3,15.5,0.3
			c6.6,0.1,8.4,0.6,11.6,6c4.3,7.2,9.6,13.7,15.6,19.5c12.7,12.3,28.2,21.1,44.2,28.3c4.1,1.9,11.7,7,16.3,4.5
			c0.9-0.5,1.6-1.3,2.1-2.2c1-1.7,0.2-1.9,0.8-3.6c-0.4-1.9,0.4-3.2,2.5-3.9c1.2-2,2.9-2.6,4.9-1.7c5.8-1.4,8.5-5.6,12.2-10.4
			c5.7-7.2,13.6-21.5,23.4-23.8c9.2-2.2,21.1-0.6,30.7-0.8c12-0.2,24-0.4,35.9-0.7c22.4-0.6,44-3.7,66-7.7
			c41.3-7.5,83.3-8.9,124.7-15.7c21.5-3.5,42.9-8.9,62.8-17.8c6.3-2.8,9.9-5.8,16.7-2.7c4.5,2,9.2,3.9,13.8,5.6
			c11.1,4.1,22.5,7.4,34.1,9.9c23.8,5,48.8,3,72.2,9.2c21.9,5.8,39.2,21.7,60.9,28c0.5,0.1,1.1,0,1.5-0.4
			c11.6-14.7-10.1-26.3-20.5-32.3c-18.2-10.5-38.7-21.2-46.4-42c-0.5,0.6-1,1.3-1.4,1.9c54.9-4.7,109.7-10.7,164.3-17.9
			c12.3-1.6,24.5-3.3,36.7-5c13.2-1.9,25.4-3.8,38.5-0.4c24.8,6.5,43.8,24.2,63,40.2c19.6,16.3,40.9,31.9,66.2,37.6
			c0.9,0.2,1.9-0.4,1.9-1.4c0-3.4-0.7-6-2.3-9c-0.8-1.5-1.9-2.8-2.7-4.2c-2.3-4.3-0.7-5.3,2.7-8.4c0.5-0.4,0.6-1.3,0.2-1.8
			c-2.3-3.8-4.5-7.5-6.8-11.3c-0.4,0.8-0.9,1.5-1.3,2.3c3.5-0.1,7.5-2.5,9.2-5.7c2.3-4.4-1.4-4.1-2.4-7.9c-0.9-3.2,1.3-6-1.6-9.7
			c-2.8-3.6-9-3.4-12.4-6.2c-0.1,0.8-0.2,1.6-0.3,2.4c4.2-2.5,22.2-13.2,13-17.6c-3-1.4-6.9-1.9-9.5-4.3c-5.1-4.7,2.4-6.2,6-8.5
			c2.8-1.8,5.4-4.4,3.3-7.7c-2.4-4-18.1-5.8-14-11.3c3.2-4.2,12.5-3.3,14.4-9.1c1.5-4.5-4.6-8.3-7.9-9.9c-2.6-1.2-6.7-0.6-6.6-3.8
			c0.1-3.7,9.5-2.9,13-3.4c24.3-3.3,49.2-4.2,73.6-1.4c25.2,2.9,53.3,10.2,72.5,27.6c16.6,15,24.7,36.8,39.6,53.2
			c15.3,16.8,37.5,23.3,55.1,36.9c21.2,16.4,30.8,42.4,48.6,61.9c14.5,15.8,36,28.2,57.8,21.1c1-0.3,1.6-1.7,0.7-2.5
			c-14.9-12.6-28.3-25.5-30.1-46c-1.7-19.1,1.5-39.4,5.7-58c3.7-16.5,2.3-32.1,2.9-48.9c0.5-12.1,1.3-25.7-9-34.2
			c-0.2,0.8-0.4,1.7-0.7,2.5c0.3-0.1,0.6-0.2,0.9-0.3c-0.6-0.7-1.1-1.5-1.7-2.2c-0.1,0.1-1,0.5-1.3,0.9c-0.8,1,0.5,2.6,1.7,2.2
			c2.2-0.8,1.3-1,2.3-3.3c1.8-3.9,3.1-7.6,5.5-11.2c5.5-8,12.7-14.9,19.9-21.4c13.6-12.2,29.9-22.8,40.2-38.2
			c10.8-16.1,14.3-36.5,21.6-54.3c7.7-18.9,17.2-38.1,34.6-49.8c1.1-0.8,0.8-2.2-0.4-2.7c-0.2-0.1-0.4-0.1-0.5-0.2
			c-1.6-0.7-2.5,1.9-1.2,2.7c0.3,0.2,0.7,0.4,1,0.6c0.4-0.9,0.8-1.8,1.2-2.7c-0.2-0.1-0.4-0.1-0.5-0.2c0.3,0.7,0.6,1.5,0.9,2.2
			c0,0,0.1-0.1,0.1-0.1c0.3-0.5,0.3-1.4-0.2-1.8c-16.8-13.7-38.8-16.5-59.8-17.2c-25.9-0.9-52,2.6-76.8,10.3
			c-11.8,3.7-23.2,8.9-35.1,12.5c-13.2,4-26.9,4.5-40.5,6.3c-26.5,3.6-50.2,18.3-77.4,11.1c-14.7-3.9-29-10.2-43.2-15.5
			c-15.6-5.8-31.2-11.7-46.7-17.5c0,1,0,1.9,0,2.9c7.8-1,13.6-5.2,17.3-12.1c0.2-0.5,0.3-1.1,0-1.5c-3.4-5.1-7.2-10.1-10.3-15.4
			c-2.8-4.7-2.2-7.4,2-11.8c1-1.1,0-2.9-1.5-2.5c-0.4,0.1-0.8,0.2-1.2,0.4c0.6,0.5,1.3,1,1.9,1.4c0.4,0,0.7,0.1,1.1,0.1
			c1.8-0.1,1.9-2.3,0.4-2.9c-31.2-13-67.7-7.8-94.6,12.4c0.7,0.3,1.5,0.6,2.2,0.9c-1.1-2.6-1-2.1-3.4-3.3
			c-6.4-3.2-15.3-3.9-22.2-5.6c-14.3-3.5-28.6-7-42.9-10.4c-28.7-6.7-57.4-13.1-86.3-19.1c-57.1-11.9-114.5-22.4-172.2-31.5
			c-13.2-2.1-42.6-3.5-40-23.4c1.1-8.2,9.5-13.7,14.6-19.7c4.4-5.2,8-10.8,11.2-16.9c0.5-1-0.1-2.3-1.3-2.3c-11,0.3-22,0.6-33,0.8
			c0.5,0.6,1,1.3,1.4,1.9c1-2.6,2-5.3,3-7.9c0.5-1.3-1.2-2.3-2.2-1.7c-4.2,1.6-6.3,0-6.5-4.8c0.3-1.2-0.7-2-1.8-1.8
			c-2.5,0.3-9.1,1.5-10.6-0.6c-0.9-1.2,0.1-3.4,0.5-5c0.2-1.1-0.7-2.2-1.8-1.8c-4.9,1.3-9.7,2.1-14.8,2.3c0.4,0.8,0.9,1.5,1.3,2.3
			c2-3.9,4.4-7.1,7.7-10c1.2-1.1-0.1-2.8-1.5-2.5c-2,0.4-12.2,2-13.6-0.9c-0.5-1.2,0.3,1.9,0.1,0.5c-0.3-2.4,3-7,3.8-9.5
			c0.3-1.1-0.8-2.2-1.8-1.8c-51.6,15.7-100,40.1-143.4,72.2c-1.5,1.1,0,3.7,1.5,2.6c43.1-31.9,91.3-56.2,142.7-71.9
			c-0.6-0.6-1.2-1.2-1.8-1.8c-0.9,3-5.7,9.6-3.8,12.7c0.4,0.6,1,0.8,1.7,0.7c4.9-0.9,10.1,1.3,15.5,0.1c-0.5-0.8-1-1.7-1.5-2.5
			c-3.5,3.2-6,6.4-8.2,10.7c-0.5,1,0.1,2.3,1.3,2.3c5.4-0.2,10.4-1,15.6-2.4c-0.6-0.6-1.2-1.2-1.8-1.8c-0.5,2.2-1,4.4-1.5,6.7
			c-0.2,0.8,0.2,1.6,1,1.8c4.9,1.2,9.3,1.4,14.3,0.7c-0.6-0.6-1.2-1.2-1.8-1.8c-1.7,6.4,5.2,11.6,10.9,8.2c-0.7-0.6-1.5-1.1-2.2-1.7
			c-1,2.6-2,5.3-3,7.9c-0.3,0.9,0.5,1.9,1.4,1.9c11-0.3,22-0.6,33-0.8c-0.4-0.8-0.9-1.5-1.3-2.3c-3.5,6.7-7.5,12.8-12.6,18.4
			c-3.9,4.2-8.5,7.9-11.4,13c-4.2,7.3-2.5,15.4,3.2,21.3c8.1,8.5,21,9.2,31.9,10.9c15.1,2.4,30.2,4.8,45.2,7.3
			c61.8,10.5,123.4,22.6,184.6,36.3c17,3.8,34,7.8,51,11.8c8.5,2,17,4.1,25.4,6.2c3.9,1,22,3.2,23.5,6.8c0.3,0.8,1.3,1.5,2.2,0.9
			c26.4-19.8,61.7-24.8,92.3-12.1c0.1-1,0.3-2,0.4-2.9c-1.8,0.1-4.4,0.4-4.1,2.9c0.1,0.9,0.9,1.8,1.9,1.4c0.4-0.1,0.8-0.2,1.2-0.4
			c-0.5-0.8-1-1.7-1.5-2.5c-2.4,2.5-3.3,5.9-5.7,8.5c-0.4,0.5-0.6,1.3-0.2,1.8c3.6,5.4,8.3,10.9,11.2,16.7
			c3.9,7.7-6.4,12.2-12.9,13.1c-1.6,0.2-1.2,2.4,0,2.9c25.7,9.7,51.4,19.6,77.2,29c10.7,3.9,21.8,7.1,33.4,6.6
			c11.1-0.5,21.8-4.1,32.4-7.4c24.6-7.6,50.6-6.5,74.9-15.3c25.2-9.1,49.5-17.1,76.4-19.3c14.1-1.1,28.5-1.1,42.6,0.6
			c6.9,0.8,13.7,2,20.3,4.1c1.3,0.4,20.9,9.1,20.7,9.5c-0.5,0.9,0,1.8,0.9,2.2c0.2,0.1,0.4,0.1,0.5,0.2c1.6,0.7,2.5-1.9,1.2-2.7
			c-0.3-0.2-0.7-0.4-1-0.6c-0.4,0.9-0.8,1.8-1.2,2.7c0.2,0.1,0.4,0.1,0.5,0.2c-0.1-0.9-0.2-1.8-0.4-2.7
			c-14.4,9.7-23.6,24.2-30.8,39.7c-8.6,18.4-12.9,38.6-21.5,56.8c-8.8,18.5-26.1,30-41.1,43.2c-6.7,5.9-13.4,12-19.2,18.9
			c-2.6,3.1-5.1,6.4-7.1,10c-0.5,0.8-3.4,9.1-3.6,9.2c0.6,0.7,1.1,1.5,1.7,2.2c0.1-0.1,1-0.5,1.3-0.9c0.8-1-0.5-2.6-1.7-2.2
			c-0.3,0.1-0.6,0.2-0.9,0.3c-0.9,0.4-1.6,1.7-0.7,2.5c13,10.7,7.5,32.4,8.1,47.1c0.3,9.7,0.5,18.9-1.7,28.5
			c-2,8.6-3.7,17.3-4.9,26.1c-2.2,16.1-4.6,34.3,0.5,50.1c4.8,14.9,17,25.4,28.6,35.2c0.2-0.8,0.4-1.7,0.7-2.5
			c-26,8.5-49.4-11.6-63.6-31.3c-13-18-23.2-38.5-41.4-52.1c-19.5-14.6-42.9-21.5-58.4-41.4c-13.2-17-21.9-37.7-39.4-51.2
			c-37.2-28.6-92.8-29.3-137.1-24.1c-3.1,0.4-31.9,0.9-23.9,10.2c1.5,1.7,4.3,1.9,6.3,2.5c3.5,1.2,10.9,4.4,7.2,9.2
			c-3,3.9-12.4,3.1-13.9,9c-1.2,4.9,5.6,6.9,8.9,8.3c1.1,0.5,5.5,1.5,6.1,2.8c1.7,3.6-3.6,5.6-5.6,6.7c-2,1.1-5,2.3-5.7,4.8
			c-1.5,5.1,7.1,8.6,10.5,10c3.5,1.4,5.4,1,2.1,4.5c-3.4,3.5-7.7,6.4-11.9,8.9c-0.8,0.4-1.1,1.7-0.3,2.4c5.4,4.3,12.5,3.2,12.9,11.5
			c0.2,4.8,5.1,12.4-3.6,12.8c-1.1,0-1.9,1.2-1.3,2.3c1.3,2.2,3.5,4.6,4.2,7.1c1,3.1,0.1,3-0.9,5.7c-1.1,2.9-1.3,0.5-1.5,3.5
			c-0.3,6,6.6,10.4,6.6,16.9c0.6-0.5,1.3-1,1.9-1.4c-25.2-5.7-46.5-21.4-66-37.7c-17.3-14.4-34.1-29.7-55.6-37.6
			c-22.2-8.2-44.1-2.6-66.8,0.5c-29.1,4-58.2,7.6-87.4,10.9c-31.3,3.5-62.6,6.6-93.9,9.3c-0.9,0.1-1.8,0.9-1.4,1.9
			c7.4,20.1,25.9,31.2,43.6,41.4c4.5,2.6,9,5.1,13.4,7.9c3,1.9,6.2,3.8,8.7,6.4c2.1,2.2,4.7,6,4.3,9.1c-1.1,1.8-2.3,3.7-3.4,5.5
			c-0.9-0.3-1.7-0.6-2.6-0.9c-5.2,0.1-14.6-6.6-19.2-9.2c-6-3.3-11.8-6.8-17.9-9.9c-25.4-12.9-53.3-10-80.7-14.5
			c-14.1-2.4-28-6-41.5-10.8c-6.7-2.4-13.3-5.2-19.8-8.1c-4.2-1.9-3.8-1.4-8.1,0.8c-50.9,26-110,24.8-165.3,32.2
			c-30,4-59.2,11.1-89.5,12.1c-15.8,0.5-31.6,0.7-47.4,1c-10.4,0.2-23.1-2.5-31.6,4.5c-4.9,4-8.9,8.9-12.7,13.9
			c-2.6,3.4-5.2,6.9-7.9,10.3c-0.8,0.9-1.6,2.3-2.6,3c-2.2,1-4.4,2-6.6,2.9c-0.8-0.3-1.7-0.5-2.6-0.6c-3,0.4-4.4,0.4-5.7,3.5
			c-0.6,1.5,0.2,3.7-0.5,5c-2.8,5.7-9.2,2.1-13.6,0.1c-26.2-11.6-50.2-27.8-63.4-54c-0.2-0.5-0.8-0.7-1.3-0.7
			c-66.3,0-132.1-9.5-196.9-22.7c-27.2-5.5-60.3-9.4-80-31.4c-8.6-9.6-16.5-27.4-6-38.7c9.6-10.3,25.7-1.4,37.4-0.5
			c23.2,1.7,48.2-3,70.5-8.9c0.9-0.2,1.4-1.4,0.9-2.2c-9.8-14.8-31.1-18.3-47.3-20.7c-9.6-1.4-19.3-2.2-28.9-3.1
			c-11.9-1.1-28.3-0.7-35.6-11.9c-0.3,0.7-0.6,1.5-0.9,2.2c0,0,0.1,0,0.1,0c0.5-0.2,1-0.5,1-1c3.4-20,20.1-40,35.3-52.7
			c6.7-5.6,14-10.3,20.3-16.5c8.5-8.3,16-17.6,24.4-25.9c34.7-34.3,80.6-47.6,124.9-64.8c22.7-8.8,45.1-18.3,67-29.1
			c22-10.9,43.1-23.4,66-32.4c45.9-18.1,94.9-30,142.7-41.9c55-13.6,110.6-25,166.5-34.2C819.2,301.4,818.4,298.5,816.5,298.8
			L816.5,298.8z"/>
	</g>
</g>
</svg>
