<?xml version="1.0" encoding="utf-8"?>
<!-- Generator: Adobe Illustrator 21.1.0, SVG Export Plug-In . SVG Version: 6.00 Build 0)  -->
<svg version="1.1" id="Layer_1" xmlns="http://www.w3.org/2000/svg" xmlns:xlink="http://www.w3.org/1999/xlink" x="0px" y="0px"
	 viewBox="0 0 1920 1105" style="enable-background:new 0 0 1920 1105;" xml:space="preserve">
<style type="text/css">
	.st0{fill:#B3B3B3;}
	.st1{fill:#808080;}
	.st2{fill:#F3F3F3;stroke:#898989;stroke-miterlimit:10;}
	.st3{fill:#D1D1D1;}
	.st4{fill:none;}
	.st5{fill:#E6E6E5;}
	.st6{fill:#00A551;}
	.st7{fill:#B8B8B8;}
	.st8{fill:#FFFFFF;}
	.st9{fill:#F3F3F3;}
</style>
<g>
	<path class="st0" d="M52.5,1104.5c-28.1,0-51-22.9-51-51v-977c0-28.1,22.9-51,51-51h1817c28.1,0,51,22.9,51,51v977
		c0,28.1-22.9,51-51,51H52.5z"/>
	<path class="st1" d="M1869.5,26c27.8,0,50.5,22.7,50.5,50.5v977c0,27.8-22.7,50.5-50.5,50.5H52.5c-27.8,0-50.5-22.7-50.5-50.5v-977
		C2,48.7,24.7,26,52.5,26H1869.5 M1869.5,25H52.5C24.1,25,1,48.1,1,76.5v977c0,28.4,23.1,51.5,51.5,51.5h1817
		c28.4,0,51.5-23.1,51.5-51.5v-977C1921,48.1,1897.9,25,1869.5,25L1869.5,25z"/>
</g>
<g>
	<path class="st2" d="M52.5,1097.5c-28.1,0-51-22.9-51-51v-977c0-28.1,22.9-51,51-51h1817c28.1,0,51,22.9,51,51v977
		c0,28.1-22.9,51-51,51H52.5z"/>
	<path class="st1" d="M1869.5,19c27.8,0,50.5,22.7,50.5,50.5v977c0,27.8-22.7,50.5-50.5,50.5H52.5c-27.8,0-50.5-22.7-50.5-50.5v-977
		C2,41.7,24.7,19,52.5,19H1869.5 M1869.5,18H52.5C24.1,18,1,41.1,1,69.5v977c0,28.4,23.1,51.5,51.5,51.5h1817
		c28.4,0,51.5-23.1,51.5-51.5v-977C1921,41.1,1897.9,18,1869.5,18L1869.5,18z"/>
</g>
<rect x="238" y="523.8" class="st3" width="1290.4" height="192.9"/>
<line class="st4" x1="2022" y1="612.7" x2="2017.9" y2="589.5"/>
<path class="st5" d="M1129.2,733.3h564.1l63.4-8.3h22.1h-1.3l16.5,2.7c17.5,0,31.7,18.4,31.7,41.3c49.8,12.3-108.7,5.7-128.1,8.3
	l-602.4,40.9L1129.2,733.3z"/>
<polyline class="st5" points="300.8,733.5 1499.9,733.5 1152.6,804.1 421.2,804.1 281.9,798.8 "/>
<path class="st6" d="M281.9,798.8l18.9-65.3L281.9,798.8z"/>
<rect x="293.1" y="700" class="st3" width="1235.3" height="33.6"/>
<polyline class="st3" points="303.2,700 238,700 238,841.5 290.8,841.5 303.2,708.8 "/>
<path class="st3" d="M1756.8,725.1l-2.7-16.5l-71.8-27.9c-6.8-2.2-3.5-17.4,9-14.7l69,25.3c6.9,0,11.7,3.6,11.7,9l5.6,24.8"/>
<polygon class="st3" points="1652.4,780.5 1644.7,789.6 1637.4,781.5 1628.6,788.6 1622.5,782.5 1622.5,733.3 1628.6,727 
	1637.3,733.3 1644.7,726.1 1651.2,734 "/>
<polygon class="st3" points="1622.5,782.5 1615.1,790.9 1607.5,783 1598.8,790.9 1592.6,784.6 1592.6,733.3 1597.9,726.3 
	1607.3,733.3 1613.8,727.1 1622.5,733.3 "/>
<polygon class="st3" points="1682.2,778.4 1672.7,787.2 1666.5,779.5 1658.5,786.3 1652.4,780.5 1651.2,734 1658.7,727.1 
	1666,733.3 1672.9,726.1 1681.1,733 "/>
<ellipse class="st7" cx="711.1" cy="872.8" rx="109.8" ry="111.2"/>
<ellipse class="st7" cx="711.1" cy="872.8" rx="109.8" ry="111.2"/>
<ellipse class="st7" cx="711.1" cy="872.8" rx="109.8" ry="111.2"/>
<circle class="st8" cx="711.1" cy="872.8" r="69.2"/>
<rect x="964.3" y="753.4" transform="matrix(0.9 -0.4359 0.4359 0.9 -233.9946 497.1086)" class="st5" width="4.2" height="10.2"/>
<rect x="1042" y="790" transform="matrix(0.3281 -0.9446 0.9446 0.3281 -44.7037 1521.3859)" class="st5" width="10.2" height="4.2"/>
<rect x="883.6" y="786.9" transform="matrix(0.3283 -0.9446 0.9446 0.3283 -153.171 1368.6517)" class="st8" width="4.2" height="10.2"/>
<rect x="883.6" y="786.9" transform="matrix(0.3283 -0.9446 0.9446 0.3283 -153.171 1368.6517)" class="st5" width="4.2" height="10.2"/>
<rect x="1008" y="762.2" transform="matrix(0.9983 -5.820133e-02 5.820133e-02 0.9983 -42.9454 60.0907)" class="st5" width="4.2" height="10.2"/>
<rect x="920.7" y="762.2" transform="matrix(0.6643 -0.7475 0.7475 0.6643 -263.7321 947.3767)" class="st8" width="4.2" height="10.2"/>
<rect x="920.7" y="762.2" transform="matrix(0.6643 -0.7475 0.7475 0.6643 -263.7321 947.3767)" class="st5" width="4.2" height="10.2"/>
<rect x="988.2" y="756" transform="matrix(0.9713 -0.2378 0.2378 0.9713 -152.5857 257.328)" class="st5" width="4.2" height="10.2"/>
<rect x="902.3" y="771.8" transform="matrix(0.5185 -0.8551 0.8551 0.5185 -228.821 1147.4696)" class="st8" width="4.2" height="10.2"/>
<rect x="902.3" y="771.8" transform="matrix(0.5185 -0.8551 0.8551 0.5185 -228.821 1147.4696)" class="st5" width="4.2" height="10.2"/>
<rect x="1026.1" y="776.6" transform="matrix(0.1519 -0.9884 0.9884 0.1519 104.8903 1679.678)" class="st5" width="10.2" height="4.2"/>
<rect x="943.7" y="755.4" transform="matrix(0.8064 -0.5914 0.5914 0.8064 -266.6398 706.6099)" class="st8" width="4.2" height="10.2"/>
<rect x="943.7" y="755.4" transform="matrix(0.8064 -0.5914 0.5914 0.8064 -266.6398 706.6099)" class="st5" width="4.2" height="10.2"/>
<circle class="st7" cx="712.1" cy="876.3" r="114.6"/>
<rect x="710.2" y="756.7" transform="matrix(0.9 -0.4359 0.4359 0.9 -260.8338 386.687)" class="st5" width="4.2" height="10.2"/>
<polygon class="st5" points="716.4,765.5 715.5,763.6 713.6,764.5 711,759 711,759 714.5,766.4 716.4,765.5 715.5,763.6 
	716.4,765.5 718.4,764.5 713,753.5 705.3,757.1 711.6,770.2 719.3,766.5 718.4,764.5 "/>
<rect x="710.2" y="985.3" transform="matrix(0.9 -0.4359 0.4359 0.9 -360.4836 409.5437)" class="st8" width="4.2" height="10.2"/>
<polygon class="st9" points="708.1,986.8 709,988.6 711,987.7 713.6,993.1 713.6,993.1 710,985.8 708.1,986.8 709,988.6 
	708.1,986.8 706.2,987.7 711.6,998.8 719.3,995.1 713,982.1 705.3,985.8 706.2,987.7 "/>
<rect x="710.2" y="985.3" transform="matrix(0.9 -0.4359 0.4359 0.9 -360.4836 409.5437)" class="st8" width="4.2" height="10.2"/>
<rect x="821.4" y="874" transform="matrix(0.9 -0.4359 0.4359 0.9 -299.2457 447.9039)" class="st8" width="10.2" height="4.2"/>
<polygon class="st9" points="822.9,880.3 824.8,879.4 823.9,877.4 829.3,874.8 829.3,874.8 822,878.4 822.9,880.3 824.8,879.4 
	822.9,880.3 823.9,882.1 834.9,876.8 831.2,869.1 818.2,875.4 821.9,883 823.9,882.1 "/>
<rect x="592.8" y="874" transform="matrix(0.9 -0.4359 0.4359 0.9 -322.1024 348.2541)" class="st8" width="10.2" height="4.2"/>
<polygon class="st9" points="601.6,871.9 599.7,872.9 600.7,874.8 595.2,877.4 595.2,877.4 602.6,873.9 601.6,871.9 599.7,872.9 
	601.6,871.9 600.7,870 589.6,875.4 593.3,883 606.3,876.8 602.6,869.1 600.7,870 "/>
<rect x="592.8" y="874" transform="matrix(0.9 -0.4359 0.4359 0.9 -322.1024 348.2541)" class="st9" width="10.2" height="4.2"/>
<rect x="788.2" y="793.1" transform="matrix(0.3286 -0.9445 0.9445 0.3286 -218.4881 1283.1499)" class="st5" width="10.2" height="4.2"/>
<polygon class="st5" points="793.4,800.8 794.1,798.8 792.1,798.1 794.1,792.4 794.1,792.4 791.4,800.1 793.4,800.8 794.1,798.8 
	793.4,800.8 795.4,801.4 799.5,789.9 791.5,787.1 786.7,800.7 794.7,803.5 795.4,801.4 "/>
<rect x="626.3" y="954.8" transform="matrix(0.3286 -0.9445 0.9445 0.3286 -479.8504 1238.8798)" class="st8" width="10.2" height="4.2"/>
<polygon class="st9" points="631.1,951.3 630.5,953.4 632.4,954 630.5,959.8 630.5,959.8 633.1,952.1 631.1,951.3 630.5,953.4 
	631.1,951.3 629.1,950.7 625.1,962.4 633.1,965.2 637.8,951.4 629.8,948.7 629.1,950.7 "/>
<rect x="626.3" y="954.8" transform="matrix(0.3286 -0.9445 0.9445 0.3286 -479.8504 1238.8798)" class="st9" width="10.2" height="4.2"/>
<rect x="791" y="951.8" transform="matrix(0.3283 -0.9446 0.9446 0.3283 -371.1332 1391.9446)" class="st8" width="4.2" height="10.2"/>
<polygon class="st9" points="787.6,957.3 789.5,957.9 790.2,955.9 796,957.9 795.9,957.9 788.3,955.3 787.6,957.3 789.5,957.9 
	787.6,957.3 786.8,959.3 798.5,963.3 801.3,955.3 787.6,950.5 784.9,958.5 786.8,959.3 "/>
<rect x="629.4" y="790.2" transform="matrix(0.3286 -0.9445 0.9445 0.3286 -327.2069 1130.4027)" class="st5" width="4.2" height="10.2"/>
<polygon class="st5" points="637,795 635,794.3 634.3,796.2 628.6,794.3 628.6,794.3 636.3,797 637,795 635,794.3 637,795 
	637.6,792.9 626,788.9 623.2,796.9 636.8,801.6 639.6,793.6 637.6,792.9 "/>
<rect x="629.4" y="790.2" transform="matrix(0.3286 -0.9445 0.9445 0.3286 -327.2069 1130.4027)" class="st5" width="4.2" height="10.2"/>
<rect x="753.9" y="765.3" transform="matrix(0.9983 -5.890692e-02 5.890692e-02 0.9983 -44.0706 45.874)" class="st5" width="4.2" height="10.2"/>
<polygon class="st5" points="758.4,775.5 758.3,773.3 756.2,773.5 755.8,767.5 755.8,767.5 756.3,775.6 758.4,775.5 758.3,773.3 
	758.4,775.5 760.5,775.3 759.8,763 751.3,763.5 752.2,777.9 760.7,777.5 760.5,775.3 "/>
<rect x="666.4" y="976.6" transform="matrix(0.9983 -5.810819e-02 5.810819e-02 0.9983 -55.9147 40.5048)" class="st8" width="4.2" height="10.2"/>
<polygon class="st9" points="666.1,976.7 666.2,978.8 668.4,978.7 668.7,984.7 668.7,984.7 668.2,976.6 666.1,976.7 666.2,978.8 
	666.1,976.7 664,976.9 664.8,989.2 673.2,988.7 672.3,974.3 663.9,974.7 664,976.9 "/>
<rect x="666.4" y="976.6" transform="matrix(0.9983 -5.810819e-02 5.810819e-02 0.9983 -55.9147 40.5048)" class="st9" width="4.2" height="10.2"/>
<rect x="812.8" y="917.6" transform="matrix(0.9983 -5.810819e-02 5.810819e-02 0.9983 -52.0596 49.0812)" class="st8" width="10.2" height="4.2"/>
<polygon class="st9" points="812.9,922.2 815,922.1 814.9,920 820.9,919.6 820.9,919.6 812.8,920.2 812.9,922.2 815,922.1 
	812.9,922.2 813,924.3 825.4,923.6 824.8,915.1 810.5,916 810.9,924.5 813,924.3 "/>
<rect x="601.5" y="830.2" transform="matrix(0.9983 -5.815472e-02 5.815472e-02 0.9983 -47.3753 36.6861)" class="st8" width="10.2" height="4.2"/>
<polygon class="st9" points="611.7,829.9 609.5,830.1 609.7,832.2 603.6,832.5 603.6,832.5 611.8,832.1 611.7,829.9 609.5,830.1 
	611.7,829.9 611.5,827.9 599.2,828.6 599.6,837 614.1,836.1 613.7,827.7 611.5,827.9 "/>
<rect x="601.5" y="830.2" transform="matrix(0.9983 -5.815472e-02 5.815472e-02 0.9983 -47.3753 36.6861)" class="st9" width="10.2" height="4.2"/>
<rect x="812.8" y="830.3" transform="matrix(0.6643 -0.7475 0.7475 0.6643 -347.5956 890.7758)" class="st8" width="10.2" height="4.2"/>
<polygon class="st9" points="816,837.6 817.5,836 815.9,834.6 819.9,830 819.9,830.1 814.5,836.1 816,837.6 817.5,836 816,837.6 
	817.7,838.9 825.8,829.8 819.5,824.1 809.9,834.9 816.2,840.5 817.7,838.9 "/>
<rect x="601.7" y="917.8" transform="matrix(0.6648 -0.7471 0.7471 0.6648 -483.7936 761.6969)" class="st8" width="10.2" height="4.2"/>
<polygon class="st9" points="608.5,914.6 607.1,916.2 608.7,917.6 604.7,922.1 604.7,922.1 610.1,916 608.5,914.6 607.1,916.2 
	608.5,914.6 606.9,913.2 598.7,922.4 605,928.1 614.6,917.3 608.4,911.6 606.9,913.2 "/>
<rect x="601.7" y="917.8" transform="matrix(0.6648 -0.7471 0.7471 0.6648 -483.7936 761.6969)" class="st9" width="10.2" height="4.2"/>
<rect x="754" y="976.5" transform="matrix(0.6643 -0.7475 0.7475 0.6643 -479.9112 894.72)" class="st8" width="4.2" height="10.2"/>
<polygon class="st9" points="750.8,979.8 752.4,981.3 753.8,979.7 758.3,983.7 758.3,983.7 752.2,978.3 750.8,979.8 752.4,981.3 
	750.8,979.8 749.4,981.5 758.6,989.6 764.3,983.3 753.4,973.7 747.8,980 749.4,981.5 "/>
<rect x="666.4" y="765.3" transform="matrix(0.6643 -0.7475 0.7475 0.6643 -351.4236 758.3561)" class="st5" width="4.2" height="10.2"/>
<polygon class="st5" points="673.8,772.3 672.2,770.9 670.7,772.5 666.2,768.5 666.2,768.5 672.3,773.9 673.8,772.3 672.2,770.9 
	673.8,772.3 675.1,770.7 665.9,762.5 660.3,768.8 671.1,778.4 676.7,772.1 675.1,770.7 "/>
<rect x="666.4" y="765.3" transform="matrix(0.6643 -0.7475 0.7475 0.6643 -351.4236 758.3561)" class="st5" width="4.2" height="10.2"/>
<rect x="734.1" y="759.2" transform="matrix(0.9714 -0.2374 0.2374 0.9714 -160.3979 196.6265)" class="st5" width="4.2" height="10.2"/>
<polygon class="st5" points="739.5,768.8 739,766.8 736.9,767.2 735.5,761.4 735.5,761.4 737.4,769.3 739.5,768.8 739,766.8 
	739.5,768.8 741.5,768.3 738.6,756.2 730.4,758.3 733.8,772.3 742.1,770.4 741.5,768.3 "/>
<rect x="686.2" y="982.7" transform="matrix(0.9712 -0.2382 0.2382 0.9712 -215.4822 192.3898)" class="st8" width="4.2" height="10.2"/>
<polygon class="st9" points="685,983.4 685.6,985.4 687.6,985 689.1,990.8 689.1,990.8 687.1,982.9 685,983.4 685.6,985.4 
	685,983.4 683,983.9 685.9,995.9 694.2,993.9 690.8,979.8 682.5,981.8 683,983.9 "/>
<rect x="686.2" y="982.7" transform="matrix(0.9712 -0.2382 0.2382 0.9712 -215.4822 192.3898)" class="st9" width="4.2" height="10.2"/>
<rect x="818.9" y="897.9" transform="matrix(0.9714 -0.2374 0.2374 0.9714 -190.1044 221.3524)" class="st8" width="10.2" height="4.2"/>
<polygon class="st9" points="819.5,903.3 821.6,902.8 821.1,900.8 827,899.3 827,899.3 819.1,901.3 819.5,903.3 821.6,902.8 
	819.5,903.3 820.1,905.3 832.1,902.5 830.1,894.2 816,897.6 818,905.9 820.1,905.3 "/>
<rect x="595.3" y="850.1" transform="matrix(0.9714 -0.2374 0.2374 0.9714 -185.1501 166.9037)" class="st8" width="10.2" height="4.2"/>
<polygon class="st9" points="604.9,848.9 603,849.3 603.4,851.4 597.6,852.9 597.6,852.9 605.5,851 604.9,848.9 603,849.3 
	604.9,848.9 604.5,846.8 592.4,849.8 594.5,858 608.5,854.6 606.6,846.3 604.5,846.8 "/>
<rect x="595.3" y="850.1" transform="matrix(0.9714 -0.2374 0.2374 0.9714 -185.1501 166.9037)" class="st9" width="10.2" height="4.2"/>
<rect x="803.1" y="811.9" transform="matrix(0.5184 -0.8551 0.8551 0.5184 -306.8846 1083.1157)" class="st8" width="10.2" height="4.2"/>
<polygon class="st9" points="807.4,819.4 808.5,817.6 806.7,816.5 809.7,811.4 809.8,811.4 805.6,818.3 807.4,819.4 808.5,817.6 
	807.4,819.4 809.2,820.6 815.6,810 808.4,805.6 800.9,818 808.1,822.4 809.2,820.6 "/>
<rect x="611.2" y="936.1" transform="matrix(0.519 -0.8548 0.8548 0.519 -505.496 978.0972)" class="st8" width="10.2" height="4.2"/>
<polygon class="st9" points="617.2,932.7 616.1,934.5 617.9,935.6 614.7,940.8 614.7,940.7 619,933.8 617.2,932.7 616.1,934.5 
	617.2,932.7 615.4,931.7 609,942.2 616.2,946.6 623.6,934.2 616.4,929.9 615.4,931.7 "/>
<rect x="611.2" y="936.1" transform="matrix(0.519 -0.8548 0.8548 0.519 -505.496 978.0972)" class="st9" width="10.2" height="4.2"/>
<rect x="772.3" y="966.9" transform="matrix(0.519 -0.8548 0.8548 0.519 -458.3339 1129.4905)" class="st8" width="4.2" height="10.2"/>
<polygon class="st9" points="768.9,971.2 770.7,972.3 771.8,970.5 776.9,973.6 776.9,973.6 770,969.4 768.9,971.2 770.7,972.3 
	768.9,971.2 767.8,973 778.4,979.4 782.8,972.2 770.4,964.6 766,971.9 767.8,973 "/>
<rect x="648.1" y="775" transform="matrix(0.519 -0.8548 0.8548 0.519 -354.0407 931.0558)" class="st5" width="4.2" height="10.2"/>
<polygon class="st5" points="655.6,781 653.8,779.9 652.7,781.7 647.5,778.5 647.6,778.5 654.5,782.8 655.6,781 653.8,779.9 
	655.6,781 656.7,779.2 646.2,772.8 641.8,780 654.2,787.5 658.5,780.2 656.7,779.2 "/>
<rect x="648.1" y="775" transform="matrix(0.519 -0.8548 0.8548 0.519 -354.0407 931.0558)" class="st5" width="4.2" height="10.2"/>
<rect x="772.1" y="779.9" transform="matrix(0.1518 -0.9884 0.9884 0.1518 -113.7768 1431.4878)" class="st5" width="10.2" height="4.2"/>
<polygon class="st5" points="778.5,787.3 778.7,785.3 776.7,784.9 777.6,779 777.6,779 776.4,787.1 778.5,787.3 778.7,785.3 
	778.5,787.3 780.5,787.7 782.4,775.5 774.1,774.2 771.8,788.5 780.2,789.8 780.5,787.7 "/>
<rect x="642.2" y="968.2" transform="matrix(0.1518 -0.9884 0.9884 0.1518 -410.0117 1462.7848)" class="st8" width="10.2" height="4.2"/>
<polygon class="st9" points="646.1,964.8 645.7,966.9 647.9,967.3 647,973.2 646.9,973.2 648.2,965.2 646.1,964.8 645.7,966.9 
	646.1,964.8 644,964.5 642.1,976.7 650.5,978 652.7,963.8 644.3,962.4 644,964.5 "/>
<rect x="642.2" y="968.2" transform="matrix(0.1518 -0.9884 0.9884 0.1518 -410.0117 1462.7848)" class="st9" width="10.2" height="4.2"/>
<rect x="804.2" y="935.9" transform="matrix(0.1518 -0.9884 0.9884 0.1518 -246.2197 1595.0961)" class="st8" width="4.2" height="10.2"/>
<polygon class="st9" points="801,942.3 803.1,942.6 803.5,940.5 809.4,941.4 809.4,941.5 801.3,940.2 801,942.3 803.1,942.6 
	801,942.3 800.7,944.3 812.9,946.2 814.2,937.9 799.9,935.7 798.6,944.1 800.7,944.3 "/>
<rect x="616" y="806.2" transform="matrix(0.1517 -0.9884 0.9884 0.1517 -277.576 1299.2493)" class="st8" width="4.2" height="10.2"/>
<polygon class="st9" points="623.5,809.9 621.5,809.6 621.1,811.7 615.2,810.8 615.2,810.7 623.2,812 623.5,809.9 621.5,809.6 
	623.5,809.9 623.8,807.8 611.7,805.9 610.3,814.3 624.6,816.5 626,808.1 623.8,807.8 "/>
<rect x="616" y="806.2" transform="matrix(0.1517 -0.9884 0.9884 0.1517 -277.576 1299.2493)" class="st9" width="4.2" height="10.2"/>
<rect x="819.7" y="853.3" transform="matrix(0.806 -0.592 0.592 0.806 -346.3524 654.2269)" class="st8" width="10.2" height="4.2"/>
<polygon class="st9" points="821.8,860.1 823.5,858.9 822.2,857.2 827.1,853.6 827.2,853.7 820.5,858.4 821.8,860.1 823.5,858.9 
	821.8,860.1 823.1,861.8 833,854.6 828,847.7 816.4,856.3 821.3,863.1 823.1,861.8 "/>
<rect x="594.8" y="894.7" transform="matrix(0.8063 -0.5916 0.5916 0.8063 -414.3214 528.6298)" class="st8" width="10.2" height="4.2"/>
<polygon class="st9" points="602.7,892 601,893.3 602.3,895 597.4,898.6 597.4,898.6 603.9,893.7 602.7,892 601,893.3 602.7,892 
	601.4,890.3 591.5,897.6 596.5,904.4 608.2,895.9 603.1,889.1 601.4,890.3 "/>
<rect x="594.8" y="894.7" transform="matrix(0.8063 -0.5916 0.5916 0.8063 -414.3214 528.6298)" class="st9" width="10.2" height="4.2"/>
<rect x="731" y="983.5" transform="matrix(0.8063 -0.5916 0.5916 0.8063 -442.8078 625.2213)" class="st8" width="4.2" height="10.2"/>
<polygon class="st9" points="728.2,985.7 729.5,987.3 731.2,986 734.8,991 734.7,991 729.9,984.4 728.2,985.7 729.5,987.3 
	728.2,985.7 726.5,986.8 733.8,996.8 740.6,991.9 732.1,980.2 725.3,985.2 726.5,986.8 "/>
<rect x="689.5" y="758.6" transform="matrix(0.8063 -0.5916 0.5916 0.8063 -317.7888 557.1232)" class="st5" width="4.2" height="10.2"/>
<polygon class="st5" points="696.3,766.6 695.1,764.9 693.4,766.1 689.8,761.3 689.8,761.2 694.6,767.7 696.3,766.6 695.1,764.9 
	696.3,766.6 698,765.3 690.7,755.3 683.9,760.3 692.5,772 699.3,767 698,765.3 "/>
<rect x="689.5" y="758.6" transform="matrix(0.8063 -0.5916 0.5916 0.8063 -317.7888 557.1232)" class="st5" width="4.2" height="10.2"/>
<ellipse class="st7" cx="712.9" cy="876.3" rx="107.5" ry="108.8"/>
<circle class="st2" cx="712.2" cy="876.1" r="69.2"/>
<ellipse class="st7" cx="967.9" cy="872.8" rx="109.8" ry="111.2"/>
<ellipse class="st7" cx="967.9" cy="872.8" rx="109.8" ry="111.2"/>
<ellipse class="st7" cx="967.9" cy="872.8" rx="109.8" ry="111.2"/>
<circle class="st8" cx="967.9" cy="872.8" r="69.2"/>
<rect x="1140.7" y="786.9" transform="matrix(0.3283 -0.9446 0.9446 0.3283 19.5307 1611.3859)" class="st8" width="4.2" height="10.2"/>
<rect x="1140.7" y="786.9" transform="matrix(0.3283 -0.9446 0.9446 0.3283 19.5307 1611.3859)" class="st5" width="4.2" height="10.2"/>
<circle class="st7" cx="969" cy="876.3" r="114.6"/>
<rect x="967.2" y="756.7" transform="matrix(0.8999 -0.4362 0.4362 0.8999 -235.2254 499.0582)" class="st5" width="4.2" height="10.2"/>
<polygon class="st5" points="973.3,765.5 972.4,763.6 970.4,764.5 967.8,759 967.8,759 971.4,766.4 973.3,765.5 972.4,763.6 
	973.3,765.5 975.2,764.5 969.8,753.5 962.2,757.1 968.5,770.2 976.1,766.4 975.2,764.5 "/>
<rect x="967.1" y="985.3" transform="matrix(0.9 -0.4359 0.4359 0.9 -334.7834 521.5208)" class="st8" width="4.2" height="10.2"/>
<polygon class="st9" points="965,986.8 965.9,988.6 967.8,987.7 970.4,993.1 970.4,993.1 966.9,985.8 965,986.8 965.9,988.6 
	965,986.8 963.1,987.7 968.5,998.8 976.1,995.1 969.8,982.1 962.2,985.8 963.1,987.7 "/>
<rect x="967.1" y="985.3" transform="matrix(0.9 -0.4359 0.4359 0.9 -334.7834 521.5208)" class="st9" width="4.2" height="10.2"/>
<rect x="1078.3" y="874" transform="matrix(0.9003 -0.4352 0.4352 0.9003 -273.3096 558.8317)" class="st8" width="10.2" height="4.2"/>
<polygon class="st9" points="1079.8,880.3 1081.7,879.4 1080.7,877.4 1086.2,874.8 1086.2,874.8 1078.8,878.4 1079.8,880.3 
	1081.7,879.4 1079.8,880.3 1080.7,882.1 1091.9,876.8 1088.2,869.1 1075.1,875.4 1078.8,883 1080.7,882.1 "/>
<rect x="849.7" y="873.9" transform="matrix(0.9 -0.4359 0.4359 0.9 -296.3786 460.2173)" class="st8" width="10.2" height="4.2"/>
<polygon class="st9" points="858.5,871.5 856.7,872.5 857.6,874.4 852.2,877 852.2,877 859.4,873.4 858.5,871.5 856.7,872.5 
	858.5,871.5 857.7,869.7 846.6,875 850.3,882.6 863.2,876.4 859.5,868.8 857.7,869.7 "/>
<rect x="849.8" y="873.6" transform="matrix(0.9 -0.4359 0.4359 0.9 -296.2135 460.2233)" class="st9" width="10.2" height="4.2"/>
<rect x="1045" y="793.2" transform="matrix(0.3286 -0.9445 0.9445 0.3286 -46.1235 1525.7767)" class="st5" width="10.2" height="4.2"/>
<polygon class="st5" points="1050.3,800.8 1051,798.8 1049,798.1 1051,792.4 1051,792.4 1048.4,800.1 1050.3,800.8 1051,798.8 
	1050.3,800.8 1052.3,801.4 1056.4,789.9 1048.4,787.1 1043.6,800.7 1051.6,803.5 1052.3,801.4 "/>
<rect x="883.2" y="954.8" transform="matrix(0.3286 -0.9445 0.9445 0.3286 -307.3708 1481.473)" class="st8" width="10.2" height="4.2"/>
<polygon class="st9" points="888,951.3 887.3,953.4 889.3,954 887.3,959.8 887.3,959.8 890,952.1 888,951.3 887.3,953.4 888,951.3 
	886,950.7 881.9,962.4 889.9,965.1 894.7,951.4 886.7,948.7 886,950.7 "/>
<rect x="883.2" y="954.8" transform="matrix(0.3286 -0.9445 0.9445 0.3286 -307.3708 1481.473)" class="st9" width="10.2" height="4.2"/>
<rect x="1047.8" y="952" transform="matrix(0.3276 -0.9448 0.9448 0.3276 -198.2824 1635.517)" class="st8" width="4.2" height="10.2"/>
<polygon class="st9" points="1044.4,957.3 1046.5,957.9 1047.1,955.9 1052.8,957.9 1052.8,957.9 1045.1,955.3 1044.4,957.3 
	1046.5,957.9 1044.4,957.3 1043.8,959.3 1055.5,963.3 1058.2,955.3 1044.5,950.5 1041.8,958.5 1043.8,959.3 "/>
<rect x="886.2" y="790.2" transform="matrix(0.3286 -0.9445 0.9445 0.3286 -154.6674 1372.9606)" class="st5" width="4.2" height="10.2"/>
<polygon class="st5" points="893.9,795 891.9,794.3 891.2,796.2 885.4,794.3 885.4,794.3 893.1,797 893.9,795 891.9,794.3 
	893.9,795 894.6,792.9 882.9,788.9 880.1,796.9 893.8,801.6 896.6,793.6 894.6,792.9 "/>
<rect x="886.2" y="790.2" transform="matrix(0.3286 -0.9445 0.9445 0.3286 -154.6674 1372.9606)" class="st5" width="4.2" height="10.2"/>
<rect x="1010.9" y="765.3" transform="matrix(0.9983 -5.895410e-02 5.895410e-02 0.9983 -43.6582 61.0579)" class="st5" width="4.2" height="10.2"/>
<polygon class="st5" points="1015.3,775.5 1015.2,773.3 1013,773.5 1012.7,767.5 1012.7,767.5 1013.2,775.6 1015.3,775.5 
	1015.2,773.3 1015.3,775.5 1017.3,775.4 1016.6,763 1008.2,763.5 1009.1,777.9 1017.5,777.5 1017.3,775.4 "/>
<rect x="923.2" y="976.6" transform="matrix(0.9983 -5.810819e-02 5.810819e-02 0.9983 -55.4809 55.4268)" class="st8" width="4.2" height="10.2"/>
<polygon class="st9" points="923,976.7 923.2,978.8 925.2,978.7 925.6,984.7 925.6,984.7 925.1,976.6 923,976.7 923.2,978.8 
	923,976.7 920.9,976.9 921.6,989.2 930.1,988.7 929.2,974.3 920.7,974.7 920.9,976.9 "/>
<rect x="923.2" y="976.6" transform="matrix(0.9983 -5.810819e-02 5.810819e-02 0.9983 -55.4809 55.4268)" class="st9" width="4.2" height="10.2"/>
<rect x="1069.8" y="917.7" transform="matrix(0.9983 -5.890692e-02 5.890692e-02 0.9983 -52.318 64.914)" class="st8" width="10.2" height="4.2"/>
<polygon class="st9" points="1069.7,922.2 1071.9,922.1 1071.7,920 1077.7,919.6 1077.7,919.6 1069.7,920.2 1069.7,922.2 
	1071.9,922.1 1069.7,922.2 1069.9,924.3 1082.2,923.6 1081.7,915.1 1067.3,916 1067.8,924.5 1069.9,924.3 "/>
<polygon class="st9" points="865.4,914.6 863.9,916.2 865.6,917.6 861.5,922.1 861.5,922.1 866.9,916 865.4,914.6 863.9,916.2 
	865.4,914.6 863.8,913.2 855.6,922.4 861.9,928.1 871.5,917.3 865.2,911.6 863.8,913.2 "/>
<rect x="858.4" y="830.2" transform="matrix(0.9983 -5.815472e-02 5.815472e-02 0.9983 -46.9403 51.6259)" class="st8" width="10.2" height="4.2"/>
<polygon class="st9" points="868.5,829.8 866.4,829.9 866.5,832.1 860.5,832.5 860.5,832.4 868.6,831.9 868.5,829.8 866.4,829.9 
	868.5,829.8 868.3,827.7 856.1,828.4 856.6,836.9 871,836 870.5,827.6 868.3,827.7 "/>
<rect x="858.5" y="830.1" transform="matrix(0.9983 -5.815472e-02 5.815472e-02 0.9983 -46.9342 51.6315)" class="st9" width="10.2" height="4.2"/>
<rect x="1069.7" y="830.1" transform="matrix(0.6643 -0.7475 0.7475 0.6643 -261.2177 1082.7842)" class="st8" width="10.2" height="4.2"/>
<polygon class="st9" points="1072.9,837.6 1074.3,836 1072.7,834.6 1076.8,830 1076.8,830.1 1071.4,836.1 1072.9,837.6 1074.3,836 
	1072.9,837.6 1074.5,838.9 1082.7,829.8 1076.4,824.1 1066.8,834.9 1073.1,840.5 1074.5,838.9 "/>
<rect x="858.5" y="917.7" transform="matrix(0.6652 -0.7467 0.7467 0.6652 -397.6486 952.8076)" class="st8" width="10.2" height="4.2"/>
<rect x="858.5" y="917.1" transform="matrix(0.6652 -0.7467 0.7467 0.6652 -397.191 952.5834)" class="st9" width="10.2" height="4.2"/>
<rect x="1010.9" y="976.6" transform="matrix(0.6643 -0.7475 0.7475 0.6643 -393.7461 1086.7756)" class="st8" width="4.2" height="10.2"/>
<polygon class="st9" points="1007.6,979.8 1009.3,981.3 1010.7,979.7 1015.2,983.7 1015.2,983.7 1009.1,978.3 1007.6,979.8 
	1009.3,981.3 1007.6,979.8 1006.3,981.5 1015.6,989.6 1021.1,983.3 1010.3,973.7 1004.7,980 1006.3,981.5 "/>
<rect x="923.3" y="765.3" transform="matrix(0.6648 -0.7471 0.7471 0.6648 -265.2845 949.6295)" class="st5" width="4.2" height="10.2"/>
<polygon class="st5" points="930.6,772.3 929,770.9 927.7,772.5 923.1,768.5 923.2,768.5 929.2,773.9 930.6,772.3 929,770.9 
	930.6,772.3 932,770.7 922.8,762.5 917.1,768.8 927.9,778.4 933.6,772.1 932,770.7 "/>
<rect x="923.3" y="765.3" transform="matrix(0.6648 -0.7471 0.7471 0.6648 -265.2845 949.6295)" class="st5" width="4.2" height="10.2"/>
<rect x="991.1" y="759.3" transform="matrix(0.9715 -0.2372 0.2372 0.9715 -152.9694 257.3841)" class="st5" width="4.2" height="10.2"/>
<polygon class="st5" points="996.3,768.8 995.9,766.8 993.8,767.2 992.4,761.4 992.4,761.4 994.3,769.3 996.3,768.8 995.9,766.8 
	996.3,768.8 998.4,768.3 995.5,756.2 987.2,758.3 990.7,772.3 998.9,770.4 998.4,768.3 "/>
<rect x="943.1" y="982.7" transform="matrix(0.9712 -0.2382 0.2382 0.9712 -208.089 253.5851)" class="st8" width="4.2" height="10.2"/>
<polygon class="st9" points="941.9,983.4 942.4,985.4 944.5,985 945.9,990.8 945.9,990.8 944,982.9 941.9,983.4 942.4,985.4 
	941.9,983.4 939.9,983.9 942.8,995.9 951,993.9 947.6,979.8 939.3,981.8 939.9,983.9 "/>
<rect x="943.1" y="982.7" transform="matrix(0.9712 -0.2382 0.2382 0.9712 -208.089 253.5851)" class="st9" width="4.2" height="10.2"/>
<rect x="1075.7" y="897.9" transform="matrix(0.9714 -0.2374 0.2374 0.9714 -182.7656 282.3169)" class="st8" width="10.2" height="4.2"/>
<polygon class="st9" points="1076.5,903.3 1078.5,902.8 1078,900.8 1083.9,899.3 1083.9,899.3 1075.9,901.3 1076.5,903.3 
	1078.5,902.8 1076.5,903.3 1076.9,905.3 1089,902.5 1086.9,894.2 1072.9,897.6 1074.9,905.9 1076.9,905.3 "/>
<rect x="852.3" y="850" transform="matrix(0.9712 -0.2382 0.2382 0.9712 -178.2911 228.7621)" class="st8" width="10.2" height="4.2"/>
<polygon class="st9" points="861.9,848.6 859.8,849.2 860.3,851.2 854.5,852.7 854.5,852.6 862.3,850.7 861.9,848.6 859.8,849.2 
	861.9,848.6 861.3,846.6 849.4,849.5 851.4,857.7 865.4,854.3 863.4,846.1 861.3,846.6 "/>
<rect x="852.3" y="849.8" transform="matrix(0.9712 -0.2382 0.2382 0.9712 -178.2402 228.7585)" class="st9" width="10.2" height="4.2"/>
<rect x="1059.9" y="812" transform="matrix(0.5184 -0.8551 0.8551 0.5184 -183.2754 1302.7443)" class="st8" width="10.2" height="4.2"/>
<polygon class="st9" points="1064.3,819.4 1065.3,817.6 1063.5,816.5 1066.7,811.4 1066.7,811.4 1062.5,818.3 1064.3,819.4 
	1065.3,817.6 1064.3,819.4 1066.1,820.6 1072.4,810 1065.2,805.6 1057.7,818 1065,822.4 1066.1,820.6 "/>
<rect x="868.1" y="936" transform="matrix(0.519 -0.8548 0.8548 0.519 -381.8676 1197.6284)" class="st8" width="10.2" height="4.2"/>
<polygon class="st9" points="874,932.7 872.9,934.5 874.7,935.6 871.6,940.8 871.6,940.7 875.8,933.8 874,932.7 872.9,934.5 
	874,932.7 872.2,931.7 865.8,942.2 873,946.6 880.6,934.2 873.3,929.9 872.2,931.7 "/>
<rect x="868.1" y="936" transform="matrix(0.519 -0.8548 0.8548 0.519 -381.8676 1197.6284)" class="st9" width="10.2" height="4.2"/>
<rect x="1029.1" y="967" transform="matrix(0.5184 -0.8551 0.8551 0.5184 -334.6582 1349.9302)" class="st8" width="4.2" height="10.2"/>
<polygon class="st9" points="1025.8,971.2 1027.6,972.3 1028.7,970.5 1033.9,973.6 1033.8,973.6 1026.9,969.4 1025.8,971.2 
	1027.6,972.3 1025.8,971.2 1024.7,973 1035.2,979.4 1039.6,972.2 1027.2,964.6 1022.9,971.9 1024.7,973 "/>
<rect x="905" y="775" transform="matrix(0.519 -0.8548 0.8548 0.519 -230.4562 1150.6083)" class="st5" width="4.2" height="10.2"/>
<polygon class="st5" points="912.5,781 910.7,779.9 909.6,781.7 904.5,778.5 904.5,778.5 911.4,782.8 912.5,781 910.7,779.9 
	912.5,781 913.6,779.2 903,772.8 898.6,780 911,787.5 915.4,780.2 913.6,779.2 "/>
<rect x="905" y="775" transform="matrix(0.519 -0.8548 0.8548 0.519 -230.4562 1150.6083)" class="st5" width="4.2" height="10.2"/>
<rect x="1028.9" y="780" transform="matrix(0.1517 -0.9884 0.9884 0.1517 104.0962 1685.4402)" class="st5" width="10.2" height="4.2"/>
<polygon class="st5" points="1035.3,787.3 1035.7,785.3 1033.5,784.9 1034.4,779 1034.5,779 1033.3,787.1 1035.3,787.3 
	1035.7,785.3 1035.3,787.3 1037.4,787.7 1039.3,775.5 1030.9,774.2 1028.8,788.5 1037.1,789.8 1037.4,787.7 "/>
<rect x="899.1" y="968.1" transform="matrix(0.1518 -0.9884 0.9884 0.1518 -192.0055 1716.6902)" class="st8" width="10.2" height="4.2"/>
<polygon class="st9" points="902.9,964.8 902.7,966.9 904.7,967.3 903.8,973.2 903.8,973.2 905,965.2 902.9,964.8 902.7,966.9 
	902.9,964.8 900.9,964.5 899,976.7 907.3,978 909.6,963.8 901.2,962.4 900.9,964.5 "/>
<rect x="899.1" y="968.1" transform="matrix(0.1518 -0.9884 0.9884 0.1518 -192.0055 1716.6902)" class="st8" width="10.2" height="4.2"/>
<rect x="1061.1" y="935.9" transform="matrix(0.1518 -0.9884 0.9884 0.1518 -28.2884 1849.0653)" class="st8" width="4.2" height="10.2"/>
<polygon class="st9" points="1057.9,942.3 1059.9,942.6 1060.3,940.5 1066.2,941.4 1066.2,941.5 1058.2,940.2 1057.9,942.3 
	1059.9,942.6 1057.9,942.3 1057.5,944.3 1069.7,946.2 1071.1,937.9 1056.8,935.7 1055.5,944.1 1057.5,944.3 "/>
<rect x="872.9" y="806.2" transform="matrix(0.1517 -0.9884 0.9884 0.1517 -59.6287 1553.0593)" class="st8" width="4.2" height="10.2"/>
<polygon class="st9" points="880.3,809.9 878.2,809.5 878,811.7 872,810.8 872,810.7 880,812 880.3,809.9 878.2,809.5 880.3,809.9 
	880.7,807.8 868.5,805.9 867.2,814.3 881.5,816.5 882.7,808.1 880.7,807.8 "/>
<rect x="872.9" y="806.2" transform="matrix(0.1517 -0.9884 0.9884 0.1517 -59.6539 1553.1082)" class="st9" width="4.2" height="10.2"/>
<rect x="1076.5" y="853.3" transform="matrix(0.8064 -0.5914 0.5914 0.8064 -296.4738 805.278)" class="st8" width="10.2" height="4.2"/>
<polygon class="st9" points="1078.7,860.1 1080.3,858.9 1079.1,857.2 1084,853.6 1084,853.7 1077.5,858.4 1078.7,860.1 
	1080.3,858.9 1078.7,860.1 1079.9,861.8 1089.9,854.6 1084.9,847.7 1073.2,856.3 1078.3,863.1 1079.9,861.8 "/>
<rect x="851.7" y="894.6" transform="matrix(0.8063 -0.5916 0.5916 0.8063 -364.4559 680.6166)" class="st8" width="10.2" height="4.2"/>
<polygon class="st9" points="859.6,891.6 857.9,892.8 859.2,894.6 854.3,898.1 854.3,898.1 860.9,893.3 859.6,891.6 857.9,892.8 
	859.6,891.6 858.4,889.9 848.5,897.2 853.4,903.9 865,895.5 860.1,888.6 858.4,889.9 "/>
<rect x="851.8" y="894.2" transform="matrix(0.8063 -0.5916 0.5916 0.8063 -364.2174 680.5405)" class="st9" width="10.2" height="4.2"/>
<rect x="987.9" y="983.4" transform="matrix(0.806 -0.592 0.592 0.806 -393.0819 777.834)" class="st8" width="4.2" height="10.2"/>
<polygon class="st9" points="985.1,985.7 986.3,987.3 988.1,986 991.6,991 991.6,991 986.8,984.4 985.1,985.7 986.3,987.3 
	985.1,985.7 983.4,986.8 990.7,996.8 997.5,991.9 988.9,980.2 982.1,985.2 983.4,986.8 "/>
<rect x="946.5" y="758.6" transform="matrix(0.8063 -0.5916 0.5916 0.8063 -268.01 709.1244)" class="st5" width="4.2" height="10.2"/>
<polygon class="st5" points="953.2,766.6 951.9,764.9 950.2,766.1 946.6,761.3 946.7,761.2 951.5,767.7 953.2,766.6 951.9,764.9 
	953.2,766.6 954.9,765.3 947.6,755.3 940.8,760.4 949.3,772 956.1,767 954.9,765.3 "/>
<rect x="946.5" y="758.6" transform="matrix(0.8063 -0.5916 0.5916 0.8063 -268.01 709.1244)" class="st5" width="4.2" height="10.2"/>
<ellipse class="st7" cx="968.7" cy="876.1" rx="107.5" ry="108.8"/>
<ellipse class="st7" cx="968.7" cy="876.1" rx="107.5" ry="108.8"/>
<ellipse class="st7" cx="970" cy="876.3" rx="107.5" ry="108.8"/>
<circle class="st2" cx="969.2" cy="872.6" r="69.2"/>
<circle class="st5" cx="968.5" cy="852" r="7.5"/>
<polygon class="st7" points="968.5,845.7 962.5,850 964.8,857 972.1,857 974.4,850 "/>
<circle class="st5" cx="992.6" cy="868.7" r="7.5"/>
<polygon class="st7" points="992.6,862.4 986.7,866.7 988.9,873.6 996.3,873.6 998.6,866.7 "/>
<circle class="st5" cx="943.6" cy="868.7" r="7.5"/>
<polygon class="st7" points="943.6,862.4 937.6,866.7 939.9,873.6 947.3,873.6 949.5,866.7 "/>
<circle class="st5" cx="984.5" cy="896" r="7.5"/>
<polygon class="st7" points="984.5,889.7 978.6,894 980.9,901 988.1,901 990.4,894 "/>
<circle class="st5" cx="953.9" cy="896" r="7.5"/>
<polygon class="st7" points="953.9,889.7 948,894 950.2,901 957.6,901 959.8,894 "/>
<circle class="st8" cx="969.2" cy="876.1" r="14.1"/>
<ellipse transform="matrix(0.9999 -1.097465e-02 1.097465e-02 0.9999 -9.5584 10.6837)" class="st5" cx="968.7" cy="876.3" rx="14.2" ry="14.2"/>
<polygon class="st7" points="968.6,864.4 957.4,872.6 961.9,885.9 975.8,885.7 980,872.4 "/>
<circle class="st5" cx="712.6" cy="852" r="7.5"/>
<polygon class="st7" points="712.6,845.7 706.7,850 709,857 716.3,857 718.5,850 "/>
<circle class="st5" cx="736.8" cy="868.7" r="7.5"/>
<polygon class="st7" points="736.8,862.4 730.8,866.7 733.1,873.6 740.5,873.6 742.7,866.7 "/>
<circle class="st5" cx="687.7" cy="868.7" r="7.5"/>
<polygon class="st7" points="687.8,862.4 681.9,866.7 684.1,873.6 691.4,873.6 693.6,866.7 "/>
<circle class="st5" cx="728.7" cy="896" r="7.5"/>
<polygon class="st7" points="728.7,889.7 722.8,894 725,901 732.4,901 734.6,894 "/>
<circle class="st5" cx="698" cy="896" r="7.5"/>
<polygon class="st7" points="698,889.7 692.1,894 694.4,901 701.7,901 704,894 "/>
<ellipse transform="matrix(0.9999 -1.097465e-02 1.097465e-02 0.9999 -9.5738 7.8765)" class="st5" cx="712.9" cy="876.3" rx="14.2" ry="14.2"/>
<polygon class="st7" points="712.8,864.4 701.6,872.6 706,885.9 720,885.7 724.2,872.4 "/>
<path class="st7" d="M680.4,700H996h-0.2c42.8-0.2,69.4,16.3,85.5,44l89.8,161.1c-4.4,5.7-37.4,3.5-43.7-10.7L1059.6,774
	c-13.8-25.6-39.3-41.3-78.7-40.5h0.2H690.7c-37.9,0-64.5,13.8-80.8,42.7l-64.3,118.2c-4,9.9-25.8,18-39.3,10.5l86.5-158.5
	C610,715.1,638.9,700,680.4,700"/>
</svg>
