<?xml version="1.0" encoding="utf-8"?>
<!-- Generator: Adobe Illustrator 21.1.0, SVG Export Plug-In . SVG Version: 6.00 Build 0)  -->
<svg version="1.1" id="Layer_1" xmlns="http://www.w3.org/2000/svg" xmlns:xlink="http://www.w3.org/1999/xlink" x="0px" y="0px"
	 viewBox="0 0 1920 1104" style="enable-background:new 0 0 1920 1104;" xml:space="preserve">
<style type="text/css">
	.st0{fill:#B3B3B3;stroke:#898989;stroke-miterlimit:10;}
	.st1{fill:#808080;stroke:#898989;stroke-miterlimit:10;}
	.st2{fill:#F3F3F3;stroke:#898989;stroke-miterlimit:10;}
	.st3{fill:none;}
	.st4{fill:#E6E6E5;}
	.st5{fill:#00A551;}
	.st6{fill:#009345;}
	.st7{fill:#D1D1D1;}
	.st8{fill:#B8B8B8;}
	.st9{fill:#FFFFFF;}
	.st10{fill:#F3F3F3;}
</style>
<g>
	<path class="st0" d="M51.5,1104c-28.1,0-51-22.9-51-51V76.5c0-28.1,22.9-51,51-51h1817c28.1,0,51,22.9,51,51V1053
		c0,28.1-22.9,51-51,51H51.5z"/>
	<path class="st1" d="M1868.5,26c27.8,0,50.5,22.7,50.5,50.5V1053c0,27.8-22.7,50.5-50.5,50.5H51.5c-27.8,0-50.5-22.7-50.5-50.5
		V76.5C1,48.7,23.7,26,51.5,26H1868.5 M1868.5,25H51.5C23.1,25,0,48.1,0,76.5V1053c0,28.4,23.1,51.5,51.5,51.5h1817
		c28.4,0,51.5-23.1,51.5-51.5V76.5C1920,48.1,1896.9,25,1868.5,25L1868.5,25z"/>
</g>
<g>
	<path class="st2" d="M52.5,1069.8c-28.1,0-51-22.7-51-50.5V51c0-27.8,22.9-50.5,51-50.5h1817c28.1,0,51,22.7,51,50.5v968.2
		c0,27.8-22.9,50.5-51,50.5H52.5V1069.8z"/>
	<path class="st1" d="M1869.5,1c27.8,0,50.5,22.5,50.5,50v968.2c0,27.5-22.7,50-50.5,50H52.5c-27.8,0-50.5-22.5-50.5-50V51
		C2,23.5,24.7,1,52.5,1H1869.5 M1869.5,0H52.5C24.1,0,1,22.9,1,51v968.2c0,28.1,23.1,51,51.5,51h1817c28.4,0,51.5-22.9,51.5-51V51
		C1921,22.9,1897.9,0,1869.5,0L1869.5,0z"/>
</g>
<line class="st3" x1="2074.7" y1="539.3" x2="2070.1" y2="513.5"/>
<path class="st4" d="M1081.3,673.5H1709l70.6-9.2h24.6h-1.5l18.4,3c19.5,0,35.3,20.5,35.3,46c55.4,13.7-121,6.3-142.5,9.2
	L1043.6,768L1081.3,673.5z"/>
<polyline class="st4" points="159.5,673.7 1493.7,673.7 1107.3,752.2 293.5,752.2 138.5,746.4 "/>
<path class="st5" d="M138.5,746.4l21-72.7L138.5,746.4z"/>
<polygon class="st6" points="138.5,746.4 140.4,746.9 161.4,674.3 157.7,673.2 136.6,745.8 140.4,746.9 138.5,746.4 140.4,746.9 
	161.4,674.3 157.7,673.2 136.6,745.8 140.4,746.9 "/>
<path class="st7" d="M581.9,636.4h351.2l-0.2,0c47.6-0.2,77.2,18.1,95.1,49l99.9,179.3c-4.9,6.3-41.6,3.9-48.6-11.9l-75.4-134
	c-15.4-28.5-43.7-45.9-87.6-45.1l0.2,0H593.3c-42.2,0-71.8,15.4-89.9,47.5l-71.6,131.5c-4.5,11-28.7,20-43.7,11.7L484.3,688
	C503.5,653.2,535.7,636.4,581.9,636.4"/>
<rect x="150.9" y="636.4" class="st8" width="1374.6" height="37.4"/>
<polyline class="st8" points="162.1,636.4 89.6,636.4 89.6,793.9 148.3,793.9 162.1,646.2 "/>
<rect x="89.6" y="440.4" class="st8" width="1435.9" height="214.7"/>
<path class="st7" d="M1779.6,664.3l-3-18.4l-79.9-31c-7.6-2.4-3.9-19.4,10-16.4l76.8,28.2c7.7,0,13,4,13,10l6.2,27.6"/>
<polygon class="st7" points="1663.4,726 1654.9,736.1 1646.8,727.1 1637,735 1630.2,728.2 1630.2,673.5 1637,666.5 1646.6,673.5 
	1654.9,665.5 1662.1,674.2 "/>
<polygon class="st7" points="1630.2,728.2 1621.9,737.6 1613.5,728.8 1603.8,737.6 1596.9,730.5 1596.9,673.5 1602.8,665.7 
	1613.3,673.5 1620.5,666.6 1630.2,673.5 "/>
<polygon class="st7" points="1696.6,723.7 1686,733.4 1679.1,724.9 1670.2,732.5 1663.4,726 1662.1,674.2 1670.4,666.6 
	1678.6,673.5 1686.3,665.5 1695.4,673.1 "/>
<ellipse class="st8" cx="616" cy="828.7" rx="122.2" ry="123.7"/>
<ellipse class="st8" cx="616" cy="828.7" rx="122.2" ry="123.7"/>
<ellipse class="st8" cx="616" cy="828.7" rx="122.2" ry="123.7"/>
<circle class="st9" cx="616" cy="828.7" r="77"/>
<rect x="897.8" y="695.9" transform="matrix(0.9 -0.4359 0.4359 0.9 -215.8125 462.5118)" class="st4" width="4.7" height="11.4"/>
<rect x="984.3" y="736.5" transform="matrix(0.3281 -0.9446 0.9446 0.3281 -32.7474 1431.6561)" class="st4" width="11.4" height="4.7"/>
<rect x="808" y="733.1" transform="matrix(0.3283 -0.9446 0.9446 0.3283 -153.5735 1261.7262)" class="st9" width="4.7" height="11.4"/>
<rect x="808" y="733.1" transform="matrix(0.3283 -0.9446 0.9446 0.3283 -153.5735 1261.7262)" class="st4" width="4.7" height="11.4"/>
<rect x="946.4" y="705.6" transform="matrix(0.9983 -5.820077e-02 5.820077e-02 0.9983 -39.7902 56.4253)" class="st4" width="4.7" height="11.4"/>
<rect x="849.2" y="705.6" transform="matrix(0.6643 -0.7475 0.7475 0.6643 -245.8133 875.3655)" class="st9" width="4.7" height="11.4"/>
<rect x="849.2" y="705.6" transform="matrix(0.6643 -0.7475 0.7475 0.6643 -245.8133 875.3655)" class="st4" width="4.7" height="11.4"/>
<rect x="924.4" y="698.8" transform="matrix(0.9713 -0.2378 0.2378 0.9713 -140.9233 240.5724)" class="st4" width="4.7" height="11.4"/>
<rect x="828.8" y="716.3" transform="matrix(0.5185 -0.8551 0.8551 0.5185 -217.1925 1058.3462)" class="st9" width="4.7" height="11.4"/>
<rect x="828.8" y="716.3" transform="matrix(0.5185 -0.8551 0.8551 0.5185 -217.1925 1058.3462)" class="st4" width="4.7" height="11.4"/>
<rect x="966.6" y="721.7" transform="matrix(0.1519 -0.9884 0.9884 0.1519 108.878 1575.0461)" class="st4" width="11.4" height="4.7"/>
<rect x="874.9" y="698" transform="matrix(0.8064 -0.5914 0.5914 0.8064 -246.3498 655.0922)" class="st9" width="4.7" height="11.4"/>
<rect x="874.9" y="698" transform="matrix(0.8064 -0.5914 0.5914 0.8064 -246.3498 655.0922)" class="st4" width="4.7" height="11.4"/>
<circle class="st7" cx="617.1" cy="832.6" r="127.5"/>
<rect x="615" y="699.5" transform="matrix(0.9 -0.4359 0.4359 0.9 -245.6327 339.5932)" class="st4" width="4.7" height="11.4"/>
<polygon class="st4" points="621.9,709.3 620.9,707.2 618.8,708.2 615.9,702.1 615.9,702.1 619.8,710.3 621.9,709.3 620.9,707.2 
	621.9,709.3 624.1,708.2 618.1,695.9 609.6,700 616.6,714.5 625.1,710.4 624.1,708.2 "/>
<rect x="615" y="953.9" transform="matrix(0.9 -0.4359 0.4359 0.9 -356.5208 365.0318)" class="st9" width="4.7" height="11.4"/>
<polygon class="st10" points="612.7,955.5 613.7,957.6 615.9,956.5 618.8,962.6 618.8,962.6 614.8,954.4 612.7,955.5 613.7,957.6 
	612.7,955.5 610.6,956.5 616.6,968.9 625.1,964.8 618.1,950.3 609.6,954.4 610.6,956.5 "/>
<rect x="615" y="953.9" transform="matrix(0.9 -0.4359 0.4359 0.9 -356.5208 365.0318)" class="st9" width="4.7" height="11.4"/>
<rect x="738.8" y="830" transform="matrix(0.9 -0.4359 0.4359 0.9 -288.3574 407.7565)" class="st9" width="11.4" height="4.7"/>
<polygon class="st10" points="740.4,837 742.5,836 741.5,833.8 747.6,830.9 747.6,830.9 739.4,834.9 740.4,837 742.5,836 740.4,837 
	741.5,839.1 753.8,833.1 749.7,824.6 735.2,831.6 739.3,840.1 741.5,839.1 "/>
<rect x="484.4" y="830" transform="matrix(0.9 -0.4359 0.4359 0.9 -313.7961 296.8684)" class="st9" width="11.4" height="4.7"/>
<polygon class="st10" points="494.2,827.7 492.1,828.8 493.2,830.9 487.1,833.8 487.1,833.8 495.3,829.9 494.2,827.7 492.1,828.8 
	494.2,827.7 493.2,825.6 480.8,831.6 484.9,840.1 499.4,833.1 495.3,824.6 493.2,825.6 "/>
<rect x="484.4" y="830" transform="matrix(0.9 -0.4359 0.4359 0.9 -313.7961 296.8684)" class="st10" width="11.4" height="4.7"/>
<rect x="701.6" y="740.1" transform="matrix(0.3286 -0.9445 0.9445 0.3286 -226.3004 1166.5065)" class="st4" width="11.4" height="4.7"/>
<polygon class="st4" points="707.6,748.6 708.4,746.4 706.2,745.6 708.4,739.2 708.4,739.2 705.4,747.8 707.6,748.6 708.4,746.4 
	707.6,748.6 709.8,749.3 714.4,736.4 705.5,733.3 700.2,748.5 709.1,751.6 709.8,749.3 "/>
<rect x="521.7" y="919.9" transform="matrix(0.3286 -0.9445 0.9445 0.3286 -516.9881 1117.3909)" class="st9" width="11.4" height="4.7"/>
<polygon class="st10" points="527,916.1 526.3,918.4 528.5,919.1 526.3,925.5 526.3,925.5 529.2,916.9 527,916.1 526.3,918.4 
	527,916.1 524.8,915.4 520.3,928.4 529.2,931.5 534.5,916.2 525.6,913.2 524.8,915.4 "/>
<rect x="521.7" y="919.9" transform="matrix(0.3286 -0.9445 0.9445 0.3286 -516.9881 1117.3909)" class="st10" width="11.4" height="4.7"/>
<rect x="704.9" y="916.6" transform="matrix(0.3283 -0.9446 0.9446 0.3283 -396.1054 1287.5858)" class="st9" width="4.7" height="11.4"/>
<polygon class="st10" points="701.1,922.7 703.3,923.4 704.1,921.2 710.5,923.4 710.4,923.4 701.9,920.5 701.1,922.7 703.3,923.4 
	701.1,922.7 700.3,924.9 713.3,929.4 716.4,920.5 701.2,915.2 698.1,924.1 700.3,924.9 "/>
<rect x="525" y="736.7" transform="matrix(0.3286 -0.9445 0.9445 0.3286 -347.0864 996.6041)" class="st4" width="4.7" height="11.4"/>
<polygon class="st4" points="533.6,742.1 531.3,741.3 530.6,743.5 524.2,741.3 524.2,741.3 532.8,744.3 533.6,742.1 531.3,741.3 
	533.6,742.1 534.3,739.8 521.3,735.3 518.2,744.2 533.4,749.5 536.5,740.6 534.3,739.8 "/>
<rect x="525" y="736.7" transform="matrix(0.3286 -0.9445 0.9445 0.3286 -347.0864 996.6041)" class="st4" width="4.7" height="11.4"/>
<rect x="663.6" y="709.1" transform="matrix(0.9983 -5.891125e-02 5.891125e-02 0.9983 -40.9548 40.4754)" class="st4" width="4.7" height="11.4"/>
<polygon class="st4" points="668.7,720.4 668.5,718 666.2,718.2 665.8,711.5 665.8,711.5 666.3,720.5 668.7,720.4 668.5,718 
	668.7,720.4 671,720.2 670.2,706.5 660.8,707.1 661.8,723.1 671.2,722.6 671,720.2 "/>
<rect x="566.3" y="944.2" transform="matrix(0.9983 -5.810699e-02 5.810699e-02 0.9983 -54.2343 34.6494)" class="st9" width="4.7" height="11.4"/>
<polygon class="st10" points="566,944.3 566.1,946.7 568.5,946.5 568.9,953.2 568.9,953.2 568.3,944.2 566,944.3 566.1,946.7 
	566,944.3 563.6,944.5 564.5,958.2 573.9,957.7 572.9,941.6 563.5,942.1 563.6,944.5 "/>
<rect x="566.3" y="944.2" transform="matrix(0.9983 -5.810699e-02 5.810699e-02 0.9983 -54.2343 34.6494)" class="st10" width="4.7" height="11.4"/>
<rect x="729.2" y="878.6" transform="matrix(0.9983 -5.810699e-02 5.810699e-02 0.9983 -49.9512 44.1893)" class="st9" width="11.4" height="4.7"/>
<polygon class="st10" points="729.3,883.7 731.6,883.6 731.5,881.2 738.2,880.8 738.2,880.8 729.2,881.4 729.3,883.7 731.6,883.6 
	729.3,883.7 729.4,886 743.2,885.2 742.6,875.8 726.6,876.8 727.1,886.2 729.4,886 "/>
<rect x="494.1" y="781.3" transform="matrix(0.9983 -5.815384e-02 5.815384e-02 0.9983 -44.7299 30.3918)" class="st9" width="11.4" height="4.7"/>
<polygon class="st10" points="505.4,781 503,781.2 503.2,783.5 496.4,783.9 496.4,783.9 505.5,783.4 505.4,781 503,781.2 505.4,781 
	505.2,778.7 491.5,779.5 492,788.9 508.1,787.9 507.6,778.5 505.2,778.7 "/>
<rect x="494.1" y="781.3" transform="matrix(0.9983 -5.815384e-02 5.815384e-02 0.9983 -44.7299 30.3918)" class="st10" width="11.4" height="4.7"/>
<rect x="729.1" y="781.3" transform="matrix(0.6643 -0.7475 0.7475 0.6643 -339.0699 812.3215)" class="st9" width="11.4" height="4.7"/>
<polygon class="st10" points="732.8,789.5 734.4,787.7 732.6,786.2 737.1,781.1 737.1,781.2 731.1,787.9 732.8,789.5 734.4,787.7 
	732.8,789.5 734.6,791 743.7,780.8 736.7,774.5 726,786.5 733,792.8 734.6,791 "/>
<rect x="494.1" y="878.7" transform="matrix(0.6648 -0.7471 0.7471 0.6648 -490.6425 668.761)" class="st9" width="11.4" height="4.7"/>
<polygon class="st10" points="501.9,875.2 500.3,877 502.1,878.6 497.6,883.6 497.6,883.6 503.6,876.8 501.9,875.2 500.3,877 
	501.9,875.2 500.1,873.7 491,883.9 498,890.2 508.7,878.2 501.7,871.9 500.1,873.7 "/>
<rect x="494.1" y="878.7" transform="matrix(0.6648 -0.7471 0.7471 0.6648 -490.6425 668.761)" class="st10" width="11.4" height="4.7"/>
<rect x="663.7" y="944.2" transform="matrix(0.6643 -0.7475 0.7475 0.6643 -486.4013 816.6891)" class="st9" width="4.7" height="11.4"/>
<polygon class="st10" points="660.2,947.8 662,949.4 663.5,947.6 668.6,952.1 668.5,952.1 661.8,946.1 660.2,947.8 662,949.4 
	660.2,947.8 658.6,949.6 668.9,958.7 675.2,951.7 663.1,941 656.9,948 658.6,949.6 "/>
<rect x="566.3" y="709.1" transform="matrix(0.6643 -0.7475 0.7475 0.6643 -343.4382 664.9905)" class="st4" width="4.7" height="11.4"/>
<polygon class="st4" points="574.5,716.9 572.7,715.3 571.1,717.1 566.1,712.6 566.1,712.6 572.9,718.6 574.5,716.9 572.7,715.3 
	574.5,716.9 576,715.1 565.7,706 559.5,713 571.5,723.7 577.8,716.7 576,715.1 "/>
<rect x="566.3" y="709.1" transform="matrix(0.6643 -0.7475 0.7475 0.6643 -343.4382 664.9905)" class="st4" width="4.7" height="11.4"/>
<rect x="641.6" y="702.3" transform="matrix(0.9714 -0.2374 0.2374 0.9714 -149.6655 173.1195)" class="st4" width="4.7" height="11.4"/>
<polygon class="st4" points="647.6,713 647.1,710.7 644.7,711.2 643.2,704.7 643.2,704.7 645.3,713.5 647.6,713 647.1,710.7 
	647.6,713 649.9,712.4 646.6,699 637.5,701.3 641.3,716.9 650.5,714.7 649.9,712.4 "/>
<rect x="588.3" y="951" transform="matrix(0.9712 -0.2382 0.2382 0.9712 -210.864 168.2136)" class="st9" width="4.7" height="11.4"/>
<polygon class="st10" points="587,951.8 587.6,954 589.9,953.5 591.5,960 591.5,960 589.3,951.2 587,951.8 587.6,954 587,951.8 
	584.8,952.3 588,965.7 597.2,963.4 593.4,947.8 584.2,950 584.8,952.3 "/>
<rect x="588.3" y="951" transform="matrix(0.9712 -0.2382 0.2382 0.9712 -210.864 168.2136)" class="st10" width="4.7" height="11.4"/>
<rect x="736" y="856.6" transform="matrix(0.9714 -0.2374 0.2374 0.9714 -182.7224 200.642)" class="st9" width="11.4" height="4.7"/>
<polygon class="st10" points="736.7,862.6 739,862.1 738.4,859.8 745,858.2 745,858.2 736.2,860.4 736.7,862.6 739,862.1 
	736.7,862.6 737.3,864.9 750.7,861.7 748.4,852.5 732.8,856.3 735,865.5 737.3,864.9 "/>
<rect x="487.2" y="803.4" transform="matrix(0.9714 -0.2374 0.2374 0.9714 -177.1882 140.0626)" class="st9" width="11.4" height="4.7"/>
<polygon class="st10" points="497.9,802.1 495.7,802.6 496.2,804.9 489.7,806.5 489.7,806.5 498.5,804.4 497.9,802.1 495.7,802.6 
	497.9,802.1 497.4,799.8 484,803.1 486.3,812.2 501.9,808.4 499.7,799.2 497.4,799.8 "/>
<rect x="487.2" y="803.4" transform="matrix(0.9714 -0.2374 0.2374 0.9714 -177.1882 140.0626)" class="st10" width="11.4" height="4.7"/>
<rect x="718.4" y="760.9" transform="matrix(0.5184 -0.8551 0.8551 0.5184 -303.9451 986.7861)" class="st9" width="11.4" height="4.7"/>
<polygon class="st10" points="723.2,769.3 724.4,767.3 722.4,766.1 725.8,760.4 725.9,760.4 721.2,768.1 723.2,769.3 724.4,767.3 
	723.2,769.3 725.2,770.6 732.3,758.8 724.3,753.9 715.9,767.7 724,772.6 725.2,770.6 "/>
<rect x="504.8" y="899.1" transform="matrix(0.519 -0.8548 0.8548 0.519 -524.9853 870.0168)" class="st9" width="11.4" height="4.7"/>
<polygon class="st10" points="511.5,895.4 510.3,897.4 512.3,898.6 508.8,904.4 508.8,904.3 513.5,896.6 511.5,895.4 510.3,897.4 
	511.5,895.4 509.5,894.2 502.4,905.9 510.4,910.8 518.7,897 510.7,892.2 509.5,894.2 "/>
<rect x="504.8" y="899.1" transform="matrix(0.519 -0.8548 0.8548 0.519 -524.9853 870.0168)" class="st10" width="11.4" height="4.7"/>
<rect x="684.1" y="933.4" transform="matrix(0.519 -0.8548 0.8548 0.519 -472.5728 1038.4902)" class="st9" width="4.7" height="11.4"/>
<polygon class="st10" points="680.3,938.2 682.4,939.4 683.6,937.4 689.3,940.9 689.3,940.9 681.6,936.2 680.3,938.2 682.4,939.4 
	680.3,938.2 679.1,940.2 690.9,947.3 695.8,939.3 682,930.9 677.1,939 679.1,940.2 "/>
<rect x="545.9" y="719.9" transform="matrix(0.519 -0.8548 0.8548 0.519 -356.5115 817.6031)" class="st4" width="4.7" height="11.4"/>
<polygon class="st4" points="554.3,726.5 552.3,725.3 551.1,727.3 545.3,723.8 545.4,723.8 553.1,728.5 554.3,726.5 552.3,725.3 
	554.3,726.5 555.5,724.5 543.8,717.4 538.9,725.4 552.7,733.8 557.5,725.7 555.5,724.5 "/>
<rect x="545.9" y="719.9" transform="matrix(0.519 -0.8548 0.8548 0.519 -356.5115 817.6031)" class="st4" width="4.7" height="11.4"/>
<rect x="683.8" y="725.3" transform="matrix(0.1518 -0.9884 0.9884 0.1518 -134.352 1298.6813)" class="st4" width="11.4" height="4.7"/>
<polygon class="st4" points="691,733.6 691.3,731.3 689,730.9 690,724.3 690,724.3 688.7,733.3 691,733.6 691.3,731.3 691,733.6 
	693.3,734 695.4,720.4 686.1,719 683.6,734.9 692.9,736.3 693.3,734 "/>
<rect x="539.4" y="934.7" transform="matrix(0.1518 -0.9884 0.9884 0.1518 -463.8452 1333.6654)" class="st9" width="11.4" height="4.7"/>
<polygon class="st10" points="543.7,931.1 543.3,933.4 545.7,933.8 544.7,940.4 544.6,940.4 546,931.5 543.7,931.1 543.3,933.4 
	543.7,931.1 541.4,930.7 539.3,944.3 548.6,945.8 551,929.9 541.7,928.4 541.4,930.7 "/>
<rect x="539.4" y="934.7" transform="matrix(0.1518 -0.9884 0.9884 0.1518 -463.8452 1333.6654)" class="st10" width="11.4" height="4.7"/>
<rect x="719.7" y="898.8" transform="matrix(0.1518 -0.9884 0.9884 0.1518 -281.6047 1480.9202)" class="st9" width="4.7" height="11.4"/>
<polygon class="st10" points="716.1,906 718.4,906.4 718.8,904 725.4,905 725.4,905.1 716.4,903.7 716.1,906 718.4,906.4 716.1,906 
	715.7,908.3 729.3,910.4 730.7,901.1 714.8,898.7 713.4,908 715.7,908.3 "/>
<rect x="510.2" y="754.5" transform="matrix(0.1517 -0.9884 0.9884 0.1517 -316.5435 1151.5273)" class="st9" width="4.7" height="11.4"/>
<polygon class="st10" points="518.6,758.7 516.3,758.4 515.9,760.7 509.3,759.7 509.3,759.6 518.2,761 518.6,758.7 516.3,758.4 
	518.6,758.7 518.9,756.4 505.4,754.3 503.9,763.6 519.8,766.1 521.3,756.7 518.9,756.4 "/>
<rect x="510.2" y="754.5" transform="matrix(0.1517 -0.9884 0.9884 0.1517 -316.5435 1151.5273)" class="st10" width="4.7" height="11.4"/>
<rect x="736.7" y="807" transform="matrix(0.806 -0.592 0.592 0.806 -335.039 596.5276)" class="st9" width="11.4" height="4.7"/>
<polygon class="st10" points="739.2,814.6 741.1,813.2 739.7,811.3 745.1,807.3 745.2,807.4 737.8,812.7 739.2,814.6 741.1,813.2 
	739.2,814.6 740.6,816.5 751.7,808.4 746.1,800.8 733.2,810.3 738.7,817.9 740.6,816.5 "/>
<rect x="486.5" y="853" transform="matrix(0.8063 -0.5916 0.5916 0.8063 -410.6508 456.9208)" class="st9" width="11.4" height="4.7"/>
<polygon class="st10" points="495.4,850.1 493.5,851.5 495,853.4 489.5,857.4 489.5,857.4 496.8,852 495.4,850.1 493.5,851.5 
	495.4,850.1 494,848.2 483,856.3 488.5,863.9 501.5,854.4 495.9,846.8 494,848.2 "/>
<rect x="486.5" y="853" transform="matrix(0.8063 -0.5916 0.5916 0.8063 -410.6508 456.9208)" class="st10" width="11.4" height="4.7"/>
<rect x="638" y="951.8" transform="matrix(0.8063 -0.5916 0.5916 0.8063 -442.3397 564.3239)" class="st9" width="4.7" height="11.4"/>
<polygon class="st10" points="635.1,954.3 636.5,956.1 638.4,954.7 642.4,960.2 642.3,960.2 637,952.9 635.1,954.3 636.5,956.1 
	635.1,954.3 633.2,955.6 641.3,966.7 648.9,961.2 639.4,948.2 631.8,953.8 633.2,955.6 "/>
<rect x="591.9" y="701.6" transform="matrix(0.8063 -0.5916 0.5916 0.8063 -303.2483 488.6099)" class="st4" width="4.7" height="11.4"/>
<polygon class="st4" points="599.6,710.5 598.2,708.6 596.3,710 592.3,704.6 592.3,704.5 597.7,711.8 599.6,710.5 598.2,708.6 
	599.6,710.5 601.5,709.1 593.3,698 585.8,703.5 595.3,716.5 602.9,711 601.5,709.1 "/>
<rect x="591.9" y="701.6" transform="matrix(0.8063 -0.5916 0.5916 0.8063 -303.2483 488.6099)" class="st4" width="4.7" height="11.4"/>
<circle class="st9" cx="617.3" cy="832.4" r="77"/>
<ellipse class="st8" cx="901.8" cy="828.7" rx="122.2" ry="123.7"/>
<ellipse class="st8" cx="901.8" cy="828.7" rx="122.2" ry="123.7"/>
<ellipse class="st8" cx="901.8" cy="828.7" rx="122.2" ry="123.7"/>
<circle class="st9" cx="901.8" cy="828.7" r="77"/>
<rect x="1093.9" y="733.2" transform="matrix(0.3283 -0.9446 0.9446 0.3283 38.4079 1531.7085)" class="st9" width="4.7" height="11.4"/>
<rect x="1093.9" y="733.2" transform="matrix(0.3283 -0.9446 0.9446 0.3283 38.4079 1531.7085)" class="st4" width="4.7" height="11.4"/>
<circle class="st7" cx="903" cy="832.6" r="127.5"/>
<rect x="900.8" y="699.5" transform="matrix(0.8999 -0.4362 0.4362 0.8999 -217.1363 464.5739)" class="st4" width="4.7" height="11.4"/>
<polygon class="st4" points="907.8,709.3 906.8,707.2 904.6,708.2 901.7,702.1 901.7,702.1 905.7,710.3 907.8,709.3 906.8,707.2 
	907.8,709.3 909.9,708.2 903.9,695.9 895.4,700 902.4,714.5 910.9,710.3 909.9,708.2 "/>
<rect x="900.8" y="953.9" transform="matrix(0.9 -0.4359 0.4359 0.9 -327.9396 489.6182)" class="st9" width="4.7" height="11.4"/>
<polygon class="st10" points="898.5,955.5 899.6,957.6 901.7,956.5 904.6,962.6 904.6,962.6 900.7,954.4 898.5,955.5 899.6,957.6 
	898.5,955.5 896.4,956.5 902.4,968.9 910.9,964.8 903.9,950.3 895.4,954.4 896.4,956.5 "/>
<rect x="900.8" y="953.9" transform="matrix(0.9 -0.4359 0.4359 0.9 -327.9396 489.6182)" class="st10" width="4.7" height="11.4"/>
<rect x="1024.7" y="830" transform="matrix(0.9003 -0.4352 0.4352 0.9003 -259.5579 531.4054)" class="st9" width="11.4" height="4.7"/>
<polygon class="st10" points="1026.3,837 1028.4,836 1027.3,833.8 1033.4,830.9 1033.4,830.9 1025.2,834.9 1026.3,837 1028.4,836 
	1026.3,837 1027.3,839.1 1039.7,833.1 1035.6,824.6 1021.1,831.6 1025.2,840.1 1027.3,839.1 "/>
<rect x="770.3" y="830" transform="matrix(0.9 -0.4359 0.4359 0.9 -285.2148 421.4552)" class="st9" width="11.4" height="4.7"/>
<polygon class="st10" points="780.1,827.3 778,828.4 779,830.5 773,833.4 773,833.4 781.1,829.4 780.1,827.3 778,828.4 780.1,827.3 
	779.1,825.2 766.8,831.2 770.9,839.6 785.3,832.7 781.2,824.2 779.1,825.2 "/>
<rect x="770.3" y="829.6" transform="matrix(0.9 -0.4359 0.4359 0.9 -285.024 421.4387)" class="st10" width="11.3" height="4.7"/>
<rect x="987.4" y="740.1" transform="matrix(0.3286 -0.9445 0.9445 0.3286 -34.3805 1436.4688)" class="st4" width="11.4" height="4.7"/>
<polygon class="st4" points="993.5,748.6 994.2,746.4 992,745.6 994.2,739.2 994.2,739.2 991.3,747.8 993.5,748.6 994.2,746.4 
	993.5,748.6 995.7,749.3 1000.2,736.4 991.3,733.3 986,748.5 994.9,751.6 995.7,749.3 "/>
<rect x="807.5" y="919.9" transform="matrix(0.3286 -0.9445 0.9445 0.3286 -325.0701 1387.3505)" class="st9" width="11.4" height="4.7"/>
<polygon class="st10" points="812.9,916.1 812.1,918.4 814.3,919.1 812.1,925.5 812.1,925.5 815.1,916.9 812.9,916.1 812.1,918.4 
	812.9,916.1 810.6,915.4 806.1,928.4 815,931.4 820.3,916.2 811.4,913.2 810.6,915.4 "/>
<rect x="807.5" y="919.9" transform="matrix(0.3286 -0.9445 0.9445 0.3286 -325.0701 1387.3505)" class="st10" width="11.4" height="4.7"/>
<rect x="990.7" y="916.6" transform="matrix(0.3276 -0.9448 0.9448 0.3276 -203.6307 1558.4834)" class="st9" width="4.7" height="11.4"/>
<polygon class="st10" points="986.9,922.7 989.2,923.4 989.9,921.2 996.3,923.4 996.3,923.4 987.7,920.5 986.9,922.7 989.2,923.4 
	986.9,922.7 986.2,924.9 999.2,929.4 1002.3,920.5 987,915.2 984,924.1 986.2,924.9 "/>
<rect x="810.9" y="736.7" transform="matrix(0.3286 -0.9445 0.9445 0.3286 -155.1671 1266.5654)" class="st4" width="4.7" height="11.4"/>
<polygon class="st4" points="819.4,742.1 817.2,741.3 816.4,743.5 810,741.3 810,741.3 818.6,744.3 819.4,742.1 817.2,741.3 
	819.4,742.1 820.2,739.8 807.2,735.3 804.1,744.2 819.3,749.5 822.4,740.6 820.2,739.8 "/>
<rect x="810.9" y="736.7" transform="matrix(0.3286 -0.9445 0.9445 0.3286 -155.1671 1266.5654)" class="st4" width="4.7" height="11.4"/>
<rect x="949.5" y="709.1" transform="matrix(0.9983 -5.895875e-02 5.895875e-02 0.9983 -40.4897 57.3612)" class="st4" width="4.7" height="11.4"/>
<polygon class="st4" points="954.5,720.4 954.4,718 952,718.2 951.6,711.5 951.6,711.5 952.2,720.5 954.5,720.4 954.4,718 
	954.5,720.4 956.8,720.3 956,706.5 946.6,707.1 947.6,723.1 957,722.6 956.8,720.3 "/>
<rect x="852.1" y="944.2" transform="matrix(0.9983 -5.810699e-02 5.810699e-02 0.9983 -53.7514 51.2581)" class="st9" width="4.7" height="11.4"/>
<polygon class="st10" points="851.8,944.3 852,946.7 854.3,946.5 854.7,953.2 854.7,953.2 854.2,944.2 851.8,944.3 852,946.7 
	851.8,944.3 849.5,944.5 850.3,958.2 859.7,957.7 858.7,941.6 849.3,942.1 849.5,944.5 "/>
<rect x="852.1" y="944.2" transform="matrix(0.9983 -5.810699e-02 5.810699e-02 0.9983 -53.7514 51.2581)" class="st10" width="4.7" height="11.4"/>
<rect x="1015" y="878.6" transform="matrix(0.9983 -5.891125e-02 5.891125e-02 0.9983 -50.1287 61.6603)" class="st9" width="11.4" height="4.7"/>
<polygon class="st10" points="1015.1,883.7 1017.5,883.6 1017.3,881.2 1024,880.8 1024,880.8 1015,881.4 1015.1,883.7 1017.5,883.6 
	1015.1,883.7 1015.3,886 1029,885.2 1028.4,875.8 1012.4,876.8 1012.9,886.2 1015.3,886 "/>
<rect x="779.9" y="781.3" transform="matrix(0.9983 -5.815384e-02 5.815384e-02 0.9983 -44.2461 47.0139)" class="st9" width="11.4" height="4.7"/>
<polygon class="st10" points="791.2,780.9 788.8,781 789,783.4 782.3,783.8 782.3,783.7 791.3,783.2 791.2,780.9 788.8,781 
	791.2,780.9 791,778.5 777.4,779.3 777.9,788.7 793.9,787.8 793.4,778.4 791,778.5 "/>
<rect x="780" y="781.2" transform="matrix(0.9983 -5.815384e-02 5.815384e-02 0.9983 -44.2368 47.014)" class="st10" width="11.3" height="4.7"/>
<rect x="1015" y="781.3" transform="matrix(0.6643 -0.7475 0.7475 0.6643 -243.1211 1025.9655)" class="st9" width="11.4" height="4.7"/>
<polygon class="st10" points="1018.6,789.5 1020.2,787.7 1018.4,786.2 1022.9,781.1 1022.9,781.2 1016.9,787.9 1018.6,789.5 
	1020.2,787.7 1018.6,789.5 1020.4,791 1029.5,780.8 1022.5,774.5 1011.8,786.5 1018.8,792.8 1020.4,791 "/>
<rect x="780" y="878.7" transform="matrix(0.6652 -0.7467 0.7467 0.6652 -394.8229 881.6569)" class="st9" width="11.4" height="4.7"/>
<polygon class="st10" points="787.7,875.2 786.1,877 787.9,878.6 783.4,883.6 783.4,883.6 789.4,876.8 787.7,875.2 786.1,877 
	787.7,875.2 785.9,873.7 776.8,883.9 783.8,890.2 794.5,878.2 787.5,871.9 785.9,873.7 "/>
<rect x="780" y="878" transform="matrix(0.6652 -0.7467 0.7467 0.6652 -394.3064 881.4313)" class="st10" width="11.3" height="4.7"/>
<rect x="949.5" y="944.2" transform="matrix(0.6643 -0.7475 0.7475 0.6643 -390.4522 1030.3337)" class="st9" width="4.7" height="11.4"/>
<polygon class="st10" points="946,947.8 947.8,949.4 949.4,947.6 954.4,952.1 954.4,952.1 947.6,946.1 946,947.8 947.8,949.4 
	946,947.8 944.5,949.6 954.8,958.7 961,951.7 949,941 942.7,948 944.5,949.6 "/>
<rect x="852.1" y="709.1" transform="matrix(0.6648 -0.7471 0.7471 0.6648 -247.5883 877.9691)" class="st4" width="4.7" height="11.4"/>
<polygon class="st4" points="860.3,716.9 858.5,715.3 857,717.1 851.9,712.6 852,712.6 858.7,718.6 860.3,716.9 858.5,715.3 
	860.3,716.9 861.8,715.1 851.6,706 845.3,713 857.3,723.7 863.6,716.7 861.8,715.1 "/>
<rect x="852.1" y="709.1" transform="matrix(0.6648 -0.7471 0.7471 0.6648 -247.5883 877.9691)" class="st4" width="4.7" height="11.4"/>
<rect x="927.4" y="702.3" transform="matrix(0.9715 -0.2372 0.2372 0.9715 -141.4046 240.7705)" class="st4" width="4.7" height="11.4"/>
<polygon class="st4" points="933.4,713 932.9,710.7 930.6,711.2 929,704.7 929,704.7 931.2,713.5 933.4,713 932.9,710.7 933.4,713 
	935.7,712.4 932.5,699 923.3,701.3 927.1,716.9 936.3,714.7 935.7,712.4 "/>
<rect x="874.2" y="951" transform="matrix(0.9712 -0.2382 0.2382 0.9712 -202.6393 236.288)" class="st9" width="4.7" height="11.4"/>
<polygon class="st10" points="872.9,951.8 873.4,954 875.7,953.5 877.3,960 877.3,960 875.2,951.2 872.9,951.8 873.4,954 
	872.9,951.8 870.6,952.3 873.9,965.7 883,963.4 879.2,947.8 870,950 870.6,952.3 "/>
<rect x="874.2" y="951" transform="matrix(0.9712 -0.2382 0.2382 0.9712 -202.6393 236.288)" class="st10" width="4.7" height="11.4"/>
<rect x="1021.8" y="856.6" transform="matrix(0.9714 -0.2374 0.2374 0.9714 -174.5509 268.4987)" class="st9" width="11.4" height="4.7"/>
<polygon class="st10" points="1022.6,862.6 1024.8,862.1 1024.3,859.8 1030.8,858.2 1030.8,858.2 1022,860.4 1022.6,862.6 
	1024.8,862.1 1022.6,862.6 1023.1,864.9 1036.5,861.7 1034.2,852.5 1018.6,856.3 1020.8,865.5 1023.1,864.9 "/>
<rect x="773.1" y="803.4" transform="matrix(0.9712 -0.2382 0.2382 0.9712 -169.4854 208.6623)" class="st9" width="11.4" height="4.7"/>
<polygon class="st10" points="783.8,801.8 781.5,802.4 782.1,804.7 775.6,806.3 775.6,806.2 784.3,804.1 783.8,801.8 781.5,802.4 
	783.8,801.8 783.2,799.5 769.9,802.8 772.2,811.9 787.7,808.1 785.5,799 783.2,799.5 "/>
<rect x="773.1" y="803.1" transform="matrix(0.9712 -0.2382 0.2382 0.9712 -169.4176 208.6648)" class="st10" width="11.3" height="4.7"/>
<rect x="1004.2" y="760.9" transform="matrix(0.5184 -0.8551 0.8551 0.5184 -166.2929 1231.207)" class="st9" width="11.4" height="4.7"/>
<polygon class="st10" points="1009,769.3 1010.2,767.3 1008.2,766.1 1011.7,760.4 1011.7,760.4 1007,768.1 1009,769.3 1010.2,767.3 
	1009,769.3 1011,770.6 1018.1,758.8 1010.1,753.9 1001.7,767.7 1009.8,772.6 1011,770.6 "/>
<rect x="790.7" y="899.1" transform="matrix(0.519 -0.8548 0.8548 0.519 -387.5018 1114.3353)" class="st9" width="11.4" height="4.7"/>
<polygon class="st10" points="797.3,895.4 796.1,897.4 798.1,898.6 794.6,904.4 794.6,904.3 799.3,896.6 797.3,895.4 796.1,897.4 
	797.3,895.4 795.3,894.2 788.2,905.9 796.2,910.8 804.6,897 796.5,892.2 795.3,894.2 "/>
<rect x="790.7" y="899.1" transform="matrix(0.519 -0.8548 0.8548 0.519 -387.5018 1114.3353)" class="st10" width="11.4" height="4.7"/>
<rect x="969.9" y="933.4" transform="matrix(0.5184 -0.8551 0.8551 0.5184 -334.8514 1283.7118)" class="st9" width="4.7" height="11.4"/>
<polygon class="st10" points="966.2,938.2 968.2,939.4 969.4,937.4 975.2,940.9 975.1,940.9 967.4,936.2 966.2,938.2 968.2,939.4 
	966.2,938.2 965,940.2 976.7,947.3 981.6,939.3 967.8,930.9 963,939 965,940.2 "/>
<rect x="831.7" y="719.9" transform="matrix(0.519 -0.8548 0.8548 0.519 -219.0276 1061.9225)" class="st4" width="4.7" height="11.4"/>
<polygon class="st4" points="840.1,726.5 838.1,725.3 836.9,727.3 831.2,723.8 831.2,723.8 838.9,728.5 840.1,726.5 838.1,725.3 
	840.1,726.5 841.4,724.5 829.6,717.4 824.7,725.4 838.5,733.8 843.4,725.7 841.4,724.5 "/>
<rect x="831.7" y="719.9" transform="matrix(0.519 -0.8548 0.8548 0.519 -219.0276 1061.9225)" class="st4" width="4.7" height="11.4"/>
<rect x="969.6" y="725.3" transform="matrix(0.1517 -0.9884 0.9884 0.1517 108.1885 1581.3033)" class="st4" width="11.4" height="4.7"/>
<polygon class="st4" points="976.8,733.6 977.2,731.3 974.8,730.9 975.8,724.3 975.9,724.3 974.5,733.3 976.8,733.6 977.2,731.3 
	976.8,733.6 979.1,734 981.2,720.4 971.9,719 969.5,734.9 978.8,736.3 979.1,734 "/>
<rect x="825.3" y="934.7" transform="matrix(0.1518 -0.9884 0.9884 0.1518 -221.4093 1616.1813)" class="st9" width="11.4" height="4.7"/>
<polygon class="st10" points="829.5,931.1 829.2,933.4 831.5,933.8 830.5,940.4 830.5,940.4 831.8,931.5 829.5,931.1 829.2,933.4 
	829.5,931.1 827.2,930.7 825.1,944.3 834.4,945.8 836.9,929.9 827.6,928.4 827.2,930.7 "/>
<rect x="825.3" y="934.7" transform="matrix(0.1518 -0.9884 0.9884 0.1518 -221.4093 1616.1813)" class="st9" width="11.4" height="4.7"/>
<rect x="1005.5" y="898.8" transform="matrix(0.1518 -0.9884 0.9884 0.1518 -39.1696 1763.4351)" class="st9" width="4.7" height="11.4"/>
<polygon class="st10" points="1001.9,906 1004.2,906.4 1004.6,904 1011.2,905 1011.2,905.1 1002.3,903.7 1001.9,906 1004.2,906.4 
	1001.9,906 1001.5,908.3 1015.1,910.4 1016.6,901.1 1000.7,898.7 999.2,908 1001.5,908.3 "/>
<rect x="796.1" y="754.5" transform="matrix(0.1517 -0.9884 0.9884 0.1517 -74.0722 1434.0494)" class="st9" width="4.7" height="11.4"/>
<polygon class="st10" points="804.3,758.7 802,758.3 801.7,760.7 795.1,759.7 795.1,759.6 804,761 804.3,758.7 802,758.3 
	804.3,758.7 804.7,756.4 791.2,754.3 789.7,763.6 805.6,766 807,756.7 804.7,756.4 "/>
<rect x="796" y="754.5" transform="matrix(0.1517 -0.9884 0.9884 0.1517 -74.0939 1433.9604)" class="st10" width="4.7" height="11.3"/>
<rect x="1022.6" y="807" transform="matrix(0.8064 -0.5914 0.5914 0.8064 -279.5507 764.8743)" class="st9" width="11.4" height="4.7"/>
<polygon class="st10" points="1025.1,814.6 1026.9,813.2 1025.5,811.3 1031,807.3 1031,807.4 1023.7,812.7 1025.1,814.6 
	1026.9,813.2 1025.1,814.6 1026.4,816.5 1037.5,808.4 1032,800.8 1019,810.3 1024.6,817.9 1026.4,816.5 "/>
<rect x="772.4" y="853" transform="matrix(0.8063 -0.5916 0.5916 0.8063 -355.2716 626.0102)" class="st9" width="11.4" height="4.7"/>
<polygon class="st10" points="781.3,849.6 779.4,851 780.8,852.9 775.4,856.8 775.4,856.8 782.7,851.5 781.3,849.6 779.4,851 
	781.3,849.6 779.9,847.7 768.9,855.8 774.4,863.3 787.3,853.9 781.8,846.3 779.9,847.7 "/>
<rect x="772.4" y="852.5" transform="matrix(0.8063 -0.5916 0.5916 0.8063 -354.9373 625.9321)" class="st10" width="11.3" height="4.7"/>
<rect x="923.8" y="951.8" transform="matrix(0.806 -0.592 0.592 0.806 -387.0675 734.04)" class="st9" width="4.7" height="11.4"/>
<polygon class="st10" points="920.9,954.3 922.3,956.1 924.2,954.7 928.2,960.2 928.2,960.2 922.8,952.9 920.9,954.3 922.3,956.1 
	920.9,954.3 919,955.6 927.1,966.7 934.7,961.2 925.2,948.2 917.6,953.8 919,955.6 "/>
<rect x="877.8" y="701.6" transform="matrix(0.8063 -0.5916 0.5916 0.8063 -247.8693 657.6987)" class="st4" width="4.7" height="11.4"/>
<polygon class="st4" points="885.4,710.5 884,708.6 882.1,710 878.1,704.6 878.2,704.5 883.5,711.8 885.4,710.5 884,708.6 
	885.4,710.5 887.3,709.1 879.2,698 871.6,703.6 881.1,716.5 888.7,711 887.3,709.1 "/>
<rect x="877.8" y="701.6" transform="matrix(0.8063 -0.5916 0.5916 0.8063 -247.8693 657.6987)" class="st4" width="4.7" height="11.4"/>
<ellipse class="st8" cx="902.7" cy="832.4" rx="119.6" ry="121.1"/>
<ellipse class="st8" cx="902.7" cy="832.4" rx="119.6" ry="121.1"/>
<ellipse class="st7" cx="902.7" cy="832.4" rx="119.6" ry="121.1"/>
<circle class="st9" cx="903.2" cy="828.5" r="77"/>
<circle class="st4" cx="902.4" cy="805.5" r="8.3"/>
<polygon class="st8" points="902.4,798.5 895.8,803.3 898.3,811.1 906.5,811.1 909,803.3 "/>
<circle class="st4" cx="929.3" cy="824.1" r="8.3"/>
<polygon class="st8" points="929.3,817.1 922.7,821.9 925.2,829.6 933.4,829.6 935.9,821.9 "/>
<circle class="st4" cx="874.7" cy="824.1" r="8.3"/>
<polygon class="st8" points="874.7,817.1 868.1,821.9 870.6,829.6 878.8,829.6 881.3,821.9 "/>
<circle class="st4" cx="920.3" cy="854.5" r="8.3"/>
<polygon class="st8" points="920.3,847.5 913.7,852.3 916.2,860.1 924.3,860.1 926.8,852.3 "/>
<circle class="st4" cx="886.2" cy="854.5" r="8.3"/>
<polygon class="st8" points="886.2,847.5 879.6,852.3 882.1,860.1 890.3,860.1 892.8,852.3 "/>
<circle class="st9" cx="903.2" cy="832.4" r="15.7"/>
<ellipse transform="matrix(0.9999 -1.097377e-02 1.097377e-02 0.9999 -9.0822 9.9564)" class="st4" cx="902.7" cy="832.6" rx="15.8" ry="15.8"/>
<polygon class="st8" points="902.6,819.3 890.1,828.5 895.1,843.3 910.6,843.1 915.2,828.3 "/>
<circle class="st4" cx="617.7" cy="805.5" r="8.3"/>
<polygon class="st8" points="617.7,798.5 611.1,803.3 613.7,811.1 621.8,811.1 624.3,803.3 "/>
<circle class="st4" cx="644.6" cy="824.1" r="8.3"/>
<polygon class="st8" points="644.6,817.1 638,821.9 640.5,829.6 648.7,829.6 651.2,821.9 "/>
<circle class="st4" cx="590" cy="824.1" r="8.3"/>
<polygon class="st8" points="590.1,817.1 583.5,821.9 586,829.6 594.1,829.6 596.6,821.9 "/>
<circle class="st4" cx="635.6" cy="854.5" r="8.3"/>
<polygon class="st8" points="635.6,847.5 629,852.3 631.5,860.1 639.7,860.1 642.2,852.3 "/>
<circle class="st4" cx="601.5" cy="854.5" r="8.3"/>
<polygon class="st8" points="601.5,847.5 594.9,852.3 597.5,860.1 605.6,860.1 608.1,852.3 "/>
<ellipse transform="matrix(0.9999 -1.097377e-02 1.097377e-02 0.9999 -9.0993 6.8327)" class="st4" cx="618.1" cy="832.6" rx="15.8" ry="15.8"/>
<polygon class="st8" points="617.9,819.3 605.5,828.5 610.4,843.3 625.9,843.1 630.6,828.3 "/>
</svg>
