<?xml version="1.0" encoding="utf-8"?>
<!-- Generator: Adobe Illustrator 21.1.0, SVG Export Plug-In . SVG Version: 6.00 Build 0)  -->
<svg version="1.1" id="Layer_1" xmlns="http://www.w3.org/2000/svg" xmlns:xlink="http://www.w3.org/1999/xlink" x="0px" y="0px"
	 viewBox="0 0 1920 1105" style="enable-background:new 0 0 1920 1105;" xml:space="preserve">
<style type="text/css">
	.st0{fill:#B3B3B3;}
	.st1{fill:#808080;}
	.st2{fill:#F3F3F3;stroke:#898989;stroke-miterlimit:10;}
</style>
<g>
	<path class="st0" d="M52.5,1104.5c-28.1,0-51-22.9-51-51v-977c0-28.1,22.9-51,51-51h1817c28.1,0,51,22.9,51,51v977
		c0,28.1-22.9,51-51,51H52.5z"/>
	<path class="st1" d="M1869.5,26c27.8,0,50.5,22.7,50.5,50.5v977c0,27.8-22.7,50.5-50.5,50.5H52.5c-27.8,0-50.5-22.7-50.5-50.5v-977
		C2,48.7,24.7,26,52.5,26H1869.5 M1869.5,25H52.5C24.1,25,1,48.1,1,76.5v977c0,28.4,23.1,51.5,51.5,51.5h1817
		c28.4,0,51.5-23.1,51.5-51.5v-977C1921,48.1,1897.9,25,1869.5,25L1869.5,25z"/>
</g>
<g>
	<path class="st2" d="M52.5,1097.5c-28.1,0-51-22.9-51-51v-977c0-28.1,22.9-51,51-51h1817c28.1,0,51,22.9,51,51v977
		c0,28.1-22.9,51-51,51H52.5z"/>
	<path class="st1" d="M1869.5,19c27.8,0,50.5,22.7,50.5,50.5v977c0,27.8-22.7,50.5-50.5,50.5H52.5c-27.8,0-50.5-22.7-50.5-50.5v-977
		C2,41.7,24.7,19,52.5,19H1869.5 M1869.5,18H52.5C24.1,18,1,41.1,1,69.5v977c0,28.4,23.1,51.5,51.5,51.5h1817
		c28.4,0,51.5-23.1,51.5-51.5v-977C1921,41.1,1897.9,18,1869.5,18L1869.5,18z"/>
</g>
</svg>
