<?xml version="1.0" encoding="utf-8"?>
<!-- Generator: Adobe Illustrator 21.1.0, SVG Export Plug-In . SVG Version: 6.00 Build 0)  -->
<svg version="1.1" id="Layer_1" xmlns="http://www.w3.org/2000/svg" xmlns:xlink="http://www.w3.org/1999/xlink" x="0px" y="0px"
	 viewBox="0 0 1920 1104" style="enable-background:new 0 0 1920 1104;" xml:space="preserve">
<style type="text/css">
	.st0{fill:#B3B3B3;stroke:#898989;stroke-miterlimit:10;}
	.st1{fill:#808080;stroke:#898989;stroke-miterlimit:10;}
	.st2{fill:#F3F3F3;stroke:#898989;stroke-miterlimit:10;}
	.st3{fill:none;stroke:#000000;stroke-miterlimit:10;}
	.st4{fill:#E6E6E6;}
	.st5{fill:#D1D1D1;}
	.st6{fill:none;stroke:#D1D1D1;stroke-miterlimit:10;}
	.st7{fill:#B8B8B8;}
	.st8{fill:none;stroke:#B8B8B8;stroke-miterlimit:10;}
</style>
<g>
	<path class="st0" d="M51.5,1104c-28.1,0-51-22.9-51-51V76.5c0-28.1,22.9-51,51-51h1817c28.1,0,51,22.9,51,51V1053
		c0,28.1-22.9,51-51,51H51.5z"/>
	<path class="st1" d="M1868.5,26c27.8,0,50.5,22.7,50.5,50.5V1053c0,27.8-22.7,50.5-50.5,50.5H51.5c-27.8,0-50.5-22.7-50.5-50.5
		V76.5C1,48.7,23.7,26,51.5,26H1868.5 M1868.5,25H51.5C23.1,25,0,48.1,0,76.5V1053c0,28.4,23.1,51.5,51.5,51.5h1817
		c28.4,0,51.5-23.1,51.5-51.5V76.5C1920,48.1,1896.9,25,1868.5,25L1868.5,25z"/>
</g>
<g>
	<path class="st2" d="M51.5,1069.8c-28.1,0-51-22.7-51-50.5V51c0-27.8,22.9-50.5,51-50.5h1817c28.1,0,51,22.7,51,50.5v968.2
		c0,27.8-22.9,50.5-51,50.5H51.5V1069.8z"/>
	<path class="st1" d="M1868.5,1c27.8,0,50.5,22.5,50.5,50v968.2c0,27.5-22.7,50-50.5,50H51.5c-27.8,0-50.5-22.5-50.5-50V51
		C1,23.5,23.7,1,51.5,1H1868.5 M1868.5,0H51.5C23.1,0,0,22.9,0,51v968.2c0,28.1,23.1,51,51.5,51h1817c28.4,0,51.5-22.9,51.5-51V51
		C1920,22.9,1896.9,0,1868.5,0L1868.5,0z"/>
</g>
<line class="st3" x1="499" y1="265.2" x2="497.9" y2="265.2"/>
<path class="st4" d="M1063.7,329.4l-2.1,188.3L1042.9,841c0,27.1-73.7,49-164.8,49c-126.3,0-228.4-26.1-228.4-58.4v-52.7l10.4,4.7
	c-17.1-6.9-23.2-16.2-21.9-24V455V289.2V455V293.4c0-9.2,3.3-16.7,7.3-16.7c11.5-125.2,43.8-135.6,43.8-180.4
	c-16.7,0-12.5-42.8,4.2-40.7l5.2-1c35.7-8.2,199.7-14,321.2,1c5.2,0,11.5,32.3-7.3,37.5c2.1,41.7,39.6,122,41.7,182.5
	c4.6,0,9.4,16.9,9.4,36.5c0,5.2,1.7,17.7,0,17.7"/>
<path class="st5" d="M838.5,111.9c-12.4,107.3-114.3,204.2-125.7-6.3C746.8,112.8,793.7,114.1,838.5,111.9z"/>
<path class="st6" d="M677.3,292.3c90.7,20.9,239.9,24,351.5,1"/>
<path class="st6" d="M677.3,327.8c77.2,22.9,274.3,27.1,351.5,0"/>
<path class="st6" d="M689.8,791.9c54.2,22.9,205.5,32.3,276.4,17.7"/>
<path class="st5" d="M710.7,600c-4.2,48.8-30.1,89.3-57.4,90.7c0-50.2,25.2-90.7,56.3-90.7"/>
<path class="st5" d="M651.2,600c32.2-11.3,60-48.2,60.5-97C680.7,504.1,653.7,547.5,651.2,600z"/>
<path class="st5" d="M655.4,503c26.1-10.6,56.9-57.6,54.2-99.1C685.1,403.3,656.1,452.9,655.4,503z"/>
<path class="st5" d="M653.3,418.5c2.3-21.3,16.4-41.3,31.3-44.8l-31.3-11.5v58.4"/>
<path class="st5" d="M876.5,386.2l-75.1-1c29.6,9.8,61,40.7,73,66.8L876.5,386.2z"/>
<g>
	<path class="st5" d="M762.8,409.2c4.7,63,57,116.3,112.6,125.2"/>
	<path class="st5" d="M875.5,534.3C858.4,483,810,425,762.8,409.2"/>
</g>
<path class="st5" d="M762.8,513.5c49.3,11,97,68,111.6,123.1C819.5,625.3,768.7,571.8,762.8,513.5z"/>
<path class="st5" d="M759.7,613.6c49.4,8.1,97,64.8,114.7,122C819.6,728.4,770,672.3,759.7,613.6z"/>
<path class="st5" d="M918.2,731.4c39.8-2.6,79.4-43.8,82.4-94.9C960.7,641.7,925.9,686.1,918.2,731.4z"/>
<path class="st5" d="M1022.5,499.9c-8.1,68.5-59.4,124.5-102.2,132.5c11.8-53.3,58-111,101.2-132.5"/>
<path class="st5" d="M922.4,530.1c45.9-3.7,87.4-60.1,92.8-126.2C976.1,418.8,938.1,479.7,922.4,530.1z"/>
<path class="st5" d="M926.6,382l-1,64.7c10.2-29.7,35.5-61.2,63.6-65.7L926.6,382z"/>
<path class="st5" d="M1063.2,429c0-20.8-7-37.5-15.6-37.5c0,30.6,4.1,61.5,15.6,61.5"/>
<g>
	<path class="st5" d="M823.3,757.5c-26.7-6-57.1-33.3-64.7-64.7l3.1,58.4"/>
</g>
<path class="st5" d="M712.8,738.7L672.1,721c16.5-6.9,35.7-21,39.6-37.5L712.8,738.7z"/>
<path class="st7" d="M1095.5,460.3c0,10.4-0.9,18.8-2.1,18.8c5.2,0,9.4,1.9,9.4,4.2c117.6,0,212.8-18.2,212.8-40.7
	c-21.3,0-38.6-5.1-38.6-11.5c-101.5,0-183.6,3.7-183.6,8.3"/>
<path class="st5" d="M966.2,681.9v222.2c0,9.2,2.1,13.6,11.5,16.7v43.8c0,32.9,91.9,59.5,205.5,59.5c105.5,0,190.9-30.3,190.9-67.8
	v-42.8c6.3-3.1,11.5-7.9,11.5-17.7V675.1c0-9.2-2.2-12.5-6.3-12.5c-5.5-71.7-39.1-135.9-39.6-176.8c44.6-70.9-59.5-70.9-224.2-64.7
	c-25-3.1-33.4,14.6-19.8,18.8c73.4-1.6,152.5-5.5,183.6,0c34.4,11.5-34.5,27.1-163.7,21.9c-61.5-3.1-80.3-16.7-93.9-16.7
	c-8.6,0-15.6,6.1-15.6,13.6c0,12.1,4.2,21.9,9.4,21.9c0,20.9-41.7,105.9-41.7,182c-4.6,0-7.3,9.4-7.3,19.8v-0.5H966.2z"/>
<path class="st7" d="M1040.3,491.6c29.8,96.2,122.2,198.8,133.5,12.5c-47.5,2.7-113.1-4.8-134.5-13.6"/>
<path class="st8" d="M990.2,718.9c0,1.2,141.8,54.2,359.8,2.1"/>
<path class="st8" d="M996.5,928.6c50.9,26.5,245.1,46.3,350.4-3.1"/>
<path class="st8" d="M996.5,682.4c35.7,17.1,203.4,40.8,353.6-1"/>
<path class="st7" d="M1043.4,902.5v-39.6c-5.9,9.5-21.7,21-32.3,28.2L1043.4,902.5z"/>
<path class="st7" d="M1093.5,869.8c15.8,21.1,39.1,40.5,56.8,42.6h-56.8v-43.8"/>
<path class="st7" d="M977.7,729.4v37.5c2-9.7,13.7-20.9,26.1-25L977.7,729.4z"/>
<path class="st7" d="M1148.7,757.5c26.7,8.7,53.8,29.6,60.5,46.9v0.5v-47.5"/>
<path class="st7" d="M1266.6,797.1c4.5-15.5,26-43.9,46.9-52.1l-46.9,9.4v43.3"/>
<path class="st7" d="M1344.8,885.8l-32.3,12.5c23.4-19,30.6-42.3,33.4-46.9L1344.8,885.8z"/>
<path class="st7" d="M977.7,811.8c34.6,0,62.6-25.7,62.6-57.4C1005.7,754.4,977.7,780,977.7,811.8z"/>
<path class="st7" d="M987.1,874.3c28.2,0,51.1-24.7,51.1-55.3v-1c-29.4,0-53.2,25.2-53.2,56.3"/>
<path class="st7" d="M1093.5,826.4c51.3,6.8,102.8,40.7,112.6,77.2C1146.9,901.8,1096.2,867.4,1093.5,826.4z"/>
<g>
	<path class="st7" d="M1094.5,763.8c5.8,42.3,56.5,79.4,116.8,81.4"/>
	<path class="st7" d="M1211.3,845.1c-22.2-40.8-73.8-77.3-116.8-81.4"/>
</g>
<g>
	<path class="st7" d="M1266.6,839.9c17.3-40,53.2-83.7,82.4-96"/>
	<path class="st7" d="M1349,744c-1.1,46.1-38.9,83.2-82.4,96"/>
</g>
<path class="st7" d="M1264.5,900.4c36.9-5.5,73.2-48.8,84.5-94.9C1316.6,819.5,1282.6,865.7,1264.5,900.4z"/>
</svg>
