<?xml version="1.0" encoding="utf-8"?>
<!-- Generator: Adobe Illustrator 21.1.0, SVG Export Plug-In . SVG Version: 6.00 Build 0)  -->
<svg version="1.1" id="Layer_1" xmlns="http://www.w3.org/2000/svg" xmlns:xlink="http://www.w3.org/1999/xlink" x="0px" y="0px"
	 viewBox="0 0 1920 1105" style="enable-background:new 0 0 1920 1105;" xml:space="preserve">
<style type="text/css">
	.st0{fill:#B3B3B3;}
	.st1{fill:#808080;}
	.st2{fill:#F3F3F3;stroke:#898989;stroke-miterlimit:10;}
	.st3{fill:#D1D1D1;}
	.st4{fill:#B8B8B8;}
	.st5{fill:none;}
</style>
<g>
	<path class="st0" d="M52.5,1104.5c-28.1,0-51-22.9-51-51v-977c0-28.1,22.9-51,51-51h1817c28.1,0,51,22.9,51,51v977
		c0,28.1-22.9,51-51,51H52.5z"/>
	<path class="st1" d="M1869.5,26c27.8,0,50.5,22.7,50.5,50.5v977c0,27.8-22.7,50.5-50.5,50.5H52.5c-27.8,0-50.5-22.7-50.5-50.5v-977
		C2,48.7,24.7,26,52.5,26H1869.5 M1869.5,25H52.5C24.1,25,1,48.1,1,76.5v977c0,28.4,23.1,51.5,51.5,51.5h1817
		c28.4,0,51.5-23.1,51.5-51.5v-977C1921,48.1,1897.9,25,1869.5,25L1869.5,25z"/>
</g>
<g>
	<path class="st2" d="M52.5,1097.5c-28.1,0-51-22.9-51-51v-977c0-28.1,22.9-51,51-51h1817c28.1,0,51,22.9,51,51v977
		c0,28.1-22.9,51-51,51H52.5z"/>
	<path class="st1" d="M1869.5,19c27.8,0,50.5,22.7,50.5,50.5v977c0,27.8-22.7,50.5-50.5,50.5H52.5c-27.8,0-50.5-22.7-50.5-50.5v-977
		C2,41.7,24.7,19,52.5,19H1869.5 M1869.5,18H52.5C24.1,18,1,41.1,1,69.5v977c0,28.4,23.1,51.5,51.5,51.5h1817
		c28.4,0,51.5-23.1,51.5-51.5v-977C1921,41.1,1897.9,18,1869.5,18L1869.5,18z"/>
</g>
<polyline class="st3" points="127.6,634.1 322.2,708.3 1134.2,708.3 1133.6,708.3 1342.9,634.1 "/>
<circle class="st4" cx="718.8" cy="838.5" r="190.4"/>
<line class="st5" x1="1831.3" y1="607.9" x2="1827.6" y2="587.3"/>
<path class="st4" d="M1813.7,608.6l-2.4-14.6h1.2l-75.4-14.6h1.2c-18.2,2.4-5.5-16.2,7.3-14.6l73,14.6l-1.8-0.6
	c6.1,0,10.9,3.8,10.9,8.5l-0.6-0.6l4.9,21.9"/>
<path class="st3" d="M1389.1,615.9h368.6l56-7.3h19.5h-1.2l14.6,2.4c15.5,0,28,16.3,28,36.5c44,10.9-96,5-113.1,7.3l-591.2,40.1
	L1389.1,615.9z"/>
<polyline class="st4" points="1389.1,401.1 1389.1,696 1342.9,696 1342.9,634.6 88.6,634.6 88.6,764.3 48.5,764.3 48.5,401.1 
	49.1,401.8 1389.7,401.8 "/>
</svg>
