<?xml version="1.0" encoding="utf-8"?>
<!-- Generator: Adobe Illustrator 21.1.0, SVG Export Plug-In . SVG Version: 6.00 Build 0)  -->
<svg version="1.1" id="Layer_1" xmlns="http://www.w3.org/2000/svg" xmlns:xlink="http://www.w3.org/1999/xlink" x="0px" y="0px"
	 viewBox="0 0 1920 1105" style="enable-background:new 0 0 1920 1105;" xml:space="preserve">
<style type="text/css">
	.st0{fill:#B3B3B3;}
	.st1{fill:#808080;}
	.st2{fill:#F3F3F3;}
	.st3{fill:#D1D1D1;}
</style>
<g>
	<path class="st0" d="M52.5,1104.5c-28.1,0-51-22.9-51-51v-977c0-28.1,22.9-51,51-51h1817c28.1,0,51,22.9,51,51v977
		c0,28.1-22.9,51-51,51H52.5z"/>
	<path class="st1" d="M1869.5,26c27.8,0,50.5,22.7,50.5,50.5v977c0,27.8-22.7,50.5-50.5,50.5H52.5c-27.8,0-50.5-22.7-50.5-50.5v-977
		C2,48.7,24.7,26,52.5,26H1869.5 M1869.5,25H52.5C24.1,25,1,48.1,1,76.5v977c0,28.4,23.1,51.5,51.5,51.5h1817
		c28.4,0,51.5-23.1,51.5-51.5v-977C1921,48.1,1897.9,25,1869.5,25L1869.5,25z"/>
</g>
<g>
	<path class="st2" d="M52.5,1097.5c-28.1,0-51-22.9-51-51v-977c0-28.1,22.9-51,51-51h1817c28.1,0,51,22.9,51,51v977
		c0,28.1-22.9,51-51,51H52.5z"/>
	<path class="st1" d="M1869.5,19c27.8,0,50.5,22.7,50.5,50.5v977c0,27.8-22.7,50.5-50.5,50.5H52.5c-27.8,0-50.5-22.7-50.5-50.5v-977
		C2,41.7,24.7,19,52.5,19H1869.5 M1869.5,18H52.5C24.1,18,1,41.1,1,69.5v977c0,28.4,23.1,51.5,51.5,51.5h1817
		c28.4,0,51.5-23.1,51.5-51.5v-977C1921,41.1,1897.9,18,1869.5,18L1869.5,18z"/>
</g>
<polygon class="st1" points="1541.1,846.5 1534.1,854.5 1313.1,854.5 1284.1,854.5 1282.1,774.5 1360.1,754.5 1477.1,754.5 
	1506.1,770.5 "/>
<polyline class="st1" points="817.1,852.5 741.1,696.5 586.1,639.5 489.1,799.5 536.1,854.5 779.1,854.5 813.1,849.5 "/>
<path class="st3" d="M1458.1,761.5c43.7,0,79,59.5,79,133c6.1,0,11-1.3,11-3c1.7,0,3,19.2,3,43c1.5,0,4-32.5,4-52
	c0-48.5-36.8-129-59-129l6,5c0-6-36.8-16-59-16h-56c-16.5,0-44,5-44,8l10-4h-31c0-4.5-14.4-12-23-12h-11h-108v4h13c18.8,0,50,5,50,8
	c0,9,0,9-3,9l-10,6l-154,1v-2l-9-3l-20,1l-1,4h-103h1l-2-2h-97v2h-21l3-28c5,0,5,0,5,0c54,0,54,0,54-5c0.9,0,14-1.9,14-2l4-29l1-42
	l-1-307c0-110.5-5.7-172-16-172l-10-4l-5,2c0-4.6-9.5-22-12-22c-5.1,0-155,25.1-155,26c0,0.1-1.9,3-2,3c-163.6,0-296,32.2-296,72
	l-22,83c0,6.6,4,12,9,12c-7.2,0-13,15.7-13,35c0,21,9.8,38,22,38l-14,121h3c-12.4,0-22.5,22.6-22.5,50.5l-0.5-0.5l-1,44l3,93
	c0,7.2,4,13,9,13c0,0,0,0.4,0,1c0,6.6-3.6,12-8,12h1c-1.7,0-3,4-3,9c0,3.3,0.9,6,2,6l1,41c-0.6,0-1,1.3-1,3c-1.7,0-3,9.4-3,21v-1
	l-3,19c-1,12,3,20.5,3,20.5v-0.5c0,8.3,22,13,47,14l116,4c0-91.2,43.8-165,98-165h62c49.2,0,89,74.7,89,167l10-3v37l6-1l1-31l4,20
	l503-2l7-7c0-5.5-1.8-10-4-10c0-75.7,30-137,67-137L1458.1,761.5z"/>
<g>
	<circle class="st3" cx="660.1" cy="869.5" r="105.5"/>
</g>
<g>
	<circle class="st3" cx="1421.1" cy="869.5" r="105.5"/>
</g>
<path class="st1" d="M622.1,398.5l-6,104l-156,19l-6,1l6-132c0-8.8,7.6-16,17-16h127c9.9,0,18,10.3,18,23"/>
<g>
	<path class="st1" d="M234.1,437.4l5.9-120.5l-0.3-0.5l-53,32.6l-7-11.3l70.5-43.4l5.1,8.2l-5.7,120l0.3,0.5l58.5-35.9l7,11.3
		l-76.3,46.9L234.1,437.4z"/>
</g>
<g>
	<path class="st1" d="M184,254.5l38.9-86l-0.1-0.4l-48,8.5l-1.8-10.2l63.8-11.3l1.3,7.4l-38.6,85.7l0.1,0.4l52.9-9.4l1.8,10.2
		l-69,12.2L184,254.5z"/>
</g>
<g>
	<path class="st1" d="M233.4,109.2L281,59.7l0.1-0.3l-35-5.9l1.3-7.5l46.5,7.9l-0.9,5.4l-47.4,49.3l-0.1,0.3l38.5,6.5l-1.3,7.5
		l-50.3-8.5L233.4,109.2z"/>
</g>
</svg>
