<?xml version="1.0" encoding="utf-8"?>
<!-- Generator: Adobe Illustrator 21.1.0, SVG Export Plug-In . SVG Version: 6.00 Build 0)  -->
<svg version="1.1" id="Layer_1" xmlns="http://www.w3.org/2000/svg" xmlns:xlink="http://www.w3.org/1999/xlink" x="0px" y="0px"
	 viewBox="0 0 1920 1104" style="enable-background:new 0 0 1920 1104;" xml:space="preserve">
<style type="text/css">
	.st0{fill:#B3B3B3;stroke:#898989;stroke-miterlimit:10;}
	.st1{fill:#808080;stroke:#898989;stroke-miterlimit:10;}
	.st2{fill:#F3F3F3;stroke:#898989;stroke-miterlimit:10;}
	.st3{fill:#D1D1D1;}
	.st4{fill:#B8B8B8;}
	.st5{fill:none;}
</style>
<g>
	<path class="st0" d="M51.5,1104c-28.1,0-51-22.9-51-51V76.5c0-28.1,22.9-51,51-51h1817c28.1,0,51,22.9,51,51V1053
		c0,28.1-22.9,51-51,51H51.5z"/>
	<path class="st1" d="M1868.5,26c27.8,0,50.5,22.7,50.5,50.5V1053c0,27.8-22.7,50.5-50.5,50.5H51.5c-27.8,0-50.5-22.7-50.5-50.5
		V76.5C1,48.7,23.7,26,51.5,26H1868.5 M1868.5,25H51.5C23.1,25,0,48.1,0,76.5V1053c0,28.4,23.1,51.5,51.5,51.5h1817
		c28.4,0,51.5-23.1,51.5-51.5V76.5C1920,48.1,1896.9,25,1868.5,25L1868.5,25z"/>
</g>
<g>
	<path class="st2" d="M51.5,1069.8c-28.1,0-51-22.7-51-50.5V51c0-27.8,22.9-50.5,51-50.5h1817c28.1,0,51,22.7,51,50.5v968.2
		c0,27.8-22.9,50.5-51,50.5H51.5V1069.8z"/>
	<path class="st1" d="M1868.5,1c27.8,0,50.5,22.5,50.5,50v968.2c0,27.5-22.7,50-50.5,50H51.5c-27.8,0-50.5-22.5-50.5-50V51
		C1,23.5,23.7,1,51.5,1H1868.5 M1868.5,0H51.5C23.1,0,0,22.9,0,51v968.2c0,28.1,23.1,51,51.5,51h1817c28.4,0,51.5-22.9,51.5-51V51
		C1920,22.9,1896.9,0,1868.5,0L1868.5,0z"/>
</g>
<polyline class="st3" points="125.6,616.6 320.2,690.8 1132.2,690.8 1131.6,690.8 1340.9,616.6 "/>
<circle class="st4" cx="716.8" cy="821" r="190.4"/>
<line class="st5" x1="1829.3" y1="590.4" x2="1825.6" y2="569.8"/>
<path class="st4" d="M1811.7,591.1l-2.4-14.6h1.2l-75.4-14.6h1.2c-18.2,2.4-5.5-16.2,7.3-14.6l73,14.6l-1.8-0.6
	c6.1,0,10.9,3.8,10.9,8.5l-0.6-0.6l4.9,21.9"/>
<path class="st3" d="M1387.1,598.4h368.6l56-7.3h19.5h-1.2l14.6,2.4c15.5,0,28,16.3,28,36.5c44,10.9-96,5-113.1,7.3l-591.2,40.1
	L1387.1,598.4z"/>
<polyline class="st4" points="1387.1,383.6 1387.1,678.5 1340.9,678.5 1340.9,617.1 86.6,617.1 86.6,746.8 46.5,746.8 46.5,383.6 
	47.1,384.3 1387.7,384.3 "/>
</svg>
