<?xml version="1.0" encoding="utf-8"?>
<!-- Generator: Adobe Illustrator 21.1.0, SVG Export Plug-In . SVG Version: 6.00 Build 0)  -->
<svg version="1.1" id="Layer_1" xmlns="http://www.w3.org/2000/svg" xmlns:xlink="http://www.w3.org/1999/xlink" x="0px" y="0px"
	 viewBox="0 0 841.9 595.3" style="enable-background:new 0 0 841.9 595.3;" xml:space="preserve">
<style type="text/css">
	.st0{clip-path:url(#SVGID_2_);fill:#EC1C24;}
	.st1{clip-path:url(#SVGID_2_);fill:#FFF100;}
	.st2{clip-path:url(#SVGID_2_);fill:none;stroke:#EC1C24;stroke-width:3;}
</style>
<g>
	<defs>
		<rect id="SVGID_1_" x="102.5" y="84.6" width="619.3" height="413.9"/>
	</defs>
	<clipPath id="SVGID_2_">
		<use xlink:href="#SVGID_1_"  style="overflow:visible;"/>
	</clipPath>
	<path class="st0" d="M614.2,291.6c0,114.3-90.5,207-202.1,207c-111.6,0-202.1-92.7-202.1-207c0-114.3,90.5-207,202.1-207
		C523.8,84.6,614.2,177.3,614.2,291.6"/>
	<path class="st1" d="M563.7,286.9c0,85.7-67.8,155.2-151.6,155.2c-83.7,0-151.6-69.5-151.6-155.2c0-85.7,67.8-155.2,151.6-155.2
		C495.9,131.7,563.7,201.2,563.7,286.9"/>
	<rect x="115.3" y="239" class="st1" width="593.6" height="102.2"/>
	<rect x="115.3" y="239" class="st2" width="593.6" height="102.2"/>
	<path class="st0" d="M130.6,265.7h10.7c6.9,0,11.6,0.3,14,0.8c2.4,0.6,4.3,1.5,5.6,2.8c1.3,1.3,2.1,2.7,2.4,4.3
		c0.3,1.6,0.5,4.7,0.5,9.3V300c0,4.4-0.2,7.3-0.7,8.8c-0.4,1.5-1.3,2.6-2.4,3.5c-1.2,0.8-2.6,1.4-4.3,1.7c-1.7,0.3-4.3,0.5-7.7,0.5
		h-18V265.7z M144.9,274v32.1c2.1,0,3.3-0.4,3.8-1.1c0.5-0.7,0.7-2.7,0.7-6v-18.9c0-2.2-0.1-3.6-0.2-4.2c-0.2-0.6-0.5-1.1-1.1-1.4
		C147.5,274.2,146.4,274,144.9,274"/>
	<path class="st0" d="M193.8,265.7l8.2,48.7h-14.6l-0.8-8.8h-5.1l-0.8,8.8h-14.8l7.3-48.7H193.8z M186.2,297.1
		c-0.7-5.5-1.4-12.3-2.2-20.5c-1.5,9.3-2.4,16.2-2.7,20.5H186.2z"/>
	<polygon class="st0" points="218.7,265.7 218.7,304.7 227.4,304.7 227.4,314.5 204.4,314.5 204.4,265.7 	"/>
	<polygon class="st0" points="230.8,265.7 254.7,265.7 254.7,275.5 245.1,275.5 245.1,284.7 254.1,284.7 254.1,294 245.1,294 
		245.1,304.7 255.6,304.7 255.6,314.5 230.8,314.5 	"/>
	<polygon class="st0" points="300.8,265.7 300.8,275.5 292.3,275.5 292.3,314.5 278,314.5 278,275.5 269.6,275.5 269.6,265.7 	"/>
	<path class="st0" d="M304.1,265.7h10.1c6.8,0,11.3,0.2,13.7,0.7c2.4,0.5,4.3,1.6,5.9,3.6c1.5,1.9,2.3,4.9,2.3,9.1
		c0,3.8-0.5,6.3-1.6,7.7c-1.1,1.3-3.2,2.1-6.3,2.4c2.8,0.6,4.7,1.5,5.7,2.5c1,1,1.6,2,1.8,2.9c0.2,0.9,0.4,3.3,0.4,7.2v12.9h-13.3
		v-16.2c0-2.6-0.2-4.2-0.7-4.8c-0.5-0.6-1.7-0.9-3.6-0.9v22h-14.3V265.7z M318.4,274v10.8c1.6,0,2.7-0.2,3.4-0.6
		c0.6-0.4,1-1.7,1-3.8v-2.7c0-1.6-0.3-2.6-0.9-3C321.2,274.3,320,274,318.4,274"/>
	<path class="st0" d="M366.3,265.7l8.2,48.7h-14.6l-0.8-8.8H354l-0.8,8.8h-14.8l7.3-48.7H366.3z M358.7,297.1
		c-0.7-5.5-1.5-12.3-2.2-20.5c-1.5,9.3-2.4,16.2-2.8,20.5H358.7z"/>
	<polygon class="st0" points="376.9,265.7 401.1,265.7 401.1,275.5 391.2,275.5 391.2,284.7 400,284.7 400,294 391.2,294 
		391.2,314.5 376.9,314.5 	"/>
	<rect x="404.6" y="265.7" class="st0" width="14.3" height="48.8"/>
	<polygon class="st0" points="458.7,265.7 450.5,287.7 459.5,314.5 444.7,314.5 438.9,293.6 438.9,314.5 424.6,314.5 424.6,265.7 
		438.9,265.7 438.9,284.6 445.3,265.7 	"/>
	<polygon class="st0" points="496.1,265.7 487.9,287.7 496.9,314.5 482.1,314.5 476.3,293.6 476.3,314.5 462,314.5 462,265.7 
		476.3,265.7 476.3,284.6 482.6,265.7 	"/>
	<path class="st0" d="M528.6,280.5h-13.3v-3.6c0-1.7-0.2-2.8-0.5-3.2c-0.3-0.4-0.9-0.7-1.7-0.7c-0.9,0-1.5,0.3-1.9,0.9
		c-0.5,0.6-0.7,1.6-0.7,2.8c0,1.6,0.2,2.8,0.7,3.7c0.5,0.8,1.8,1.8,4,3c6.4,3.4,10.4,6.1,12,8.2c1.7,2.1,2.5,5.6,2.5,10.4
		c0,3.5-0.4,6-1.4,7.7c-0.9,1.6-2.7,3-5.3,4.1c-2.6,1.1-5.7,1.7-9.2,1.7c-3.8,0-7.1-0.6-9.8-1.9c-2.7-1.3-4.5-2.9-5.3-4.9
		c-0.8-2-1.3-4.8-1.3-8.4V297h13.3v5.9c0,1.8,0.2,3,0.6,3.5c0.4,0.5,1,0.8,2,0.8c1,0,1.7-0.3,2.1-1c0.5-0.7,0.7-1.6,0.7-3
		c0-2.9-0.4-4.7-1.3-5.6c-0.9-0.9-3.1-2.4-6.7-4.4c-3.6-2.1-5.9-3.6-7.1-4.6c-1.2-0.9-2.1-2.3-2.9-3.9c-0.8-1.7-1.1-3.8-1.1-6.4
		c0-3.7,0.5-6.5,1.6-8.2c1.1-1.7,2.8-3.1,5.2-4c2.4-1,5.3-1.5,8.7-1.5c3.7,0,6.9,0.5,9.5,1.6c2.6,1.1,4.4,2.4,5.2,4
		c0.8,1.6,1.3,4.4,1.3,8.2V280.5z"/>
	<polygon class="st0" points="534.2,265.7 558.1,265.7 558.1,275.5 548.5,275.5 548.5,284.7 557.5,284.7 557.5,294 548.5,294 
		548.5,304.7 559,304.7 559,314.5 534.2,314.5 	"/>
	<polygon class="st0" points="595.1,265.7 595.1,314.5 582.5,314.5 575.1,292.3 575.1,314.5 563.2,314.5 563.2,265.7 575.1,265.7 
		583.1,287.7 583.1,265.7 	"/>
	<polygon class="st0" points="629.6,265.7 629.6,275.5 621.2,275.5 621.2,314.5 606.8,314.5 606.8,275.5 598.4,275.5 598.4,265.7 	
		"/>
	<polygon class="st0" points="632.9,265.7 656.7,265.7 656.7,275.5 647.2,275.5 647.2,284.7 656.1,284.7 656.1,294 647.2,294 
		647.2,304.7 657.7,304.7 657.7,314.5 632.9,314.5 	"/>
	<path class="st0" d="M661.8,265.7h10.1c6.8,0,11.3,0.2,13.7,0.7c2.4,0.5,4.3,1.6,5.8,3.6c1.5,1.9,2.3,4.9,2.3,9.1
		c0,3.8-0.5,6.3-1.6,7.7c-1,1.3-3.2,2.1-6.3,2.4c2.8,0.6,4.7,1.5,5.7,2.5c1,1,1.6,2,1.8,2.9c0.3,0.9,0.4,3.3,0.4,7.2v12.9h-13.3
		v-16.2c0-2.6-0.2-4.2-0.7-4.8c-0.5-0.6-1.7-0.9-3.7-0.9v22h-14.3V265.7z M676.1,274v10.8c1.6,0,2.7-0.2,3.4-0.6
		c0.7-0.4,1-1.7,1-3.8v-2.7c0-1.6-0.3-2.6-0.9-3C678.9,274.3,677.8,274,676.1,274"/>
</g>
</svg>
